SplineFontDB: 3.2
FontName: PenstrokeNew
FullName: Penstroke New
FamilyName: Penstroke New
Weight: Regular
Copyright: Copyright (c) 2024, Daniel Stelzer
UComments: "2024-6-15: Created with FontForge (http://fontforge.org)"
Version: 001.000
ItalicAngle: 0
UnderlinePosition: -100
UnderlineWidth: 50
Ascent: 800
Descent: 200
InvalidEm: 0
LayerCount: 2
Layer: 0 0 "Back" 1
Layer: 1 0 "Fore" 0
XUID: [1021 694 1061630572 13435941]
OS2Version: 0
OS2_WeightWidthSlopeOnly: 0
OS2_UseTypoMetrics: 1
CreationTime: 1718469670
ModificationTime: 1718472285
OS2TypoAscent: 0
OS2TypoAOffset: 1
OS2TypoDescent: 0
OS2TypoDOffset: 1
OS2TypoLinegap: 0
OS2WinAscent: 0
OS2WinAOffset: 1
OS2WinDescent: 0
OS2WinDOffset: 1
HheadAscent: 0
HheadAOffset: 1
HheadDescent: 0
HheadDOffset: 1
OS2Vendor: 'PfEd'
Lookup: 4 0 1 "ligatures" { "ligsubtable"  } ['liga' ('latn' <'dflt' > 'xsux' <'dflt' > ) ]
MarkAttachClasses: 1
DEI: 91125
Encoding: ISO8859-1
UnicodeInterp: none
NameList: AGL For New Fonts
DisplaySize: -48
AntiAlias: 1
FitToEm: 0
WinInfo: 377 29 11
BeginPrivate: 0
EndPrivate
BeginChars: 675 419

StartChar: U12038
Encoding: 256 73784 0
Width: 1212
VWidth: 100
Flags: W
HStem: 287.5 25<220.617 1112.5>
VStem: 100 25<133.332 375.83 406.597 466.668>
LayerCount: 2
Fore
SplineSet
100 466.66796875 m 1
 125 466.66796875 l 1
 125 381.376953125 193.876953125 312.5 279.16796875 312.5 c 2
 1112.5 312.5 l 1
 1112.5 287.5 l 1
 279.16796875 287.5 l 2
 213.541015625 287.5 156.209960938 323.064453125 125 375.830078125 c 1
 125 133.33203125 l 1
 100 133.33203125 l 1
 100 466.66796875 l 1
EndSplineSet
EndChar

StartChar: U12400
Encoding: 257 74752 1
Width: 1212
VWidth: 100
Flags: W
HStem: 287.5 25<220.777 266.668 387.282 1112.5>
VStem: 100 25<133.332 375.83 406.051 466.668> 266.668 25<133.332 289.073 313.045 375.83 406.597 466.668>
LayerCount: 2
Fore
SplineSet
100 466.66796875 m 1
 125 466.66796875 l 1
 125 385.58984375 187.252929688 319.391601562 266.66796875 313.044921875 c 1
 266.66796875 466.66796875 l 1
 291.66796875 466.66796875 l 1
 291.66796875 381.376953125 360.541015625 312.5 445.83203125 312.5 c 2
 1112.5 312.5 l 1
 1112.5 287.5 l 1
 445.83203125 287.5 l 2
 380.205078125 287.5 322.876953125 323.065429688 291.66796875 375.830078125 c 1
 291.66796875 133.33203125 l 1
 266.66796875 133.33203125 l 1
 266.66796875 287.9375 l 1
 206.306640625 292.130859375 154.2109375 326.444335938 125 375.830078125 c 1
 125 133.33203125 l 1
 100 133.33203125 l 1
 100 466.66796875 l 1
EndSplineSet
EndChar

StartChar: U1212c
Encoding: 258 74028 2
Width: 1212
VWidth: 100
Flags: W
HStem: 287.5 25<220.777 266.668 387.282 1112.5>
VStem: 100 25<133.332 375.83 406.051 466.668> 266.668 25<133.332 289.073 313.045 375.83 406.597 466.668>
LayerCount: 2
Fore
SplineSet
100 466.66796875 m 1
 125 466.66796875 l 1
 125 385.58984375 187.252929688 319.391601562 266.66796875 313.044921875 c 1
 266.66796875 466.66796875 l 1
 291.66796875 466.66796875 l 1
 291.66796875 381.376953125 360.541015625 312.5 445.83203125 312.5 c 2
 1112.5 312.5 l 1
 1112.5 287.5 l 1
 445.83203125 287.5 l 2
 380.205078125 287.5 322.876953125 323.065429688 291.66796875 375.830078125 c 1
 291.66796875 133.33203125 l 1
 266.66796875 133.33203125 l 1
 266.66796875 287.9375 l 1
 206.306640625 292.130859375 154.2109375 326.444335938 125 375.830078125 c 1
 125 133.33203125 l 1
 100 133.33203125 l 1
 100 466.66796875 l 1
EndSplineSet
EndChar

StartChar: U1227e
Encoding: 259 74366 3
Width: 2218
VWidth: 100
Flags: W
HStem: -155.478 24.8324<1127.74 1246.51> 187.5 25<532.484 577.309 612.66 763.488 794.997 852.469> 287.5 25<220.777 266.668 387.282 1112.5 1445.83 1688.33 1719.1 1779.17> 437.5 25<536.109 600 625 688.891 713.891 745.832> 537.5 25<536.109 600 625 688.891 713.891 745.832> 637.5 25<536.857 600 625.748 688.891 714.639 745.832> 687.5 25<493.773 521.002 542.777 609.893 631.668 698.783 720.559 745.832>
VStem: 100 25<133.332 375.83 406.051 466.668> 266.668 25<133.332 289.073 313.045 375.83 406.597 466.668> 466.668 25<400 450.176 472.036 550.176 572.036 650.176> 511.109 25<400 437.5 467.062 537.5 567.062 637.5> 600 25<400 437.5 462.5 537.5 562.5 637.5> 679.977 25<-100 97.4799> 688.891 25<400 437.5 462.5 537.5 562.5 637.5> 1600 25<-200 29.7754 70.2266 191.883>
LayerCount: 2
Fore
SplineSet
1175.85546875 954.66015625 m 1xfff2
 1198.21484375 943.48046875 l 1
 1187.11425206 921.279285365 1181.85309446 897.712515261 1181.85309446 874.515204554 c 0
 1181.85309446 818.004580725 1213.07549103 763.686517683 1267.16015625 736.64453125 c 2
 2118.08984375 311.1796875 l 1
 2112.5 300 l 1
 2118.08984375 288.8203125 l 1
 1625 42.275390625 l 1
 1625 -200 l 1
 1600 -200 l 1
 1600 29.775390625 l 1
 1267.16015625 -136.64453125 l 2
 1241.58356315 -149.433040558 1214.39612024 -155.477599537 1187.59614621 -155.477599537 c 0
 1152.89022067 -155.477599537 1118.83408862 -145.340746869 1089.76757812 -126.5859375 c 1
 1198.21484375 -343.48046875 l 1
 1175.85546875 -354.66015625 l 1
 1026.78515625 -56.51953125 l 1
 1049.14453125 -45.33984375 l 1
 1076.18636856 -99.4235183679 1130.5034908 -130.645176487 1187.0138411 -130.645176487 c 0
 1210.21147908 -130.645176487 1233.77870291 -125.383943941 1255.98046875 -114.283203125 c 2
 1600 57.7265625 l 1
 1600 133.33203125 l 2
 1600 198.958984375 1635.56445312 256.290039062 1688.33007812 287.5 c 1
 1445.83203125 287.5 l 1
 1445.83203125 312.5 l 1
 1779.16796875 312.5 l 1
 1779.16796875 287.5 l 1
 1693.87695312 287.5 1625 218.623046875 1625 133.33203125 c 2
 1625 70.2265625 l 1
 2084.55078125 300 l 1
 1255.98046875 714.28515625 l 2
 1197.28222656 743.634765625 1161.90917969 801.083007812 1157.59179688 862.234375 c 1
 1049.14453125 645.33984375 l 1
 1026.78515625 656.51953125 l 1
 1175.85546875 954.66015625 l 1xfff2
479.16796875 712.5 m 1
 568.0546875 712.5 l 1
 656.9453125 712.5 l 1
 745.83203125 712.5 l 1
 745.83203125 687.5 l 1
 730.435546875 687.5 717.766601562 676.890625 714.638671875 662.5 c 1
 745.83203125 662.5 l 1
 745.83203125 637.5 l 1
 713.890625 637.5 l 1
 713.890625 562.5 l 1
 745.83203125 562.5 l 1
 745.83203125 537.5 l 1
 713.890625 537.5 l 1
 713.890625 462.5 l 1
 745.83203125 462.5 l 1
 745.83203125 437.5 l 1
 713.890625 437.5 l 1
 713.890625 400 l 1
 688.890625 400 l 1
 688.890625 437.5 l 1xfff6
 625 437.5 l 1
 625 400 l 1
 600 400 l 1
 600 437.5 l 1
 536.109375 437.5 l 1
 536.109375 400 l 1
 511.109375 400 l 1
 511.109375 440.212890625 l 1
 504.024414062 442.388671875 497.462890625 445.796875 491.66796875 450.17578125 c 1
 491.66796875 400 l 1
 466.66796875 400 l 1
 466.66796875 500 l 1
 466.66796875 600 l 1
 466.66796875 700 l 1
 479.16796875 700 l 1
 479.16796875 712.5 l 1
493.7734375 687.5 m 1
 496.971679688 678.322265625 503.609375 670.825195312 512.1796875 666.509765625 c 1
 513.689453125 674.155273438 516.745117188 681.265625 521.001953125 687.5 c 1
 493.7734375 687.5 l 1
568.0546875 687.5 m 2
 552.653320312 687.5 539.985351562 676.890625 536.857421875 662.5 c 1
 600.431640625 662.5 l 1
 601.563476562 671.671875 604.900390625 680.188476562 609.892578125 687.5 c 1
 568.0546875 687.5 l 2
656.9453125 687.5 m 2
 641.543945312 687.5 628.875976562 676.890625 625.748046875 662.5 c 1
 689.322265625 662.5 l 1
 690.455078125 671.671875 693.791015625 680.188476562 698.783203125 687.5 c 1
 656.9453125 687.5 l 2
491.66796875 650.17578125 m 1
 491.66796875 600 l 2
 491.66796875 585.708007812 499.48046875 573.3984375 511.109375 567.0625 c 1
 511.109375 640.212890625 l 1
 504.024414062 642.388671875 497.462890625 645.796875 491.66796875 650.17578125 c 1
536.109375 637.5 m 1
 536.109375 562.5 l 1
 600 562.5 l 1
 600 637.5 l 1
 536.109375 637.5 l 1
625 637.5 m 1
 625 562.5 l 1
 688.890625 562.5 l 1
 688.890625 637.5 l 1
 625 637.5 l 1
491.66796875 550.17578125 m 1
 491.66796875 500 l 2
 491.66796875 485.708007812 499.48046875 473.3984375 511.109375 467.0625 c 1
 511.109375 540.212890625 l 1
 504.024414062 542.388671875 497.462890625 545.796875 491.66796875 550.17578125 c 1
536.109375 537.5 m 1
 536.109375 462.5 l 1
 600 462.5 l 1
 600 537.5 l 1
 536.109375 537.5 l 1
625 537.5 m 1
 625 462.5 l 1
 688.890625 462.5 l 1
 688.890625 537.5 l 1
 625 537.5 l 1
100 466.66796875 m 1
 125 466.66796875 l 1
 125 385.58984375 187.252929688 319.391601562 266.66796875 313.044921875 c 1
 266.66796875 466.66796875 l 1
 291.66796875 466.66796875 l 1
 291.66796875 381.376953125 360.541015625 312.5 445.83203125 312.5 c 2
 1112.5 312.5 l 1
 1112.5 287.5 l 1
 445.83203125 287.5 l 2
 380.205078125 287.5 322.876953125 323.065429688 291.66796875 375.830078125 c 1
 291.66796875 133.33203125 l 1
 266.66796875 133.33203125 l 1
 266.66796875 287.9375 l 1
 206.306640625 292.130859375 154.2109375 326.444335938 125 375.830078125 c 1
 125 133.33203125 l 1
 100 133.33203125 l 1
 100 466.66796875 l 1
532.484375 212.5 m 1
 852.46875 212.5 l 1
 852.46875 187.5 l 1
 770.866210938 187.5 704.9765625 121.611328125 704.9765625 40.0078125 c 2
 704.9765625 -100 l 1
 679.9765625 -100 l 1
 679.9765625 40.0078125 l 2xfffa
 679.9765625 102.545898438 713.5390625 157.25 763.48828125 187.5 c 1
 612.66015625 187.5 l 1
 550.162109375 125 l 1
 616.322265625 58.837890625 l 1
 607.484375 50 l 1
 616.322265625 41.162109375 l 1
 550.162109375 -25 l 1
 616.322265625 -91.162109375 l 1
 598.646484375 -108.837890625 l 1
 514.806640625 -25 l 1
 589.80859375 50 l 1
 514.806640625 125 l 1
 577.30859375 187.5 l 1
 532.484375 187.5 l 1
 532.484375 212.5 l 1
EndSplineSet
EndChar

StartChar: U12044
Encoding: 260 73796 4
Width: 1712
VWidth: 100
Flags: W
HStem: 287.5 25<220.777 266.668 387.282 763.572 1064.37 1612.5> 787.5 25<789.582 1032.08 1062.85 1122.92>
VStem: 100 25<133.332 375.83 406.051 466.668> 266.668 25<133.332 289.073 313.045 375.83 406.597 466.668> 943.75 25<-200 107.324 142.676 375.83 406.597 457.324 492.676 691.883>
LayerCount: 2
Fore
SplineSet
789.58203125 812.5 m 1
 1122.91796875 812.5 l 1
 1122.91796875 787.5 l 1
 1037.62695312 787.5 968.75 718.623046875 968.75 633.33203125 c 2
 968.75 466.66796875 l 2
 968.75 381.376953125 1037.62695312 312.5 1122.91796875 312.5 c 2
 1612.5 312.5 l 1
 1612.5 287.5 l 1
 1122.91796875 287.5 l 2
 1057.29101562 287.5 999.959960938 323.064453125 968.75 375.830078125 c 1
 968.75 -200 l 1
 943.75 -200 l 1
 943.75 107.32421875 l 1
 763.572265625 287.5 l 1
 445.83203125 287.5 l 2
 380.205078125 287.5 322.876953125 323.065429688 291.66796875 375.830078125 c 1
 291.66796875 133.33203125 l 1
 266.66796875 133.33203125 l 1
 266.66796875 287.9375 l 1
 206.306640625 292.130859375 154.2109375 326.444335938 125 375.830078125 c 1
 125 133.33203125 l 1
 100 133.33203125 l 1
 100 466.66796875 l 1
 125 466.66796875 l 1
 125 385.58984375 187.252929688 319.391601562 266.66796875 313.044921875 c 1
 266.66796875 466.66796875 l 1
 291.66796875 466.66796875 l 1
 291.66796875 381.376953125 360.541015625 312.5 445.83203125 312.5 c 2
 763.572265625 312.5 l 1
 943.75 492.67578125 l 1
 943.75 633.33203125 l 2
 943.75 698.958984375 979.314453125 756.290039062 1032.08007812 787.5 c 1
 789.58203125 787.5 l 1
 789.58203125 812.5 l 1
1358.8671875 808.837890625 m 1
 1376.54492188 791.162109375 l 1
 1218.72070312 633.33203125 l 1
 1376.54492188 475.505859375 l 1
 1358.8671875 457.830078125 l 1
 1183.36523438 633.33203125 l 1
 1358.8671875 808.837890625 l 1
943.75 457.32421875 m 1
 786.42578125 300 l 1
 943.75 142.67578125 l 1
 943.75 457.32421875 l 1
1358.8671875 142.169921875 m 1
 1376.54492188 124.494140625 l 1
 1218.72070312 -33.33203125 l 1
 1376.54492188 -191.16015625 l 1
 1358.8671875 -208.837890625 l 1
 1183.36523438 -33.33203125 l 1
 1358.8671875 142.169921875 l 1
EndSplineSet
EndChar

StartChar: U122d3
Encoding: 261 74451 5
Width: 1712
VWidth: 100
Flags: W
HStem: -87.5 25<686.219 1112.5> 162.5 25<686.219 1100> 287.5 25<220.777 266.668 387.282 600 1220.62 1612.5> 412.5 25<686.219 1100> 662.5 25<686.219 1112.5>
VStem: 100 25<133.332 375.83 406.051 466.668> 266.668 25<133.332 289.073 313.045 375.83 406.597 466.668> 600 25<-200 -28.7891 -1.28064 221.211 248.719 287.5 312.5 471.211 498.719 721.211 748.719 800> 1100 25<133.332 162.5 187.5 375.83 406.597 412.5 437.5 466.668>
LayerCount: 2
Fore
SplineSet
436.9921875 808.837890625 m 1
 454.669921875 791.162109375 l 1
 296.845703125 633.33203125 l 1
 454.669921875 475.505859375 l 1
 436.9921875 457.830078125 l 1
 261.490234375 633.33203125 l 1
 436.9921875 808.837890625 l 1
600 800 m 1
 625 800 l 1
 625 737.720703125 675.220703125 687.5 737.5 687.5 c 2
 1112.5 687.5 l 1
 1112.5 662.5 l 1
 737.5 662.5 l 2
 691.014648438 662.5 649.901367188 685.772460938 625 721.2109375 c 1
 625 550 l 2
 625 487.720703125 675.220703125 437.5 737.5 437.5 c 2
 1100 437.5 l 1
 1100 466.66796875 l 1
 1125 466.66796875 l 1
 1125 381.376953125 1193.87695312 312.5 1279.16796875 312.5 c 2
 1612.5 312.5 l 1
 1612.5 287.5 l 1
 1279.16796875 287.5 l 2
 1213.54101562 287.5 1156.20996094 323.064453125 1125 375.830078125 c 1
 1125 133.33203125 l 1
 1100 133.33203125 l 1
 1100 162.5 l 1
 737.5 162.5 l 2
 691.014648438 162.5 649.901367188 185.772460938 625 221.2109375 c 1
 625 50 l 2
 625 -12.279296875 675.220703125 -62.5 737.5 -62.5 c 2
 1112.5 -62.5 l 1
 1112.5 -87.5 l 1
 737.5 -87.5 l 2
 691.014648438 -87.5 649.901367188 -64.2275390625 625 -28.7890625 c 1
 625 -200 l 1
 600 -200 l 1
 600 50 l 1
 600 287.5 l 1
 445.83203125 287.5 l 2
 380.205078125 287.5 322.876953125 323.065429688 291.66796875 375.830078125 c 1
 291.66796875 133.33203125 l 1
 266.66796875 133.33203125 l 1
 266.66796875 287.9375 l 1
 206.306640625 292.130859375 154.2109375 326.444335938 125 375.830078125 c 1
 125 133.33203125 l 1
 100 133.33203125 l 1
 100 466.66796875 l 1
 125 466.66796875 l 1
 125 385.58984375 187.252929688 319.391601562 266.66796875 313.044921875 c 1
 266.66796875 466.66796875 l 1
 291.66796875 466.66796875 l 1
 291.66796875 381.376953125 360.541015625 312.5 445.83203125 312.5 c 2
 600 312.5 l 1
 600 550 l 1
 600 800 l 1
625 471.2109375 m 1
 625 300 l 2
 625 237.720703125 675.220703125 187.5 737.5 187.5 c 2
 1100 187.5 l 1
 1100 412.5 l 1
 737.5 412.5 l 2
 691.014648438 412.5 649.901367188 435.772460938 625 471.2109375 c 1
436.9921875 142.169921875 m 1
 454.669921875 124.494140625 l 1
 296.845703125 -33.33203125 l 1
 454.669921875 -191.16015625 l 1
 436.9921875 -208.837890625 l 1
 261.490234375 -33.33203125 l 1
 436.9921875 142.169921875 l 1
EndSplineSet
EndChar

StartChar: U12108
Encoding: 262 73992 6
Width: 1712
VWidth: 100
Flags: W
HStem: 287.5 25<220.777 266.668 387.282 766.668> 787.5 25<612.5 854.996 885.762 1188.33 1219.1 1521.66 1552.43 1612.5>
VStem: 100 25<133.332 375.83 406.051 466.668> 266.668 25<133.332 289.073 313.045 375.83 406.597 466.668> 766.668 25<-200 287.5 312.5 691.883> 1100 25<-200 691.883> 1433.33 25<-200 691.883>
LayerCount: 2
Fore
SplineSet
612.5 812.5 m 1
 945.83203125 812.5 l 1
 1279.16796875 812.5 l 1
 1612.5 812.5 l 1
 1612.5 787.5 l 1
 1527.20898438 787.5 1458.33203125 718.623046875 1458.33203125 633.33203125 c 2
 1458.33203125 -200 l 1
 1433.33203125 -200 l 1
 1433.33203125 633.33203125 l 2
 1433.33203125 698.958984375 1468.89746094 756.290039062 1521.66210938 787.5 c 1
 1279.16796875 787.5 l 2
 1193.87695312 787.5 1125 718.623046875 1125 633.33203125 c 2
 1125 -200 l 1
 1100 -200 l 1
 1100 633.33203125 l 2
 1100 698.958984375 1135.56445312 756.290039062 1188.33007812 787.5 c 1
 945.83203125 787.5 l 2
 860.541015625 787.5 791.66796875 718.623046875 791.66796875 633.33203125 c 2
 791.66796875 -200 l 1
 766.66796875 -200 l 1
 766.66796875 287.5 l 1
 445.83203125 287.5 l 2
 380.205078125 287.5 322.876953125 323.065429688 291.66796875 375.830078125 c 1
 291.66796875 133.33203125 l 1
 266.66796875 133.33203125 l 1
 266.66796875 287.9375 l 1
 206.306640625 292.130859375 154.2109375 326.444335938 125 375.830078125 c 1
 125 133.33203125 l 1
 100 133.33203125 l 1
 100 466.66796875 l 1
 125 466.66796875 l 1
 125 385.58984375 187.252929688 319.391601562 266.66796875 313.044921875 c 1
 266.66796875 466.66796875 l 1
 291.66796875 466.66796875 l 1
 291.66796875 381.376953125 360.541015625 312.5 445.83203125 312.5 c 2
 766.66796875 312.5 l 1
 766.66796875 633.33203125 l 2
 766.66796875 698.958984375 802.231445312 756.290039062 854.99609375 787.5 c 1
 612.5 787.5 l 1
 612.5 812.5 l 1
520.330078125 808.837890625 m 1
 538.005859375 791.162109375 l 1
 380.177734375 633.333984375 l 1
 538.005859375 475.5078125 l 1
 520.330078125 457.828125 l 1
 344.822265625 633.33203125 l 1
 520.330078125 808.837890625 l 1
520.330078125 142.171875 m 1
 538.005859375 124.4921875 l 1
 380.177734375 -33.33203125 l 1
 538.005859375 -191.16015625 l 1
 520.330078125 -208.837890625 l 1
 344.822265625 -33.33203125 l 1
 520.330078125 142.171875 l 1
EndSplineSet
EndChar

StartChar: U12109
Encoding: 263 73993 7
Width: 1712
VWidth: 100
Flags: W
HStem: 287.5 25<220.777 266.668 387.282 766.668> 787.5 25<612.5 854.996 885.762 1188.33 1219.1 1521.66 1552.43 1612.5>
VStem: 100 25<133.332 375.83 406.051 466.668> 266.668 25<133.332 289.073 313.045 375.83 406.597 466.668> 766.668 25<-200 287.5 312.5 691.883> 1100 25<-200 691.883> 1433.33 25<-200 691.883>
LayerCount: 2
Fore
SplineSet
612.5 812.5 m 1
 945.83203125 812.5 l 1
 1279.16796875 812.5 l 1
 1612.5 812.5 l 1
 1612.5 787.5 l 1
 1527.20898438 787.5 1458.33203125 718.623046875 1458.33203125 633.33203125 c 2
 1458.33203125 -200 l 1
 1433.33203125 -200 l 1
 1433.33203125 633.33203125 l 2
 1433.33203125 698.958984375 1468.89746094 756.290039062 1521.66210938 787.5 c 1
 1279.16796875 787.5 l 2
 1193.87695312 787.5 1125 718.623046875 1125 633.33203125 c 2
 1125 -200 l 1
 1100 -200 l 1
 1100 633.33203125 l 2
 1100 698.958984375 1135.56445312 756.290039062 1188.33007812 787.5 c 1
 945.83203125 787.5 l 2
 860.541015625 787.5 791.66796875 718.623046875 791.66796875 633.33203125 c 2
 791.66796875 -200 l 1
 766.66796875 -200 l 1
 766.66796875 287.5 l 1
 445.83203125 287.5 l 2
 380.205078125 287.5 322.876953125 323.065429688 291.66796875 375.830078125 c 1
 291.66796875 133.33203125 l 1
 266.66796875 133.33203125 l 1
 266.66796875 287.9375 l 1
 206.306640625 292.130859375 154.2109375 326.444335938 125 375.830078125 c 1
 125 133.33203125 l 1
 100 133.33203125 l 1
 100 466.66796875 l 1
 125 466.66796875 l 1
 125 385.58984375 187.252929688 319.391601562 266.66796875 313.044921875 c 1
 266.66796875 466.66796875 l 1
 291.66796875 466.66796875 l 1
 291.66796875 381.376953125 360.541015625 312.5 445.83203125 312.5 c 2
 766.66796875 312.5 l 1
 766.66796875 633.33203125 l 2
 766.66796875 698.958984375 802.231445312 756.290039062 854.99609375 787.5 c 1
 612.5 787.5 l 1
 612.5 812.5 l 1
520.330078125 808.837890625 m 1
 538.005859375 791.162109375 l 1
 380.177734375 633.333984375 l 1
 538.005859375 475.5078125 l 1
 520.330078125 457.828125 l 1
 344.822265625 633.33203125 l 1
 520.330078125 808.837890625 l 1
520.330078125 142.171875 m 1
 538.005859375 124.4921875 l 1
 380.177734375 -33.33203125 l 1
 538.005859375 -191.16015625 l 1
 520.330078125 -208.837890625 l 1
 344.822265625 -33.33203125 l 1
 520.330078125 142.171875 l 1
EndSplineSet
EndChar

StartChar: U122fb
Encoding: 264 74491 8
Width: 1221
VWidth: 100
Flags: W
HStem: 287.5 25<220.777 266.668 387.282 582.324 642.678 670.875 694.504 1112.5>
VStem: 100 25<133.332 375.83 406.051 466.668> 266.668 25<133.332 289.073 313.045 375.83 406.597 466.668> 669.701 24.8027<239.587 287.5 312.5 343.439>
LayerCount: 2
Fore
SplineSet
100 466.66796875 m 1
 125 466.66796875 l 1
 125 385.58984375 187.252929688 319.391601562 266.66796875 313.044921875 c 1
 266.66796875 466.66796875 l 1
 291.66796875 466.66796875 l 1
 291.66796875 381.376953125 360.541015625 312.5 445.83203125 312.5 c 2
 607.322265625 312.5 l 1
 721.513671875 426.69140625 l 1
 739.19140625 409.013671875 l 1
 712.2265625 382.048828125 697.356445312 347.666015625 694.50390625 312.5 c 1
 1112.5 312.5 l 1
 1112.5 287.5 l 1
 694.50390625 287.5 l 1
 697.356445312 252.334960938 712.227539062 217.952148438 739.19140625 190.98828125 c 2
 1121.33984375 -191.16015625 l 1
 1103.66210938 -208.837890625 l 1
 721.513671875 173.310546875 l 2
 689.749023438 205.075195312 672.524414062 245.874023438 669.701171875 287.5 c 1
 617.677734375 287.5 l 1
 503.486328125 173.310546875 l 1
 485.810546875 190.986328125 l 1
 582.32421875 287.5 l 1
 445.83203125 287.5 l 2
 380.205078125 287.5 322.876953125 323.065429688 291.66796875 375.830078125 c 1
 291.66796875 133.33203125 l 1
 266.66796875 133.33203125 l 1
 266.66796875 287.9375 l 1
 206.306640625 292.130859375 154.2109375 326.444335938 125 375.830078125 c 1
 125 133.33203125 l 1
 100 133.33203125 l 1
 100 466.66796875 l 1
674.9609375 344.783203125 m 1
 642.677734375 312.5 l 1
 669.74609375 312.5 l 1
 670.51171875 323.364257812 672.23828125 334.17578125 674.9609375 344.783203125 c 1
EndSplineSet
EndChar

StartChar: U1202d
Encoding: 265 73773 9
Width: 1212
VWidth: 100
Flags: W
HStem: 287.5 25<220.777 266.668 387.282 766.668 791.668 1112.5> 787.5 25<612.539 854.965 885.739 945.793>
VStem: 100 25<133.332 375.83 406.051 466.668> 266.668 25<133.332 289.073 313.045 375.83 406.597 466.668> 766.668 25<-200 287.5 312.5 691.908>
LayerCount: 2
Fore
SplineSet
612.5390625 812.5 m 1
 945.79296875 812.5 l 1
 945.79296875 787.5 l 1
 860.525390625 787.5 791.66796875 718.642578125 791.66796875 633.375 c 2
 791.66796875 312.5 l 1
 1112.5 312.5 l 1
 1112.5 287.5 l 1
 791.66796875 287.5 l 1
 791.66796875 -200 l 1
 766.66796875 -200 l 1
 766.66796875 287.5 l 1
 445.83203125 287.5 l 2
 380.205078125 287.5 322.876953125 323.065429688 291.66796875 375.830078125 c 1
 291.66796875 133.33203125 l 1
 266.66796875 133.33203125 l 1
 266.66796875 287.9375 l 1
 206.306640625 292.130859375 154.2109375 326.444335938 125 375.830078125 c 1
 125 133.33203125 l 1
 100 133.33203125 l 1
 100 466.66796875 l 1
 125 466.66796875 l 1
 125 385.58984375 187.252929688 319.391601562 266.66796875 313.044921875 c 1
 266.66796875 466.66796875 l 1
 291.66796875 466.66796875 l 1
 291.66796875 381.376953125 360.541015625 312.5 445.83203125 312.5 c 2
 766.66796875 312.5 l 1
 766.66796875 633.375 l 2
 766.66796875 698.981445312 802.21875 756.295898438 854.96484375 787.5 c 1
 612.5390625 787.5 l 1
 612.5390625 812.5 l 1
EndSplineSet
EndChar

StartChar: U12033
Encoding: 266 73779 10
Width: 1712
VWidth: 100
Flags: W
HStem: -45.832 25<665.06 1433.33> 287.5 25<220.777 266.668 387.282 1433.33> 620.832 25<665.059 1433.33> 787.5 25<1279.17 1521.66 1552.43 1612.5>
VStem: 100 25<133.332 375.83 406.051 466.668> 266.668 25<133.332 289.073 313.045 375.83 406.597 466.668> 544.445 25<-200 42.4941 73.2617 133.332 466.668 709.162 739.929 800> 1433.33 25<-200 -45.832 -20.832 287.5 312.5 620.832 645.832 691.909>
LayerCount: 2
Fore
SplineSet
1279.16796875 812.5 m 1
 1612.5 812.5 l 1
 1612.5 787.5 l 1
 1527.20898438 787.5 1458.33203125 718.623046875 1458.33203125 633.33203125 c 2
 1458.33203125 -200 l 1
 1433.33203125 -200 l 1
 1433.33203125 -45.83203125 l 1
 723.609375 -45.83203125 l 2
 657.983398438 -45.83203125 600.654296875 -10.26953125 569.4453125 42.494140625 c 1
 569.4453125 -200 l 1
 544.4453125 -200 l 1
 544.4453125 133.33203125 l 1
 569.4453125 133.33203125 l 1
 569.4453125 48.041015625 638.318359375 -20.83203125 723.609375 -20.83203125 c 2
 1433.33203125 -20.83203125 l 1
 1433.33203125 287.5 l 1
 445.83203125 287.5 l 2
 380.205078125 287.5 322.876953125 323.065429688 291.66796875 375.830078125 c 1
 291.66796875 133.33203125 l 1
 266.66796875 133.33203125 l 1
 266.66796875 287.9375 l 1
 206.306640625 292.130859375 154.2109375 326.444335938 125 375.830078125 c 1
 125 133.33203125 l 1
 100 133.33203125 l 1
 100 466.66796875 l 1
 125 466.66796875 l 1
 125 385.58984375 187.252929688 319.391601562 266.66796875 313.044921875 c 1
 266.66796875 466.66796875 l 1
 291.66796875 466.66796875 l 1
 291.66796875 381.376953125 360.541015625 312.5 445.83203125 312.5 c 2
 1433.33203125 312.5 l 1
 1433.33203125 620.83203125 l 1
 723.609375 620.83203125 l 2
 657.982421875 620.83203125 600.654296875 656.397460938 569.4453125 709.162109375 c 1
 569.4453125 466.66796875 l 1
 544.4453125 466.66796875 l 1
 544.4453125 800 l 1
 569.4453125 800 l 1
 569.4453125 714.708984375 638.318359375 645.83203125 723.609375 645.83203125 c 2
 1433.76953125 645.83203125 l 1
 1437.96289062 706.193359375 1472.27636719 758.2890625 1521.66210938 787.5 c 1
 1279.16796875 787.5 l 1
 1279.16796875 812.5 l 1
EndSplineSet
EndChar

StartChar: U12224
Encoding: 267 74276 11
Width: 1712
VWidth: 100
Flags: W
HStem: -45.832 25<498.394 945.832> 287.5 25<220.777 266.668 387.282 945.832> 620.832 25<498.394 945.832> 787.5 25<945.832 1188.33 1219.1 1521.66 1552.43 1612.5>
VStem: 100 25<133.332 375.83 406.051 466.668> 266.668 25<133.332 289.073 313.045 375.83 406.597 466.668> 377.777 25<-200 42.4961 73.2617 133.332 466.668 709.162 739.929 800> 1100 25<300 691.883> 1433.33 25<300 691.883>
LayerCount: 2
Fore
SplineSet
945.83203125 812.5 m 1
 1279.16796875 812.5 l 1
 1612.5 812.5 l 1
 1612.5 787.5 l 1
 1527.20898438 787.5 1458.33203125 718.623046875 1458.33203125 633.33203125 c 2
 1458.33203125 300 l 1
 1433.33203125 300 l 1
 1433.33203125 633.33203125 l 2
 1433.33203125 698.958984375 1468.89746094 756.290039062 1521.66210938 787.5 c 1
 1279.16796875 787.5 l 2
 1193.87695312 787.5 1125 718.623046875 1125 633.33203125 c 2
 1125 300 l 1
 1100 300 l 1
 1100 633.33203125 l 2
 1100 698.958984375 1135.56445312 756.290039062 1188.33007812 787.5 c 1
 945.83203125 787.5 l 1
 945.83203125 812.5 l 1
377.77734375 800 m 1
 402.77734375 800 l 1
 402.77734375 714.708984375 471.654296875 645.83203125 556.9453125 645.83203125 c 2
 945.83203125 645.83203125 l 1
 945.83203125 620.83203125 l 1
 556.9453125 620.83203125 l 2
 491.318359375 620.83203125 433.987304688 656.396484375 402.77734375 709.162109375 c 1
 402.77734375 466.66796875 l 1
 377.77734375 466.66796875 l 1
 377.77734375 800 l 1
100 466.66796875 m 1
 125 466.66796875 l 1
 125 385.58984375 187.252929688 319.391601562 266.66796875 313.044921875 c 1
 266.66796875 466.66796875 l 1
 291.66796875 466.66796875 l 1
 291.66796875 381.376953125 360.541015625 312.5 445.83203125 312.5 c 2
 945.83203125 312.5 l 1
 945.83203125 287.5 l 1
 445.83203125 287.5 l 2
 380.205078125 287.5 322.876953125 323.065429688 291.66796875 375.830078125 c 1
 291.66796875 133.33203125 l 1
 266.66796875 133.33203125 l 1
 266.66796875 287.9375 l 1
 206.306640625 292.130859375 154.2109375 326.444335938 125 375.830078125 c 1
 125 133.33203125 l 1
 100 133.33203125 l 1
 100 466.66796875 l 1
1228.66210938 308.837890625 m 1
 1246.33789062 291.162109375 l 1
 1005.17578125 50 l 1
 1246.33789062 -191.162109375 l 1
 1228.66210938 -208.837890625 l 1
 969.822265625 50 l 1
 1228.66210938 308.837890625 l 1
1561.99414062 308.837890625 m 1
 1579.671875 291.162109375 l 1
 1338.5078125 50 l 1
 1579.671875 -191.162109375 l 1
 1561.99414062 -208.837890625 l 1
 1303.15429688 50 l 1
 1561.99414062 308.837890625 l 1
377.77734375 133.33203125 m 1
 402.77734375 133.33203125 l 1
 402.77734375 48.041015625 471.653320312 -20.83203125 556.9453125 -20.83203125 c 2
 945.83203125 -20.83203125 l 1
 945.83203125 -45.83203125 l 1
 556.9453125 -45.83203125 l 2
 491.318359375 -45.83203125 433.987304688 -10.2685546875 402.77734375 42.49609375 c 1
 402.77734375 -200 l 1
 377.77734375 -200 l 1
 377.77734375 133.33203125 l 1
EndSplineSet
EndChar

StartChar: U12261
Encoding: 268 74337 12
Width: 1212
VWidth: 100
Flags: W
HStem: 287.5 25<220.617 357.322 392.676 1112.5>
VStem: 100 25<133.332 375.83 406.597 466.668>
LayerCount: 2
Fore
SplineSet
853.662109375 808.837890625 m 1
 871.337890625 791.162109375 l 1
 392.67578125 312.5 l 1
 1112.5 312.5 l 1
 1112.5 287.5 l 1
 392.67578125 287.5 l 1
 871.337890625 -191.162109375 l 1
 853.662109375 -208.837890625 l 1
 357.322265625 287.5 l 1
 279.16796875 287.5 l 2
 213.541015625 287.5 156.209960938 323.064453125 125 375.830078125 c 1
 125 133.33203125 l 1
 100 133.33203125 l 1
 100 466.66796875 l 1
 125 466.66796875 l 1
 125 381.376953125 193.876953125 312.5 279.16796875 312.5 c 2
 357.322265625 312.5 l 1
 853.662109375 808.837890625 l 1
EndSplineSet
EndChar

StartChar: U121b0
Encoding: 269 74160 13
Width: 1221
VWidth: 100
Flags: W
HStem: 287.5 25<220.617 315.654 351.01 862.5>
VStem: 100 25<133.332 375.83 406.597 466.668>
LayerCount: 2
Fore
SplineSet
1103.66210938 808.837890625 m 1
 1121.33789062 791.162109375 l 1
 880.17578125 550 l 1
 1121.33789062 308.837890625 l 1
 1112.5 300 l 1
 1121.33789062 291.162109375 l 1
 880.17578125 50 l 1
 1121.33789062 -191.162109375 l 1
 1103.66210938 -208.837890625 l 1
 844.822265625 50 l 1
 1094.82421875 300 l 1
 844.822265625 550 l 1
 1103.66210938 808.837890625 l 1
645.330078125 642.171875 m 1
 663.0078125 624.4921875 l 1
 351.009765625 312.5 l 1
 862.5 312.5 l 1
 862.5 287.5 l 1
 351.009765625 287.5 l 1
 663.0078125 -24.4921875 l 1
 645.330078125 -42.169921875 l 1
 315.654296875 287.5 l 1
 279.16796875 287.5 l 2
 213.541015625 287.5 156.209960938 323.064453125 125 375.830078125 c 1
 125 133.33203125 l 1
 100 133.33203125 l 1
 100 466.66796875 l 1
 125 466.66796875 l 1
 125 381.376953125 193.876953125 312.5 279.16796875 312.5 c 2
 315.654296875 312.5 l 1
 645.330078125 642.171875 l 1
EndSplineSet
EndChar

StartChar: U12041
Encoding: 270 73793 14
Width: 1221
VWidth: 100
Flags: W
HStem: 287.5 25<220.617 940.654>
VStem: 100 25<133.332 375.83 406.597 466.668>
LayerCount: 2
Fore
SplineSet
1103.66210938 475.505859375 m 1
 1121.33984375 457.830078125 l 1
 963.509765625 300 l 1
 1121.33984375 142.169921875 l 1
 1103.66210938 124.4921875 l 1
 940.654296875 287.5 l 1
 279.16796875 287.5 l 2
 213.541015625 287.5 156.209960938 323.064453125 125 375.830078125 c 1
 125 133.33203125 l 1
 100 133.33203125 l 1
 100 466.66796875 l 1
 125 466.66796875 l 1
 125 381.376953125 193.876953125 312.5 279.16796875 312.5 c 2
 940.654296875 312.5 l 1
 1103.66210938 475.505859375 l 1
EndSplineSet
EndChar

StartChar: U12458
Encoding: 271 74840 15
Width: 1221
VWidth: 100
Flags: W
HStem: 287.5 25<220.617 940.654>
VStem: 100 25<133.332 375.83 406.597 466.668>
LayerCount: 2
Fore
SplineSet
1103.66210938 475.505859375 m 1
 1121.33984375 457.830078125 l 1
 963.509765625 300 l 1
 1121.33984375 142.169921875 l 1
 1103.66210938 124.4921875 l 1
 940.654296875 287.5 l 1
 279.16796875 287.5 l 2
 213.541015625 287.5 156.209960938 323.064453125 125 375.830078125 c 1
 125 133.33203125 l 1
 100 133.33203125 l 1
 100 466.66796875 l 1
 125 466.66796875 l 1
 125 381.376953125 193.876953125 312.5 279.16796875 312.5 c 2
 940.654296875 312.5 l 1
 1103.66210938 475.505859375 l 1
EndSplineSet
EndChar

StartChar: U12074
Encoding: 272 73844 16
Width: 2221
VWidth: 100
Flags: W
HStem: -143.221 24.6814<1068.52 1172.07> 287.5 25<220.617 1100> 454.168 25<945.832 1188.33 1219.1 1279.17>
VStem: 100 25<133.332 375.83 406.597 466.668> 1100 25<133.332 287.5 312.5 358.577> 1169.28 24.6814<740.426 843.981>
LayerCount: 2
Fore
SplineSet
1221.51367188 926.69140625 m 1
 1239.19140625 909.013671875 l 1
 1209.03710938 878.859375 1193.95996094 839.430175781 1193.95996094 800.000976562 c 0
 1193.95996094 760.571777344 1209.03710938 721.142578125 1239.19140625 690.98828125 c 2
 1612.5 317.6796875 l 1
 2103.66210938 808.83984375 l 1
 2121.33789062 791.162109375 l 1
 1630.17773438 300.001953125 l 1
 2121.33984375 -191.162109375 l 1
 2103.66210938 -208.83984375 l 1
 1612.5 282.32421875 l 1
 1239.18945312 -90.986328125 l 2
 1204.31171071 -125.864070536 1158.54167716 -143.221470247 1112.74387697 -143.221470247 c 0
 1097.60712997 -143.221470247 1082.46734979 -141.325373328 1067.71679688 -137.5390625 c 1
 1239.18945312 -309.01171875 l 1
 1221.51171875 -326.689453125 l 1
 985.80859375 -90.986328125 l 1
 1003.48632812 -73.30859375 l 1
 1033.640625 -103.462890625 1073.06982422 -118.540039062 1112.49902344 -118.540039062 c 0
 1151.92822266 -118.540039062 1191.35742188 -103.462890625 1221.51171875 -73.30859375 c 2
 1594.82226562 300.001953125 l 1
 1221.51367188 673.310546875 l 2
 1186.63592946 708.188289286 1169.27852975 753.958322839 1169.27852975 799.756123031 c 0
 1169.27852975 814.892870026 1171.17462667 830.032650209 1174.9609375 844.783203125 c 1
 1003.48632812 673.310546875 l 1
 985.810546875 690.986328125 l 1
 1221.51367188 926.69140625 l 1
686.9921875 808.837890625 m 1
 704.669921875 791.162109375 l 1
 546.845703125 633.33203125 l 1
 704.669921875 475.505859375 l 1
 686.9921875 457.830078125 l 1
 511.490234375 633.33203125 l 1
 686.9921875 808.837890625 l 1
945.83203125 479.16796875 m 1
 1279.16796875 479.16796875 l 1
 1279.16796875 454.16796875 l 1
 1193.87695312 454.16796875 1125 385.291015625 1125 300 c 2
 1125 133.33203125 l 1
 1100 133.33203125 l 1
 1100 287.5 l 1
 279.16796875 287.5 l 2
 213.541015625 287.5 156.209960938 323.064453125 125 375.830078125 c 1
 125 133.33203125 l 1
 100 133.33203125 l 1
 100 466.66796875 l 1
 125 466.66796875 l 1
 125 381.376953125 193.876953125 312.5 279.16796875 312.5 c 2
 1100.4375 312.5 l 1
 1104.63085938 372.861328125 1138.94433594 424.95703125 1188.33007812 454.16796875 c 1
 945.83203125 454.16796875 l 1
 945.83203125 479.16796875 l 1
686.9921875 142.169921875 m 1
 704.669921875 124.494140625 l 1
 546.845703125 -33.33203125 l 1
 704.669921875 -191.16015625 l 1
 686.9921875 -208.837890625 l 1
 511.490234375 -33.33203125 l 1
 686.9921875 142.169921875 l 1
EndSplineSet
EndChar

StartChar: U1223e
Encoding: 273 74302 17
Width: 1712
VWidth: 100
Flags: W
HStem: 287.5 25<220.617 940.654> 787.5 25<1279.17 1415.66 1451.01 1521.66 1552.43 1612.5>
VStem: 100 25<133.332 375.83 406.597 466.668> 1433.33 25<-200 294.824 330.178 691.883>
LayerCount: 2
Fore
SplineSet
1279.16796875 812.5 m 1
 1612.5 812.5 l 1
 1612.5 787.5 l 1
 1527.20898438 787.5 1458.33203125 718.623046875 1458.33203125 633.33203125 c 2
 1458.33203125 -200 l 1
 1433.33203125 -200 l 1
 1433.33203125 294.82421875 l 1
 1195.83203125 532.322265625 l 1
 963.5078125 300 l 1
 1204.671875 58.837890625 l 1
 1186.99414062 41.162109375 l 1
 940.654296875 287.5 l 1
 279.16796875 287.5 l 2
 213.541015625 287.5 156.209960938 323.064453125 125 375.830078125 c 1
 125 133.33203125 l 1
 100 133.33203125 l 1
 100 466.66796875 l 1
 125 466.66796875 l 1
 125 381.376953125 193.876953125 312.5 279.16796875 312.5 c 2
 940.654296875 312.5 l 1
 1178.15429688 550 l 1
 1415.65625 787.5 l 1
 1279.16796875 787.5 l 1
 1279.16796875 812.5 l 1
1451.00976562 787.5 m 1
 1213.5078125 550 l 1
 1433.33203125 330.177734375 l 1
 1433.33203125 633.33203125 l 2
 1433.33203125 698.958984375 1468.89746094 756.290039062 1521.66210938 787.5 c 1
 1451.00976562 787.5 l 1
EndSplineSet
EndChar

StartChar: U12034
Encoding: 274 73780 18
Width: 1212
VWidth: 100
Flags: W
HStem: 287.5 25<220.617 773.99> 787.5 25<779.168 1021.66 1052.43 1112.5>
VStem: 100 25<133.332 375.83 406.597 466.668> 933.332 25<-200 128.152 163.508 436.492 471.846 691.883>
LayerCount: 2
Fore
SplineSet
779.16796875 812.5 m 1
 1112.5 812.5 l 1
 1112.5 787.5 l 1
 1027.20898438 787.5 958.33203125 718.623046875 958.33203125 633.33203125 c 2
 958.33203125 -200 l 1
 933.33203125 -200 l 1
 933.33203125 128.15234375 l 1
 773.990234375 287.5 l 1
 279.16796875 287.5 l 2
 213.541015625 287.5 156.209960938 323.064453125 125 375.830078125 c 1
 125 133.33203125 l 1
 100 133.33203125 l 1
 100 466.66796875 l 1
 125 466.66796875 l 1
 125 381.376953125 193.876953125 312.5 279.16796875 312.5 c 2
 773.990234375 312.5 l 1
 933.33203125 471.845703125 l 1
 933.33203125 633.33203125 l 2
 933.33203125 698.958984375 968.896484375 756.290039062 1021.66210938 787.5 c 1
 779.16796875 787.5 l 1
 779.16796875 812.5 l 1
603.662109375 808.837890625 m 1
 621.33984375 791.162109375 l 1
 463.509765625 633.33203125 l 1
 621.33984375 475.5078125 l 1
 603.662109375 457.828125 l 1
 428.154296875 633.33203125 l 1
 603.662109375 808.837890625 l 1
933.33203125 436.4921875 m 1
 796.845703125 300 l 1
 933.33203125 163.5078125 l 1
 933.33203125 436.4921875 l 1
603.662109375 142.171875 m 1
 621.33984375 124.4921875 l 1
 463.509765625 -33.33203125 l 1
 621.33984375 -191.16015625 l 1
 603.662109375 -208.837890625 l 1
 428.154296875 -33.33203125 l 1
 603.662109375 142.171875 l 1
EndSplineSet
EndChar

StartChar: U1222c
Encoding: 275 74284 19
Width: 1221
VWidth: 100
Flags: W
HStem: 287.5 25<220.617 612.5>
VStem: 100 25<133.332 375.83 406.597 466.668>
LayerCount: 2
Fore
SplineSet
853.662109375 808.837890625 m 1
 871.337890625 791.162109375 l 1
 630.17578125 550 l 1
 871.337890625 308.837890625 l 1
 862.5 300 l 1
 871.337890625 291.162109375 l 1
 630.17578125 50 l 1
 871.337890625 -191.162109375 l 1
 853.662109375 -208.837890625 l 1
 594.822265625 50 l 1
 844.82421875 300 l 1
 594.822265625 550 l 1
 853.662109375 808.837890625 l 1
1103.66210938 808.837890625 m 1
 1121.33789062 791.162109375 l 1
 880.17578125 550 l 1
 1121.33789062 308.837890625 l 1
 1112.5 300 l 1
 1121.33789062 291.162109375 l 1
 880.17578125 50 l 1
 1121.33789062 -191.162109375 l 1
 1103.66210938 -208.837890625 l 1
 844.822265625 50 l 1
 1094.82421875 300 l 1
 844.822265625 550 l 1
 1103.66210938 808.837890625 l 1
100 466.66796875 m 1
 125 466.66796875 l 1
 125 381.376953125 193.876953125 312.5 279.16796875 312.5 c 2
 612.5 312.5 l 1
 612.5 287.5 l 1
 279.16796875 287.5 l 2
 213.541015625 287.5 156.209960938 323.064453125 125 375.830078125 c 1
 125 133.33203125 l 1
 100 133.33203125 l 1
 100 466.66796875 l 1
EndSplineSet
EndChar

StartChar: U12075
Encoding: 276 73845 20
Width: 2220
VWidth: 100
Flags: W
HStem: -146.092 24.7395<1405.01 1524.22> 287.5 25<220.777 266.668 387.282 791.73>
VStem: 100 25<133.332 375.83 406.051 466.668> 266.668 25<133.332 289.073 313.045 375.83 406.597 466.668> 920.265 24.731<336.526 406.701> 1091.37 24.7313<507.628 577.804> 1195.89 24.6818<240.424 343.979> 1482.07 24.6686<777.862 874.837>
LayerCount: 2
Fore
SplineSet
1516.31640625 941.953125 m 1
 1536.50390625 927.205078125 l 1
 1516.4183928 899.713073017 1506.73852164 867.858435545 1506.73852164 836.304662861 c 0
 1506.73852164 788.814320733 1528.66543945 742.005499812 1570.04492188 711.77734375 c 1
 1555.29882812 691.58984375 l 1
 1507.35822735 726.611059539 1482.06993255 781.128570998 1482.06993255 836.38029758 c 0
 1482.06993255 842.20452167 1482.35093105 848.036904212 1482.91601562 853.85546875 c 1
 1339.8671875 658.048828125 l 1
 1319.6796875 672.794921875 l 1
 1516.3046875 941.93359375 l 2
 1516.30664062 941.939453125 1516.31640625 941.9453125 1516.31640625 941.951171875 c 2
 1516.31640625 941.953125 l 1
1555.29882812 691.58984375 m 1
 1570.046875 711.77734375 l 1
 2119.875 310.09375 l 1
 2112.5 300 l 1
 2119.87304688 289.90625 l 1
 1570.046875 -111.77734375 l 1
 1555.29882812 -91.58984375 l 1
 2091.31054688 300 l 1
 1555.29882812 691.58984375 l 1
1555.29882812 -91.58984375 m 1
 1570.04492188 -111.77734375 l 1
 1538.30592125 -134.962500639 1501.44599466 -146.091640763 1464.88311159 -146.091640763 c 0
 1440.39748876 -146.091640763 1416.0450835 -141.100462806 1393.453125 -131.396484375 c 1
 1536.50390625 -327.205078125 l 1
 1516.31640625 -341.951171875 l 1
 1319.6796875 -72.794921875 l 1
 1339.8671875 -58.046875 l 1
 1370.09786597 -99.4250538147 1416.90757776 -121.352154736 1464.39936543 -121.352154736 c 0
 1495.95210551 -121.352154736 1527.80591721 -111.673425504 1555.29882812 -91.58984375 c 1
529.197265625 808.837890625 m 1
 546.875 791.162109375 l 1
 389.048828125 633.33203125 l 1
 546.875 475.5078125 l 1
 529.197265625 457.830078125 l 1
 353.693359375 633.33203125 l 1
 529.197265625 808.837890625 l 1
1130.27148438 651.04296875 m 1
 1147.94921875 633.365234375 l 1
 1126.71496582 612.130981441 1116.09777831 584.392597913 1116.09777831 556.653716177 c 0
 1116.09777831 528.915791234 1126.71423339 501.177368118 1147.94726562 479.94140625 c 2
 1224.66210938 403.23046875 l 1
 1248.12304688 426.69140625 l 1
 1265.79882812 409.013671875 l 1
 1235.64489746 378.858764645 1220.56774902 339.428879978 1220.56774902 299.99915493 c 0
 1220.56774902 260.569749121 1235.64465332 221.140502929 1265.79882812 190.986328125 c 2
 1319.05273438 137.736328125 l 1
 1301.37695312 120.05859375 l 1
 1248.12304688 173.30859375 l 1
 1248.12109375 173.30859375 l 1
 1213.24335134 208.185602187 1195.88595163 253.956005061 1195.88595163 299.754034031 c 0
 1195.88595163 314.89085664 1197.78204855 330.030697084 1201.56835938 344.78125 c 1
 1030.1015625 173.310546875 l 1
 1012.421875 190.986328125 l 1
 1035.8828125 214.447265625 l 1
 959.16796875 291.162109375 l 2
 933.186929075 317.145557824 920.264528228 351.274729165 920.264528228 385.419852521 c 0
 920.264528228 392.803958695 920.868868731 400.188810896 922.076171875 407.4921875 c 1
 805.744140625 291.162109375 l 1
 796.90625 300 l 1
 796.90625 287.5 l 1
 445.83203125 287.5 l 2
 380.205078125 287.5 322.876953125 323.065429688 291.66796875 375.830078125 c 1
 291.66796875 133.33203125 l 1
 266.66796875 133.33203125 l 1
 266.66796875 287.9375 l 1
 206.306640625 292.130859375 154.2109375 326.444335938 125 375.830078125 c 1
 125 133.33203125 l 1
 100 133.33203125 l 1
 100 466.66796875 l 1
 125 466.66796875 l 1
 125 385.58984375 187.252929688 319.391601562 266.66796875 313.044921875 c 1
 266.66796875 466.66796875 l 1
 291.66796875 466.66796875 l 1
 291.66796875 381.376953125 360.541015625 312.5 445.83203125 312.5 c 2
 791.73046875 312.5 l 1
 959.16796875 479.939453125 l 1
 959.169921875 479.939453125 l 1
 1130.27148438 651.04296875 l 1
1093.17773438 578.59375 m 1
 976.84765625 462.263671875 l 1
 976.845703125 462.263671875 l 1
 976.845703125 462.26171875 l 1
 955.612182613 441.025268601 944.995483389 413.288066124 944.995483389 385.550873596 c 0
 944.995483389 357.812724322 955.612915035 330.074584999 976.84765625 308.837890625 c 2
 1053.56054688 232.125 l 1
 1206.98632812 385.552734375 l 1
 1130.27148438 462.263671875 l 1
 1130.26953125 462.263671875 l 1
 1104.28818191 488.247430021 1091.36644286 522.377105237 1091.36644286 556.522635948 c 0
 1091.36644286 563.906335229 1091.9706714 571.290775922 1093.17773438 578.59375 c 1
529.197265625 142.169921875 m 1
 546.875 124.494140625 l 1
 389.048828125 -33.33203125 l 1
 546.875 -191.16015625 l 1
 529.197265625 -208.837890625 l 1
 353.693359375 -33.33203125 l 1
 529.197265625 142.169921875 l 1
EndSplineSet
EndChar

StartChar: U12226
Encoding: 277 74278 21
Width: 1212
VWidth: 100
Flags: W
HStem: 287.5 25<220.617 600 625 1112.5> 787.5 25<445.832 688.33 719.097 779.168>
VStem: 100 25<133.332 375.83 406.597 466.668> 600 25<-200 287.5 312.5 691.883>
LayerCount: 2
Fore
SplineSet
445.83203125 812.5 m 1
 779.16796875 812.5 l 1
 779.16796875 787.5 l 1
 693.876953125 787.5 625 718.623046875 625 633.33203125 c 2
 625 312.5 l 1
 1112.5 312.5 l 1
 1112.5 287.5 l 1
 625 287.5 l 1
 625 -200 l 1
 600 -200 l 1
 600 287.5 l 1
 279.16796875 287.5 l 2
 213.541015625 287.5 156.209960938 323.064453125 125 375.830078125 c 1
 125 133.33203125 l 1
 100 133.33203125 l 1
 100 466.66796875 l 1
 125 466.66796875 l 1
 125 381.376953125 193.876953125 312.5 279.16796875 312.5 c 2
 600 312.5 l 1
 600 633.33203125 l 2
 600 698.958984375 635.564453125 756.290039062 688.330078125 787.5 c 1
 445.83203125 787.5 l 1
 445.83203125 812.5 l 1
EndSplineSet
EndChar

StartChar: U12047
Encoding: 278 73799 22
Width: 1212
VWidth: 100
Flags: W
HStem: 287.5 25<220.617 600 625 1112.5> 787.5 25<445.832 688.33 719.097 779.168>
VStem: 100 25<133.332 375.83 406.597 466.668> 600 25<-200 287.5 312.5 691.883>
LayerCount: 2
Fore
SplineSet
445.83203125 812.5 m 1
 779.16796875 812.5 l 1
 779.16796875 787.5 l 1
 693.876953125 787.5 625 718.623046875 625 633.33203125 c 2
 625 312.5 l 1
 1112.5 312.5 l 1
 1112.5 287.5 l 1
 625 287.5 l 1
 625 -200 l 1
 600 -200 l 1
 600 287.5 l 1
 279.16796875 287.5 l 2
 213.541015625 287.5 156.209960938 323.064453125 125 375.830078125 c 1
 125 133.33203125 l 1
 100 133.33203125 l 1
 100 466.66796875 l 1
 125 466.66796875 l 1
 125 381.376953125 193.876953125 312.5 279.16796875 312.5 c 2
 600 312.5 l 1
 600 633.33203125 l 2
 600 698.958984375 635.564453125 756.290039062 688.330078125 787.5 c 1
 445.83203125 787.5 l 1
 445.83203125 812.5 l 1
EndSplineSet
EndChar

StartChar: U1244f
Encoding: 279 74831 23
Width: 1212
VWidth: 100
Flags: W
HStem: 287.5 25<220.617 600 625 1112.5> 787.5 25<445.832 688.33 719.097 779.168>
VStem: 100 25<133.332 375.83 406.597 466.668> 600 25<-200 287.5 312.5 691.883>
LayerCount: 2
Fore
SplineSet
445.83203125 812.5 m 1
 779.16796875 812.5 l 1
 779.16796875 787.5 l 1
 693.876953125 787.5 625 718.623046875 625 633.33203125 c 2
 625 312.5 l 1
 1112.5 312.5 l 1
 1112.5 287.5 l 1
 625 287.5 l 1
 625 -200 l 1
 600 -200 l 1
 600 287.5 l 1
 279.16796875 287.5 l 2
 213.541015625 287.5 156.209960938 323.064453125 125 375.830078125 c 1
 125 133.33203125 l 1
 100 133.33203125 l 1
 100 466.66796875 l 1
 125 466.66796875 l 1
 125 381.376953125 193.876953125 312.5 279.16796875 312.5 c 2
 600 312.5 l 1
 600 633.33203125 l 2
 600 698.958984375 635.564453125 756.290039062 688.330078125 787.5 c 1
 445.83203125 787.5 l 1
 445.83203125 812.5 l 1
EndSplineSet
EndChar

StartChar: U122e1
Encoding: 280 74465 24
Width: 879
VWidth: 100
Flags: W
HStem: 287.5 25<220.617 582.324> 787.5 25<445.832 688.33 719.097 779.168>
VStem: 100 25<133.332 375.83 406.597 466.668> 315.723 24.6808<593.98 697.534> 600 25<-200 287.5 330.18 691.883>
LayerCount: 2
Fore
SplineSet
445.83203125 812.5 m 1
 779.16796875 812.5 l 1
 779.16796875 787.5 l 1
 693.876953125 787.5 625 718.623046875 625 633.33203125 c 2
 625 -200 l 1
 600 -200 l 1
 600 287.5 l 1
 279.16796875 287.5 l 2
 213.541015625 287.5 156.209960938 323.064453125 125 375.830078125 c 1
 125 133.33203125 l 1
 100 133.33203125 l 1
 100 466.66796875 l 1
 125 466.66796875 l 1
 125 381.376953125 193.876953125 312.5 279.16796875 312.5 c 2
 582.32421875 312.5 l 1
 367.95703125 526.865234375 l 2
 333.079980748 561.742284877 315.723129439 607.511194357 315.723129439 653.3080849 c 0
 315.723129439 668.445740074 317.619469306 683.586452345 321.40625 698.337890625 c 1
 149.931640625 526.865234375 l 1
 132.255859375 544.541015625 l 1
 367.95703125 780.244140625 l 1
 367.958984375 780.24609375 l 1
 385.63671875 762.568359375 l 1
 355.48156738 732.411743143 340.403930657 692.981952461 340.403930657 653.552762696 c 0
 340.403930657 614.124530613 355.480834958 574.696899417 385.634765625 544.54296875 c 2
 600 330.1796875 l 1
 600 633.33203125 l 2
 600 698.958984375 635.564453125 756.290039062 688.330078125 787.5 c 1
 445.83203125 787.5 l 1
 445.83203125 812.5 l 1
EndSplineSet
EndChar

StartChar: U1222e
Encoding: 281 74286 25
Width: 1719
VWidth: 100
Flags: W
HStem: -147.887 24.7602<849.11 968.248> 287.5 25<220.617 850> 454.168 25<695.832 938.33 969.097 1029.17>
VStem: 100 25<133.332 375.83 406.597 466.668> 850 25<133.332 287.5 312.5 358.577> 914.701 24.6724<787.936 856.16>
LayerCount: 2
Fore
SplineSet
944.548828125 945.609375 m 1
 965.349609375 931.7421875 l 1
 947.783927943 905.392940186 939.373309622 875.660253159 939.373309622 846.267350025 c 0
 939.373309622 796.494846063 963.490234897 747.696651298 1008.109375 717.951171875 c 2
 1619.43359375 310.400390625 l 1
 1612.5 300 l 1
 1619.43359375 289.599609375 l 1
 1008.109375 -117.951171875 l 2
 977.707172556 -138.218763136 943.330428485 -147.887072215 909.296100795 -147.887072215 c 0
 882.200197636 -147.887072215 855.321328311 -141.75900618 830.837890625 -129.97265625 c 1
 965.349609375 -331.7421875 l 1
 944.548828125 -345.609375 l 1
 759.650390625 -68.2578125 l 1
 780.451171875 -54.390625 l 1
 810.196188992 -99.0093786421 858.994501783 -123.126866433 908.767427542 -123.126866433 c 0
 938.160176085 -123.126866433 967.892805125 -114.716282962 994.2421875 -97.150390625 c 2
 1589.96679688 300 l 1
 994.2421875 697.150390625 l 2
 942.528767687 731.625079009 914.700924827 788.510450256 914.700924827 846.433003379 c 0
 914.700924827 849.673389024 914.788016683 852.917020702 914.962890625 856.16015625 c 1
 780.451171875 654.390625 l 1
 759.650390625 668.2578125 l 1
 944.548828125 945.609375 l 1
695.83203125 479.16796875 m 1
 1029.16796875 479.16796875 l 1
 1029.16796875 454.16796875 l 1
 943.876953125 454.16796875 875 385.291015625 875 300 c 2
 875 133.33203125 l 1
 850 133.33203125 l 1
 850 287.5 l 1
 279.16796875 287.5 l 2
 213.541015625 287.5 156.209960938 323.064453125 125 375.830078125 c 1
 125 133.33203125 l 1
 100 133.33203125 l 1
 100 466.66796875 l 1
 125 466.66796875 l 1
 125 381.376953125 193.876953125 312.5 279.16796875 312.5 c 2
 850.4375 312.5 l 1
 854.630859375 372.861328125 888.944335938 424.95703125 938.330078125 454.16796875 c 1
 695.83203125 454.16796875 l 1
 695.83203125 479.16796875 l 1
EndSplineSet
EndChar

StartChar: U1235a
Encoding: 282 74586 26
Width: 1603
VWidth: 100
Flags: W
HStem: 99.634 24.7053<1075.66 1143.15> 287.5 25<220.617 850> 787.5 25<695.832 938.33 969.097 1029.17>
VStem: 100 25<133.332 375.83 406.597 466.668> 850 25<-200 287.5 330.176 691.883> 949.284 24.7476<321.324 369.043> 1074.28 24.7474<446.324 494.044> 1199.28 24.7474<571.324 619.044>
LayerCount: 2
Fore
SplineSet
695.83203125 812.5 m 1
 1029.16796875 812.5 l 1
 1029.16796875 787.5 l 1
 943.876953125 787.5 875 718.623046875 875 633.33203125 c 2
 875 330.17578125 l 1
 978.662109375 433.837890625 l 1
 1103.66210938 558.837890625 l 1
 1103.66210938 558.83984375 l 1
 1228.66210938 683.83984375 l 1
 1246.33789062 666.162109375 l 1
 1231.46704102 651.290283195 1224.03124999 631.894626842 1224.03124999 612.499044757 c 0
 1224.03124999 593.1040995 1231.46655274 573.709228508 1246.33789062 558.837890625 c 2
 1432.1484375 373.02734375 l 1
 1485.81054688 426.689453125 l 1
 1503.48828125 409.01171875 l 1
 1246.33984375 151.86328125 l 1
 1246.33789062 151.86328125 l 1
 1229.91015625 135.435546875 1211.06054688 122.913085938 1190.93554688 114.2421875 c 1
 1190.98828125 114.189453125 l 1
 1173.31054688 96.51171875 l 1
 1164.57226562 105.25 l 1
 1149.92568603 101.505102703 1134.89245732 99.6339851051 1119.85652707 99.6339851051 c 0
 1104.73257034 99.6339851051 1089.60588033 101.527075405 1074.8671875 105.310546875 c 1
 1246.33789062 -66.162109375 l 1
 1228.66210938 -83.837890625 l 1
 992.95703125 151.865234375 l 1
 1010.63476562 169.54296875 l 1
 1040.78381899 139.393915381 1080.19674555 124.339272173 1119.61400638 124.339272173 c 0
 1127.63897989 124.339272173 1135.66413305 124.963272475 1143.61132812 126.2109375 c 1
 978.66015625 291.162109375 l 2
 959.026076079 310.796189546 949.283882654 336.614551502 949.283882654 362.441211614 c 0
 949.283882654 364.741493322 949.361165358 367.041840857 949.515625 369.337890625 c 1
 875 294.82421875 l 1
 875 -200 l 1
 850 -200 l 1
 850 287.5 l 1
 279.16796875 287.5 l 2
 213.541015625 287.5 156.209960938 323.064453125 125 375.830078125 c 1
 125 133.33203125 l 1
 100 133.33203125 l 1
 100 466.66796875 l 1
 125 466.66796875 l 1
 125 381.376953125 193.876953125 312.5 279.16796875 312.5 c 2
 850 312.5 l 1
 850 633.33203125 l 2
 850 698.958984375 885.564453125 756.290039062 938.330078125 787.5 c 1
 695.83203125 787.5 l 1
 695.83203125 812.5 l 1
1199.515625 619.337890625 m 1
 1121.33789062 541.162109375 l 2
 1106.46704102 526.290283195 1099.03124999 506.894626842 1099.03124999 487.499044757 c 0
 1099.03124999 468.1040995 1106.46655274 448.709228508 1121.33789062 433.837890625 c 2
 1307.1484375 248.02734375 l 1
 1414.47265625 355.3515625 l 1
 1228.66015625 541.162109375 l 2
 1209.02607608 560.796189546 1199.28388265 586.614551502 1199.28388265 612.441211614 c 0
 1199.28388265 614.741493322 1199.36116536 617.041840857 1199.515625 619.337890625 c 1
1074.515625 494.337890625 m 1
 996.33984375 416.162109375 l 2
 981.467773438 401.290039063 974.031494117 381.893990051 974.031494117 362.498089576 c 0
 974.031494117 343.103462717 981.466796875 323.708984375 996.337890625 308.837890625 c 2
 1171.77539062 133.40234375 l 1
 1192.52148438 140.859375 1212.00878906 152.888671875 1228.66015625 169.541015625 c 1
 1228.66210938 169.541015625 l 1
 1289.47265625 230.3515625 l 1
 1103.66015625 416.162109375 l 2
 1084.02607608 435.796189546 1074.28388265 461.614551502 1074.28388265 487.441211614 c 0
 1074.28388265 489.741493322 1074.36116536 492.041840857 1074.515625 494.337890625 c 1
EndSplineSet
EndChar

StartChar: U12137
Encoding: 283 74039 27
Width: 1212
VWidth: 100
Flags: W
HStem: 287.5 25<220.617 600> 787.5 25<445.832 688.33 719.097 1021.66 1052.43 1112.5>
VStem: 100 25<133.332 375.83 406.597 466.668> 600 25<-200 287.5 312.5 691.883> 933.332 25<-200 691.883>
LayerCount: 2
Fore
SplineSet
445.83203125 812.5 m 1
 779.16796875 812.5 l 1
 1112.5 812.5 l 1
 1112.5 787.5 l 1
 1027.20898438 787.5 958.33203125 718.623046875 958.33203125 633.33203125 c 2
 958.33203125 -200 l 1
 933.33203125 -200 l 1
 933.33203125 633.33203125 l 2
 933.33203125 698.958984375 968.896484375 756.290039062 1021.66210938 787.5 c 1
 779.16796875 787.5 l 2
 693.876953125 787.5 625 718.623046875 625 633.33203125 c 2
 625 -200 l 1
 600 -200 l 1
 600 287.5 l 1
 279.16796875 287.5 l 2
 213.541015625 287.5 156.209960938 323.064453125 125 375.830078125 c 1
 125 133.33203125 l 1
 100 133.33203125 l 1
 100 466.66796875 l 1
 125 466.66796875 l 1
 125 381.376953125 193.876953125 312.5 279.16796875 312.5 c 2
 600 312.5 l 1
 600 633.33203125 l 2
 600 698.958984375 635.564453125 756.290039062 688.330078125 787.5 c 1
 445.83203125 787.5 l 1
 445.83203125 812.5 l 1
895.328125 558.837890625 m 1
 913.005859375 541.162109375 l 1
 671.845703125 300 l 1
 913.005859375 58.837890625 l 1
 895.328125 41.162109375 l 1
 636.490234375 300 l 1
 895.328125 558.837890625 l 1
EndSplineSet
EndChar

StartChar: LIG_MUD
Encoding: 284 -1 28
Width: 1596
VWidth: 100
Flags: W
HStem: 287.5 25<220.617 766.668> 787.5 25<612.5 854.996 885.762 1188.33 1219.1 1279.17>
VStem: 100 25<133.332 375.83 406.597 466.668> 766.668 25<-200 287.5 312.5 691.883> 1100 25<-200 294.824 330.176 691.883> 1419.28 24.6814<240.426 343.981>
LayerCount: 2
Fore
SplineSet
612.5 812.5 m 1
 945.83203125 812.5 l 1
 1279.16796875 812.5 l 1
 1279.16796875 787.5 l 1
 1193.87695312 787.5 1125 718.623046875 1125 633.33203125 c 2
 1125 330.17578125 l 1
 1186.9921875 392.169921875 l 1
 1186.99414062 392.169921875 l 1
 1270.3125 475.48828125 l 2
 1270.31835938 475.494140625 1270.3203125 475.5 1270.33007812 475.505859375 c 2
 1353.66015625 558.837890625 l 1
 1371.33789062 541.16015625 l 1
 1362.22070312 532.04296875 1357.66210938 520.187988281 1357.66210938 508.333007812 c 0
 1357.66210938 496.478027344 1362.22070312 484.623046875 1371.33789062 475.505859375 c 1
 1371.33984375 475.505859375 l 1
 1445.83203125 401.009765625 l 1
 1471.51367188 426.69140625 l 1
 1489.19140625 409.013671875 l 1
 1459.03710938 378.859375 1443.95996094 339.430175781 1443.95996094 300.000976562 c 0
 1443.95996094 260.571777344 1459.03710938 221.142578125 1489.19140625 190.98828125 c 2
 1496.33984375 183.83984375 l 1
 1478.66210938 166.162109375 l 1
 1471.51367188 173.310546875 l 2
 1436.63592946 208.188289286 1419.27852975 253.958322839 1419.27852975 299.756123031 c 0
 1419.27852975 314.892870026 1421.17462667 330.032650209 1424.9609375 344.783203125 c 1
 1253.48828125 173.310546875 l 1
 1235.81054688 190.986328125 l 1
 1261.49023438 216.666015625 l 1
 1186.99414062 291.16015625 l 1
 1186.99414062 291.162109375 l 1
 1174.4765625 303.6796875 1167.65039062 319.779296875 1166.41015625 336.232421875 c 1
 1125 294.82421875 l 1
 1125 -200 l 1
 1100 -200 l 1
 1100 633.33203125 l 2
 1100 698.958984375 1135.56445312 756.290039062 1188.33007812 787.5 c 1
 945.83203125 787.5 l 2
 860.541015625 787.5 791.66796875 718.623046875 791.66796875 633.33203125 c 2
 791.66796875 -200 l 1
 766.66796875 -200 l 1
 766.66796875 287.5 l 1
 279.16796875 287.5 l 2
 213.541015625 287.5 156.209960938 323.064453125 125 375.830078125 c 1
 125 133.33203125 l 1
 100 133.33203125 l 1
 100 466.66796875 l 1
 125 466.66796875 l 1
 125 381.376953125 193.876953125 312.5 279.16796875 312.5 c 2
 766.66796875 312.5 l 1
 766.66796875 633.33203125 l 2
 766.66796875 698.958984375 802.231445312 756.290039062 854.99609375 787.5 c 1
 612.5 787.5 l 1
 612.5 812.5 l 1
1061.99414062 558.837890625 m 1
 1079.671875 541.162109375 l 1
 838.5078125 300 l 1
 1079.671875 58.837890625 l 1
 1061.99414062 41.162109375 l 1
 803.154296875 300 l 1
 1061.99414062 558.837890625 l 1
1333.078125 502.900390625 m 1
 1288.0078125 457.830078125 l 1
 1288.00585938 457.830078125 l 1
 1278.88867188 448.712890625 1274.33007812 436.856933594 1274.33007812 425.000976562 c 0
 1274.33007812 413.145019531 1278.88867188 401.2890625 1288.00585938 392.171875 c 1
 1270.33007812 374.494140625 l 1
 1257.81152344 387.012695312 1250.984375 403.114257812 1249.74414062 419.568359375 c 1
 1204.66992188 374.494140625 l 1
 1204.66992188 374.4921875 l 1
 1195.55261231 365.374877933 1190.99377441 353.519702086 1190.99377441 341.664562895 c 0
 1190.99377441 329.809741149 1195.55236817 317.954956058 1204.66992188 308.837890625 c 2
 1279.16796875 234.34375 l 1
 1344.82226562 300 l 1
 1270.33007812 374.494140625 l 1
 1288.0078125 392.169921875 l 1
 1362.5 317.677734375 l 1
 1428.15625 383.333984375 l 1
 1353.66210938 457.830078125 l 1
 1353.66210938 457.83203125 l 1
 1341.14550781 470.349609375 1334.31835938 486.448242188 1333.078125 502.900390625 c 1
EndSplineSet
Ligature2: "ligsubtable" U12137 U1212d
EndChar

StartChar: U1223a
Encoding: 285 74298 29
Width: 1212
VWidth: 100
Flags: W
HStem: 216.074 25<683.941 746.628 791.475 826.793> 287.5 25<220.617 385.734 541.09 624.322 648.62 767.174 814.119 826.793> 787.5 25<255.383 456.877 487.381 541.09 826.793 1028.29 1058.79 1112.5>
VStem: 100 25<133.332 375.83 406.597 466.668> 385.734 25<-200 287.5 312.5 710.856> 600.016 25<-200 263.893> 742.867 25<-200 192.467 241.074 264.621> 957.148 25<-200 710.857>
LayerCount: 2
Fore
SplineSet
255.3828125 812.5 m 1
 541.08984375 812.5 l 1
 541.08984375 787.5 l 1
 468.950195312 787.5 410.734375 729.287109375 410.734375 657.1484375 c 2
 410.734375 -200 l 1
 385.734375 -200 l 1
 385.734375 287.5 l 1
 279.16796875 287.5 l 2
 213.541015625 287.5 156.209960938 323.064453125 125 375.830078125 c 1
 125 133.33203125 l 1
 100 133.33203125 l 1
 100 466.66796875 l 1
 125 466.66796875 l 1
 125 381.376953125 193.876953125 312.5 279.16796875 312.5 c 2
 385.734375 312.5 l 1
 385.734375 657.1484375 l 2
 385.734375 711.758789062 414.13671875 759.790039062 456.876953125 787.5 c 1
 255.3828125 787.5 l 1
 255.3828125 812.5 l 1
826.79296875 812.5 m 1
 1112.5 812.5 l 1
 1112.5 787.5 l 1
 1040.36035156 787.5 982.1484375 729.288085938 982.1484375 657.1484375 c 2
 982.1484375 -200 l 1
 957.1484375 -200 l 1
 957.1484375 657.1484375 l 2
 957.1484375 711.758789062 985.549804688 759.790039062 1028.2890625 787.5 c 1
 826.79296875 787.5 l 1
 826.79296875 812.5 l 1
800.103515625 808.837890625 m 1
 817.78125 791.162109375 l 1
 576.6171875 550 l 1
 814.119140625 312.5 l 1
 826.79296875 312.5 l 1
 826.79296875 287.5 l 1
 798.3984375 287.5 774.8828125 267.700195312 769.19140625 241.07421875 c 1
 826.79296875 241.07421875 l 1
 826.79296875 216.07421875 l 1
 794.104492188 216.07421875 767.8671875 189.837890625 767.8671875 157.1484375 c 2
 767.8671875 -200 l 1
 742.8671875 -200 l 1
 742.8671875 157.1484375 l 2
 742.8671875 180.073242188 752.170898438 200.896484375 767.173828125 216.07421875 c 1
 683.94140625 216.07421875 l 1
 683.94140625 241.07421875 l 1
 743.8046875 241.07421875 l 1
 746.512695312 259.01953125 754.950195312 275.133789062 767.173828125 287.5 c 1
 683.94140625 287.5 l 2
 651.247070312 287.5 625.015625 261.263671875 625.015625 228.57421875 c 2
 625.015625 -200 l 1
 600.015625 -200 l 1
 600.015625 228.57421875 l 2
 600.015625 251.499023438 609.319335938 272.322265625 624.322265625 287.5 c 1
 541.08984375 287.5 l 1
 541.08984375 312.5 l 1
 683.94140625 312.5 l 1
 778.765625 312.5 l 1
 541.263671875 550 l 1
 800.103515625 808.837890625 l 1
EndSplineSet
EndChar

StartChar: U122e5
Encoding: 286 74469 30
Width: 1712
VWidth: 100
Flags: W
HStem: 287.5 25<220.617 683.332 1137.28 1612.5> 787.5 25<529.168 771.662 802.429 1105 1135.76 1195.83>
VStem: 100 25<133.332 375.83 406.597 466.668> 683.332 25<-200 287.5 312.5 691.883> 1016.67 25<-200 375.83 406.597 691.883>
LayerCount: 2
Fore
SplineSet
529.16796875 812.5 m 1
 862.5 812.5 l 1
 1195.83203125 812.5 l 1
 1195.83203125 787.5 l 1
 1110.54101562 787.5 1041.66796875 718.623046875 1041.66796875 633.33203125 c 2
 1041.66796875 466.66796875 l 2
 1041.66796875 381.376953125 1110.54101562 312.5 1195.83203125 312.5 c 2
 1612.5 312.5 l 1
 1612.5 287.5 l 1
 1195.83203125 287.5 l 2
 1130.20507812 287.5 1072.87695312 323.065429688 1041.66796875 375.830078125 c 1
 1041.66796875 133.33203125 l 1
 1041.66796875 -200 l 1
 1016.66796875 -200 l 1
 1016.66796875 133.33203125 l 1
 1016.66796875 466.66796875 l 1
 1016.66796875 633.33203125 l 2
 1016.66796875 698.958984375 1052.23144531 756.290039062 1104.99609375 787.5 c 1
 862.5 787.5 l 2
 777.208984375 787.5 708.33203125 718.623046875 708.33203125 633.33203125 c 2
 708.33203125 -200 l 1
 683.33203125 -200 l 1
 683.33203125 287.5 l 1
 279.16796875 287.5 l 2
 213.541015625 287.5 156.209960938 323.064453125 125 375.830078125 c 1
 125 133.33203125 l 1
 100 133.33203125 l 1
 100 466.66796875 l 1
 125 466.66796875 l 1
 125 381.376953125 193.876953125 312.5 279.16796875 312.5 c 2
 683.33203125 312.5 l 1
 683.33203125 633.33203125 l 2
 683.33203125 698.958984375 718.896484375 756.290039062 771.662109375 787.5 c 1
 529.16796875 787.5 l 1
 529.16796875 812.5 l 1
EndSplineSet
EndChar

StartChar: U12100
Encoding: 287 73984 31
Width: 1571
VWidth: 100
Flags: W
HStem: 287.5 25<220.617 666.668> 787.5 25<512.5 754.996 785.762 1088.33 1119.1 1179.17>
VStem: 100 25<133.332 375.83 406.597 466.668> 666.668 25<-200 287.5 312.5 691.883> 1000 25<-200 294.824 330.176 691.883> 1079.41 24.8047<314.621 349.229> 1179.41 24.8047<414.621 449.229> 1279.41 24.8047<514.621 549.229> 1369.28 24.6814<240.426 343.981>
LayerCount: 2
Fore
SplineSet
512.5 812.5 m 1
 845.83203125 812.5 l 1
 1179.16796875 812.5 l 1
 1179.16796875 787.5 l 1
 1093.87695312 787.5 1025 718.623046875 1025 633.33203125 c 2
 1025 330.17578125 l 1
 1103.66015625 408.837890625 l 1
 1103.66210938 408.837890625 l 1
 1203.66015625 508.837890625 l 1
 1203.66210938 508.837890625 l 1
 1303.66015625 608.837890625 l 1
 1321.33789062 591.16015625 l 1
 1309.91992188 579.7421875 1304.2109375 564.870605469 1304.2109375 549.999023438 c 0
 1304.2109375 535.127441406 1309.91992188 520.255859375 1321.33789062 508.837890625 c 2
 1412.5 417.677734375 l 1
 1421.51367188 426.69140625 l 1
 1439.19140625 409.013671875 l 1
 1409.03710938 378.859375 1393.95996094 339.430175781 1393.95996094 300.000976562 c 0
 1393.95996094 260.571777344 1409.03710938 221.142578125 1439.19140625 190.98828125 c 2
 1471.33984375 158.83984375 l 1
 1453.66210938 141.162109375 l 1
 1421.51367188 173.310546875 l 2
 1386.63592946 208.188289286 1369.27852975 253.958322839 1369.27852975 299.756123031 c 0
 1369.27852975 314.892870026 1371.17462667 330.032650209 1374.9609375 344.783203125 c 1
 1203.48828125 173.310546875 l 1
 1185.81054688 190.986328125 l 1
 1194.82421875 200 l 1
 1103.66210938 291.162109375 l 2
 1087.66210938 307.162109375 1079.59960938 328.165039062 1079.40625 349.228515625 c 1
 1025 294.82421875 l 1
 1025 -200 l 1
 1000 -200 l 1
 1000 633.33203125 l 2
 1000 698.958984375 1035.56445312 756.290039062 1088.33007812 787.5 c 1
 845.83203125 787.5 l 2
 760.541015625 787.5 691.66796875 718.623046875 691.66796875 633.33203125 c 2
 691.66796875 -200 l 1
 666.66796875 -200 l 1
 666.66796875 287.5 l 1
 279.16796875 287.5 l 2
 213.541015625 287.5 156.209960938 323.064453125 125 375.830078125 c 1
 125 133.33203125 l 1
 100 133.33203125 l 1
 100 466.66796875 l 1
 125 466.66796875 l 1
 125 381.376953125 193.876953125 312.5 279.16796875 312.5 c 2
 666.66796875 312.5 l 1
 666.66796875 633.33203125 l 2
 666.66796875 698.958984375 702.231445312 756.290039062 754.99609375 787.5 c 1
 512.5 787.5 l 1
 512.5 812.5 l 1
1279.40625 549.228515625 m 1
 1221.33789062 491.162109375 l 1
 1221.33789062 491.16015625 l 1
 1209.91992188 479.7421875 1204.2109375 464.870605469 1204.2109375 449.999023438 c 0
 1204.2109375 435.127441406 1209.91992188 420.255859375 1221.33789062 408.837890625 c 2
 1312.5 317.677734375 l 1
 1394.82421875 400 l 1
 1303.66210938 491.162109375 l 2
 1287.66210938 507.162109375 1279.59960938 528.165039062 1279.40625 549.228515625 c 1
1179.40625 449.228515625 m 1
 1121.33789062 391.162109375 l 1
 1121.33789062 391.16015625 l 1
 1109.91992188 379.7421875 1104.2109375 364.870605469 1104.2109375 349.999023438 c 0
 1104.2109375 335.127441406 1109.91992188 320.255859375 1121.33789062 308.837890625 c 2
 1212.5 217.677734375 l 1
 1294.82421875 300 l 1
 1203.66210938 391.162109375 l 2
 1187.66210938 407.162109375 1179.59960938 428.165039062 1179.40625 449.228515625 c 1
EndSplineSet
EndChar

StartChar: U12101
Encoding: 288 73985 32
Width: 2222
VWidth: 100
Flags: W
HStem: -52.5078 25<1407.51 1620.05> 60.8516 25<1416.46 1620.05 1759.2 1875.53 1899.04 1933.17 1960.47 2012.5> 187.5 25<1505.9 1679.87 1707.17 1933.17 1961.31 2012.5> 287.5 25<220.617 933.332> 318.157 24.9321<1311.66 1418.11> 787.5 25<779.168 1021.66 1052.43 1355 1385.76 1445.83>
VStem: 100 25<133.332 375.83 406.597 466.668> 933.332 25<-200 287.5 312.5 691.883> 1266.67 25<-200 214.832 278.499 321.499 397.412 691.883> 1366.67 25<-100 -34.5957 -12.0069 85.3887 107.977 139.969> 1526.2 24.7728<733.291 819.515> 1620.05 25<-100 -52.5078 -27.5078 67.4766 92.4766 124.205> 1734.53 24.7733<733.29 819.51> 1873.35 25<-100 -3.06655 85.8516 123.591> 1942.87 24.7728<733.291 819.515>
LayerCount: 2
Fore
SplineSet
1575.52539062 889.626953125 m 1
 1591.52929688 870.419921875 l 1
 1564.77529133 848.125645339 1550.97160695 816.182139825 1550.97160695 783.98630349 c 0
 1550.97160695 758.604502553 1559.55068198 733.065876455 1577.12695312 711.974609375 c 2
 1705.43554688 558.001953125 l 1
 1686.22851562 541.998046875 l 1
 1557.921875 695.970703125 l 2
 1536.57760744 721.584104369 1526.19878068 752.738250862 1526.19878068 783.738158089 c 0
 1526.19878068 795.959209256 1527.81181868 808.156289139 1531.00195312 819.98046875 c 1
 1399.47460938 710.373046875 l 1
 1383.47070312 729.580078125 l 1
 1575.52539062 889.626953125 l 1
1783.85742188 889.626953125 m 1
 1783.85742188 889.625 l 1
 1799.86132812 870.421875 l 1
 1799.86132812 870.419921875 l 1
 1799.83984375 870.40234375 l 2
 1773.10151942 848.107575211 1759.30483395 816.170843047 1759.30483395 783.982296995 c 0
 1759.30483395 758.60187401 1767.88251226 733.06489324 1785.45703125 711.974609375 c 2
 1913.77148438 558.001953125 l 1
 1894.56445312 541.998046875 l 1
 1766.25195312 695.970703125 l 2
 1744.90893251 721.583308416 1734.53157847 752.736011589 1734.53157847 783.734465917 c 0
 1734.53157847 795.957469323 1736.14505414 808.15649005 1739.3359375 819.982421875 c 1
 1607.80664062 710.373046875 l 1
 1591.80273438 729.580078125 l 1
 1783.85742188 889.626953125 l 1
1992.19335938 889.626953125 m 1
 2008.19726562 870.419921875 l 1
 1981.44326008 848.125645339 1967.6395757 816.18244517 1967.6395757 783.986707305 c 0
 1967.6395757 758.604983996 1976.21865073 733.06630695 1993.79492188 711.974609375 c 2
 2122.10351562 558.001953125 l 1
 2112.5 550 l 1
 2116.09179688 538.02734375 l 1
 1402.48632812 323.9453125 l 2
 1389.41082425 320.022891953 1376.20339534 318.157479504 1363.20711384 318.157479504 c 0
 1337.67943953 318.157479504 1312.96641329 325.354606265 1291.66796875 338.296875 c 1
 1291.66796875 301.83203125 l 1
 1327.05859375 183.865234375 l 1
 1303.11328125 176.681640625 l 1
 1291.66796875 214.83203125 l 1
 1291.66796875 -200 l 1
 1266.66796875 -200 l 1
 1266.66796875 298.166015625 l 1
 1231.27734375 416.134765625 l 1
 1255.22265625 423.318359375 l 1
 1258.01269531 414.018554688 1261.88867188 405.3515625 1266.66796875 397.412109375 c 1
 1266.66796875 633.33203125 l 2
 1266.66796875 698.958984375 1302.23144531 756.290039062 1354.99609375 787.5 c 1
 1112.5 787.5 l 2
 1027.20898438 787.5 958.33203125 718.623046875 958.33203125 633.33203125 c 2
 958.33203125 -200 l 1
 933.33203125 -200 l 1
 933.33203125 287.5 l 1
 279.16796875 287.5 l 2
 213.541015625 287.5 156.209960938 323.064453125 125 375.830078125 c 1
 125 133.33203125 l 1
 100 133.33203125 l 1
 100 466.66796875 l 1
 125 466.66796875 l 1
 125 381.376953125 193.876953125 312.5 279.16796875 312.5 c 2
 933.33203125 312.5 l 1
 933.33203125 633.33203125 l 2
 933.33203125 698.958984375 968.896484375 756.290039062 1021.66210938 787.5 c 1
 779.16796875 787.5 l 1
 779.16796875 812.5 l 1
 1112.5 812.5 l 1
 1445.83203125 812.5 l 1
 1445.83203125 787.5 l 1
 1360.54101562 787.5 1291.66796875 718.623046875 1291.66796875 633.33203125 c 2
 1291.66796875 368.529296875 l 1
 1311.48071151 352.312951713 1336.56631924 343.089588954 1362.78360291 343.089588954 c 0
 1373.52825619 343.089588954 1384.46298731 344.638757657 1395.30273438 347.890625 c 2
 2090.78320312 556.53515625 l 1
 1974.58984375 695.970703125 l 2
 1953.24557619 721.584104369 1942.86674943 752.738250862 1942.86674943 783.738158089 c 0
 1942.86674943 795.959209256 1944.47978743 808.156289139 1947.66992188 819.98046875 c 1
 1816.14257812 710.373046875 l 1
 1800.13867188 729.580078125 l 1
 1992.19335938 889.626953125 l 1
1505.8984375 212.5 m 1
 1759.19921875 212.5 l 1
 2012.5 212.5 l 1
 2012.5 187.5 l 1
 1953.53710938 187.5 1905.24121094 143.125 1899.04101562 85.8515625 c 1
 2012.5 85.8515625 l 1
 2012.5 60.8515625 l 1
 1949.31054688 60.8515625 1898.3515625 9.8896484375 1898.3515625 -53.30078125 c 2
 1898.3515625 -100 l 1
 1873.3515625 -100 l 1
 1873.3515625 -53.30078125 l 2
 1873.3515625 -6.0771484375 1897.07226562 35.6806640625 1933.16796875 60.8515625 c 1
 1759.19921875 60.8515625 l 1
 1759.19921875 85.8515625 l 1
 1873.9765625 85.8515625 l 1
 1877.75390625 127.883789062 1900.296875 164.579101562 1933.16601562 187.5 c 1
 1759.19921875 187.5 l 2
 1696.00878906 187.5 1645.05078125 136.541015625 1645.05078125 73.3515625 c 2
 1645.05078125 -100 l 1
 1620.05078125 -100 l 1
 1620.05078125 -52.5078125 l 1
 1439.16015625 -52.5078125 l 2
 1421.01171875 -52.5078125 1404.41601562 -45.708984375 1391.66796875 -34.595703125 c 1
 1391.66796875 -100 l 1
 1366.66796875 -100 l 1
 1366.66796875 19.984375 l 1
 1366.66796875 139.96875 l 1
 1391.66796875 139.96875 l 1
 1391.66796875 113.591796875 1412.78320312 92.4765625 1439.16015625 92.4765625 c 2
 1621.40820312 92.4765625 l 1
 1626.84863281 131.728515625 1648.73339844 165.791015625 1679.86523438 187.5 c 1
 1505.8984375 187.5 l 1
 1505.8984375 212.5 l 1
1391.66796875 85.388671875 m 1
 1391.66796875 19.984375 l 2
 1391.66796875 -6.392578125 1412.78320312 -27.5078125 1439.16015625 -27.5078125 c 2
 1620.05078125 -27.5078125 l 1
 1620.05078125 67.4765625 l 1
 1439.16015625 67.4765625 l 2
 1421.01171875 67.4765625 1404.41601562 74.275390625 1391.66796875 85.388671875 c 1
EndSplineSet
EndChar

StartChar: U12291
Encoding: 289 74385 33
Width: 1712
VWidth: 100
Flags: W
HStem: 287.5 25<220.617 766.668> 787.5 25<612.5 854.996 885.762 1188.33 1219.1 1521.66 1552.43 1612.5>
VStem: 100 25<133.332 375.83 406.597 466.668> 766.668 25<-200 287.5 312.5 691.883> 1100 25<-200 286.49 313.51 691.883> 1433.33 25<-200 4.16406 13.5117 586.488 595.836 691.883>
LayerCount: 2
Fore
SplineSet
612.5 812.5 m 1
 945.83203125 812.5 l 1
 1279.16796875 812.5 l 1
 1612.5 812.5 l 1
 1612.5 787.5 l 1
 1527.20898438 787.5 1458.33203125 718.623046875 1458.33203125 633.33203125 c 2
 1458.33203125 -200 l 1
 1433.33203125 -200 l 1
 1433.33203125 4.1640625 l 1
 1420.328125 -8.837890625 l 1
 1125 286.490234375 l 1
 1125 -200 l 1
 1100 -200 l 1
 1100 633.33203125 l 2
 1100 698.958984375 1135.56445312 756.290039062 1188.33007812 787.5 c 1
 945.83203125 787.5 l 2
 860.541015625 787.5 791.66796875 718.623046875 791.66796875 633.33203125 c 2
 791.66796875 -200 l 1
 766.66796875 -200 l 1
 766.66796875 287.5 l 1
 279.16796875 287.5 l 2
 213.541015625 287.5 156.209960938 323.064453125 125 375.830078125 c 1
 125 133.33203125 l 1
 100 133.33203125 l 1
 100 466.66796875 l 1
 125 466.66796875 l 1
 125 381.376953125 193.876953125 312.5 279.16796875 312.5 c 2
 766.66796875 312.5 l 1
 766.66796875 633.33203125 l 2
 766.66796875 698.958984375 802.231445312 756.290039062 854.99609375 787.5 c 1
 612.5 787.5 l 1
 612.5 812.5 l 1
1279.16796875 787.5 m 2
 1193.87695312 787.5 1125 718.623046875 1125 633.33203125 c 2
 1125 313.509765625 l 1
 1420.328125 608.837890625 l 1
 1433.33203125 595.8359375 l 1
 1433.33203125 633.33203125 l 2
 1433.33203125 698.958984375 1468.89746094 756.290039062 1521.66210938 787.5 c 1
 1279.16796875 787.5 l 2
1433.33203125 586.48828125 m 1
 1146.84570312 300 l 1
 1433.33203125 13.51171875 l 1
 1433.33203125 586.48828125 l 1
EndSplineSet
EndChar

StartChar: U12363
Encoding: 290 74595 34
Width: 1721
VWidth: 100
Flags: W
HStem: 287.5 25<220.617 766.668> 787.5 25<612.5 854.996 885.762 1188.33 1219.1 1279.17>
VStem: 100 25<133.332 375.83 406.597 466.668> 766.668 25<-200 287.5 312.5 691.883> 1100 25<-200 19.8223 80.1777 519.822 580.178 691.883>
LayerCount: 2
Fore
SplineSet
612.5 812.5 m 1
 945.83203125 812.5 l 1
 1279.16796875 812.5 l 1
 1279.16796875 787.5 l 1
 1193.87695312 787.5 1125 718.623046875 1125 633.33203125 c 2
 1125 580.177734375 l 1
 1353.66210938 808.837890625 l 1
 1371.33789062 791.162109375 l 1
 1130.17578125 550 l 1
 1371.33789062 308.837890625 l 1
 1362.5 300 l 1
 1371.33789062 291.162109375 l 1
 1130.17578125 50 l 1
 1371.33789062 -191.162109375 l 1
 1353.66210938 -208.837890625 l 1
 1125 19.822265625 l 1
 1125 -200 l 1
 1100 -200 l 1
 1100 44.822265625 l 1
 1094.82226562 50 l 1
 1100 55.177734375 l 1
 1100 544.822265625 l 1
 1094.82226562 550 l 1
 1100 555.177734375 l 1
 1100 633.33203125 l 2
 1100 698.958984375 1135.56445312 756.290039062 1188.33007812 787.5 c 1
 945.83203125 787.5 l 2
 860.541015625 787.5 791.66796875 718.623046875 791.66796875 633.33203125 c 2
 791.66796875 -200 l 1
 766.66796875 -200 l 1
 766.66796875 287.5 l 1
 279.16796875 287.5 l 2
 213.541015625 287.5 156.209960938 323.064453125 125 375.830078125 c 1
 125 133.33203125 l 1
 100 133.33203125 l 1
 100 466.66796875 l 1
 125 466.66796875 l 1
 125 381.376953125 193.876953125 312.5 279.16796875 312.5 c 2
 766.66796875 312.5 l 1
 766.66796875 633.33203125 l 2
 766.66796875 698.958984375 802.231445312 756.290039062 854.99609375 787.5 c 1
 612.5 787.5 l 1
 612.5 812.5 l 1
1603.66210938 808.837890625 m 1
 1621.33789062 791.162109375 l 1
 1380.17578125 550 l 1
 1621.33789062 308.837890625 l 1
 1612.5 300 l 1
 1621.33789062 291.162109375 l 1
 1380.17578125 50 l 1
 1621.33789062 -191.162109375 l 1
 1603.66210938 -208.837890625 l 1
 1344.82226562 50 l 1
 1594.82421875 300 l 1
 1344.82226562 550 l 1
 1603.66210938 808.837890625 l 1
1125 519.822265625 m 1
 1125 80.177734375 l 1
 1344.82421875 300 l 1
 1125 519.822265625 l 1
EndSplineSet
EndChar

StartChar: LIG_TU3R_NUN_LAGAR
Encoding: 291 -1 35
Width: 2212
VWidth: 100
Flags: W
HStem: -45.832 25<220.617 1600> 454.168 25<220.617 516.668 1303.95 1600> 787.5 25<362.5 604.996 635.762 938.33 969.097 1271.66 1302.43 1362.5 1445.83 1688.33 1719.1 2021.66 2052.43 2112.5>
VStem: 100 25<-200 42.4961 73.2617 133.332 300 542.496 573.262 633.332> 516.668 25<133.332 454.168 479.168 691.883> 850 25<133.332 691.883> 1183.33 25<133.332 542.496 573.262 691.883> 1600 25<-200 -45.832 -20.832 454.168 479.168 691.883> 1933.33 25<-200 691.883>
LayerCount: 2
Fore
SplineSet
362.5 812.5 m 1
 695.83203125 812.5 l 1
 1029.16796875 812.5 l 1
 1362.5 812.5 l 1
 1362.5 787.5 l 1
 1277.20898438 787.5 1208.33203125 718.623046875 1208.33203125 633.33203125 c 0
 1208.33203125 548.041015625 1277.20800781 479.16796875 1362.5 479.16796875 c 2
 1600 479.16796875 l 1
 1600 633.33203125 l 2
 1600 698.958984375 1635.56445312 756.290039062 1688.33007812 787.5 c 1
 1445.83203125 787.5 l 1
 1445.83203125 812.5 l 1
 1779.16796875 812.5 l 1
 2112.5 812.5 l 1
 2112.5 787.5 l 1
 2027.20898438 787.5 1958.33203125 718.623046875 1958.33203125 633.33203125 c 2
 1958.33203125 -200 l 1
 1933.33203125 -200 l 1
 1933.33203125 633.33203125 l 2
 1933.33203125 698.958984375 1968.89746094 756.290039062 2021.66210938 787.5 c 1
 1779.16796875 787.5 l 2
 1693.87695312 787.5 1625 718.623046875 1625 633.33203125 c 2
 1625 -200 l 1
 1600 -200 l 1
 1600 -45.83203125 l 1
 279.16796875 -45.83203125 l 2
 213.541015625 -45.83203125 156.209960938 -10.2685546875 125 42.49609375 c 1
 125 -200 l 1
 100 -200 l 1
 100 133.33203125 l 1
 125 133.33203125 l 1
 125 48.041015625 193.876953125 -20.83203125 279.16796875 -20.83203125 c 2
 1600 -20.83203125 l 1
 1600 454.16796875 l 1
 1362.5 454.16796875 l 2
 1296.87304688 454.16796875 1239.54199219 489.731445312 1208.33203125 542.49609375 c 1
 1208.33203125 133.33203125 l 1
 1183.33203125 133.33203125 l 1
 1183.33203125 300 l 1
 1183.33203125 633.33203125 l 2
 1183.33203125 698.958984375 1218.89746094 756.290039062 1271.66210938 787.5 c 1
 1029.16796875 787.5 l 2
 943.876953125 787.5 875 718.623046875 875 633.33203125 c 2
 875 133.33203125 l 1
 850 133.33203125 l 1
 850 633.33203125 l 2
 850 698.958984375 885.564453125 756.290039062 938.330078125 787.5 c 1
 695.83203125 787.5 l 2
 610.541015625 787.5 541.66796875 718.623046875 541.66796875 633.33203125 c 2
 541.66796875 133.33203125 l 1
 516.66796875 133.33203125 l 1
 516.66796875 454.16796875 l 1
 279.16796875 454.16796875 l 2
 213.541015625 454.16796875 156.209960938 489.731445312 125 542.49609375 c 1
 125 300 l 1
 100 300 l 1
 100 633.33203125 l 1
 125 633.33203125 l 1
 125 548.041015625 193.876953125 479.16796875 279.16796875 479.16796875 c 2
 516.66796875 479.16796875 l 1
 516.66796875 633.33203125 l 2
 516.66796875 698.958984375 552.231445312 756.290039062 604.99609375 787.5 c 1
 362.5 787.5 l 1
 362.5 812.5 l 1
EndSplineSet
Ligature2: "ligsubtable" U12263 U121ec
EndChar

StartChar: U121b2
Encoding: 292 74162 36
Width: 2212
VWidth: 100
Flags: W
HStem: 287.5 25<220.617 433.676> 620.875 25<1779.25 1934.95 1958.92 2021.67 2052.45 2112.5> 787.5 25<279.551 521.973 552.746 855.223 885.993 1188.47 1219.24 1279.3 1451.18 1688.43 1719.2 2021.68 2051.9 2112.5>
VStem: 100 25<133.332 375.83 406.597 466.668> 433.676 25<-200 287.5 312.5 691.908> 766.926 25<-200 691.908> 1100.17 25<-200 269.822 330.178 691.908> 1600.13 25<-200 691.908> 1933.38 25<-200 525.286 645.875 691.752>
LayerCount: 2
Fore
SplineSet
279.55078125 812.5 m 1
 612.80078125 812.5 l 1
 946.046875 812.5 l 1
 1279.296875 812.5 l 1
 1279.296875 787.5 l 1
 1194.02539062 787.5 1125.171875 718.642578125 1125.171875 633.375 c 2
 1125.171875 330.177734375 l 1
 1270.5 475.505859375 l 1
 1288.17773438 457.830078125 l 1
 1130.34960938 300 l 1
 1288.17773438 142.169921875 l 1
 1270.5 124.4921875 l 1
 1125.171875 269.822265625 l 1
 1125.171875 -200 l 1
 1100.171875 -200 l 1
 1100.171875 294.822265625 l 1
 1094.99414062 300 l 1
 1100.171875 305.177734375 l 1
 1100.171875 633.375 l 2
 1100.171875 698.982421875 1135.72363281 756.295898438 1188.47070312 787.5 c 1
 946.046875 787.5 l 2
 860.778320312 787.5 791.92578125 718.642578125 791.92578125 633.375 c 2
 791.92578125 -200 l 1
 766.92578125 -200 l 1
 766.92578125 633.375 l 2
 766.92578125 698.982421875 802.4765625 756.295898438 855.22265625 787.5 c 1
 612.80078125 787.5 l 2
 527.533203125 787.5 458.67578125 718.642578125 458.67578125 633.375 c 2
 458.67578125 -200 l 1
 433.67578125 -200 l 1
 433.67578125 287.5 l 1
 279.16796875 287.5 l 2
 213.541015625 287.5 156.209960938 323.064453125 125 375.830078125 c 1
 125 133.33203125 l 1
 100 133.33203125 l 1
 100 466.66796875 l 1
 125 466.66796875 l 1
 125 381.376953125 193.876953125 312.5 279.16796875 312.5 c 2
 433.67578125 312.5 l 1
 433.67578125 633.375 l 2
 433.67578125 698.981445312 469.2265625 756.295898438 521.97265625 787.5 c 1
 279.55078125 787.5 l 1
 279.55078125 812.5 l 1
1446.00390625 812.5 m 1
 1779.25390625 812.5 l 1
 2112.5 812.5 l 1
 2112.5 787.5 l 1
 2031.4453125 787.5 1965.26660156 725.265625 1958.91992188 645.875 c 1
 2112.5 645.875 l 1
 2112.5 620.875 l 1
 2027.23144531 620.875 1958.375 552.021484375 1958.375 466.75390625 c 2
 1958.375 -200 l 1
 1933.375 -200 l 1
 1933.375 466.75390625 l 2
 1933.375 532.360351562 1968.92773438 589.671875 2021.67382812 620.875 c 1
 1779.25390625 620.875 l 1
 1779.25390625 645.875 l 1
 1933.8125 645.875 l 1
 1938.00488281 706.216796875 1972.30664062 758.294921875 2021.67578125 787.5 c 1
 1779.25390625 787.5 l 2
 1693.98632812 787.5 1625.12890625 718.642578125 1625.12890625 633.375 c 2
 1625.12890625 -200 l 1
 1600.12890625 -200 l 1
 1600.12890625 633.375 l 2
 1600.12890625 698.981445312 1635.6796875 756.295898438 1688.42578125 787.5 c 1
 1451.18164062 787.5 l 1
 1297.01757812 633.33203125 l 1
 1454.84375 475.5078125 l 1
 1437.16601562 457.830078125 l 1
 1261.66210938 633.33203125 l 1
 1437.16601562 808.837890625 l 1
 1446.00390625 800 l 1
 1446.00390625 812.5 l 1
1437.16601562 142.169921875 m 1
 1454.84375 124.494140625 l 1
 1297.01757812 -33.33203125 l 1
 1454.84375 -191.16015625 l 1
 1437.16601562 -208.837890625 l 1
 1261.66210938 -33.33203125 l 1
 1437.16601562 142.169921875 l 1
EndSplineSet
EndChar

StartChar: U12263
Encoding: 293 74339 37
Width: 1712
VWidth: 100
Flags: W
HStem: 287.5 25<220.617 372.785> 454.168 25<1067.07 1257.38 1286.02 1339.79> 787.5 25<248.93 439.238 467.883 711.953 740.597 984.668 1013.31 1067.07 1339.79 1530.1 1558.74 1612.5>
VStem: 100 25<133.332 375.83 406.597 466.668> 372.785 25<-200 287.5 312.5 716.337> 645.5 25<-200 716.337> 918.215 25<-200 716.337> 1190.93 25<-200 383.004> 1463.64 25<-200 716.337>
LayerCount: 2
Fore
SplineSet
248.9296875 812.5 m 1
 521.64453125 812.5 l 1
 794.359375 812.5 l 1
 1067.0703125 812.5 l 1
 1067.0703125 787.5 l 1
 998.521484375 787.5 943.21484375 732.192382812 943.21484375 663.64453125 c 2
 943.21484375 -200 l 1
 918.21484375 -200 l 1
 918.21484375 663.64453125 l 2
 918.21484375 715.249023438 944.653320312 760.784179688 984.66796875 787.5 c 1
 794.359375 787.5 l 2
 725.805664062 787.5 670.5 732.192382812 670.5 663.64453125 c 2
 670.5 -200 l 1
 645.5 -200 l 1
 645.5 663.64453125 l 2
 645.5 715.249023438 671.9375 760.784179688 711.953125 787.5 c 1
 521.64453125 787.5 l 2
 453.092773438 787.5 397.78515625 732.192382812 397.78515625 663.64453125 c 2
 397.78515625 -200 l 1
 372.78515625 -200 l 1
 372.78515625 287.5 l 1
 279.16796875 287.5 l 2
 213.541015625 287.5 156.209960938 323.064453125 125 375.830078125 c 1
 125 133.33203125 l 1
 100 133.33203125 l 1
 100 466.66796875 l 1
 125 466.66796875 l 1
 125 381.376953125 193.876953125 312.5 279.16796875 312.5 c 2
 372.78515625 312.5 l 1
 372.78515625 663.64453125 l 2
 372.78515625 715.249023438 399.22265625 760.784179688 439.23828125 787.5 c 1
 248.9296875 787.5 l 1
 248.9296875 812.5 l 1
1339.78515625 812.5 m 1
 1612.5 812.5 l 1
 1612.5 787.5 l 1
 1543.94824219 787.5 1488.64453125 732.193359375 1488.64453125 663.64453125 c 2
 1488.64453125 -200 l 1
 1463.64453125 -200 l 1
 1463.64453125 663.64453125 l 2
 1463.64453125 715.248046875 1490.08105469 760.784179688 1530.09570312 787.5 c 1
 1339.78515625 787.5 l 1
 1339.78515625 812.5 l 1
1067.0703125 479.16796875 m 1
 1339.78515625 479.16796875 l 1
 1339.78515625 454.16796875 l 1
 1271.23242188 454.16796875 1215.9296875 398.861328125 1215.9296875 330.30859375 c 2
 1215.9296875 -200 l 1
 1190.9296875 -200 l 1
 1190.9296875 330.30859375 l 2
 1190.9296875 381.916992188 1217.36816406 427.452148438 1257.38476562 454.16796875 c 1
 1067.0703125 454.16796875 l 1
 1067.0703125 479.16796875 l 1
EndSplineSet
EndChar

StartChar: U122fe
Encoding: 294 74494 38
Width: 1221
VWidth: 100
Flags: W
HStem: 287.5 25<220.617 940.654> 787.5 25<445.832 688.33 719.097 779.168>
VStem: 100 25<133.332 375.83 406.597 466.668> 600 25<466.668 691.883>
LayerCount: 2
Fore
SplineSet
445.83203125 812.5 m 1
 779.16796875 812.5 l 1
 779.16796875 787.5 l 1
 693.876953125 787.5 625 718.623046875 625 633.33203125 c 2
 625 466.66796875 l 1
 600 466.66796875 l 1
 600 633.33203125 l 2
 600 698.958984375 635.564453125 756.290039062 688.330078125 787.5 c 1
 445.83203125 787.5 l 1
 445.83203125 812.5 l 1
1103.66210938 475.505859375 m 1
 1121.33984375 457.830078125 l 1
 963.509765625 300 l 1
 1121.33984375 142.169921875 l 1
 1103.66210938 124.4921875 l 1
 940.654296875 287.5 l 1
 279.16796875 287.5 l 2
 213.541015625 287.5 156.209960938 323.064453125 125 375.830078125 c 1
 125 133.33203125 l 1
 100 133.33203125 l 1
 100 466.66796875 l 1
 125 466.66796875 l 1
 125 381.376953125 193.876953125 312.5 279.16796875 312.5 c 2
 940.654296875 312.5 l 1
 1103.66210938 475.505859375 l 1
686.9921875 142.169921875 m 1
 704.669921875 124.494140625 l 1
 546.845703125 -33.33203125 l 1
 704.669921875 -191.16015625 l 1
 686.9921875 -208.837890625 l 1
 511.490234375 -33.33203125 l 1
 686.9921875 142.169921875 l 1
EndSplineSet
EndChar

StartChar: U12227
Encoding: 295 74279 39
Width: 1471
VWidth: 100
Flags: W
HStem: 287.5 25<220.617 433.375 492.676 607.324> 787.5 25<279.25 521.674 552.446 612.5>
VStem: 100 25<133.332 375.83 406.597 466.668> 433.375 25<312.5 691.908> 732.355 24.7161<334.278 403.454> 899.02 24.7153<500.946 570.119> 1065.69 24.7161<667.609 736.786> 1169.28 24.6814<240.426 343.981>
LayerCount: 2
Fore
SplineSet
279.25 812.5 m 1
 612.5 812.5 l 1
 612.5 787.5 l 1
 527.232421875 787.5 458.375 718.642578125 458.375 633.375 c 2
 458.375 312.5 l 1
 607.32421875 312.5 l 1
 770.328125 475.505859375 l 1
 770.330078125 475.505859375 l 1
 936.9921875 642.169921875 l 1
 936.994140625 642.169921875 l 1
 1103.66015625 808.837890625 l 1
 1121.33789062 791.16015625 l 1
 1100.71484375 770.537109375 1090.40332031 743.601074219 1090.40332031 716.665039062 c 0
 1090.40332031 689.729003906 1100.71484375 662.79296875 1121.33789062 642.169921875 c 2
 1288.00585938 475.5078125 l 1
 1270.328125 457.830078125 l 1
 1103.66015625 624.4921875 l 2
 1078.29224171 649.860102036 1065.68721365 683.181932737 1065.68721365 716.521403544 c 0
 1065.68721365 723.411212162 1066.22553392 730.301774132 1067.30078125 737.123046875 c 1
 954.669921875 624.494140625 l 1
 954.669921875 624.4921875 l 1
 934.046508791 603.868774416 923.73498535 576.934400885 923.73498535 550.000112068 c 0
 923.73498535 523.065504398 934.046752931 496.130981444 954.669921875 475.5078125 c 2
 1112.5 317.677734375 l 1
 1221.51367188 426.69140625 l 1
 1239.19140625 409.013671875 l 1
 1209.03710938 378.859375 1193.95996094 339.430175781 1193.95996094 300.000976562 c 0
 1193.95996094 260.571777344 1209.03710938 221.142578125 1239.19140625 190.98828125 c 2
 1371.33789062 58.83984375 l 1
 1353.66210938 41.162109375 l 1
 1221.51367188 173.310546875 l 2
 1186.63592946 208.188289286 1169.27852975 253.958322839 1169.27852975 299.756123031 c 0
 1169.27852975 314.892870026 1171.17462667 330.032650209 1174.9609375 344.783203125 c 1
 1003.48632812 173.310546875 l 1
 985.810546875 190.986328125 l 1
 1094.82226562 300 l 1
 936.9921875 457.830078125 l 2
 911.624546832 483.197718793 899.019660702 516.518269938 899.019660702 549.856620562 c 0
 899.019660702 556.745348581 899.557842225 563.634836571 900.6328125 570.455078125 c 1
 788.005859375 457.830078125 l 1
 788.005859375 457.828125 l 1
 767.3828125 437.205078125 757.071289062 410.269042969 757.071289062 383.333007812 c 0
 757.071289062 356.396972656 767.3828125 329.4609375 788.005859375 308.837890625 c 1
 788.0078125 308.837890625 l 1
 954.669921875 142.169921875 l 1
 936.9921875 124.494140625 l 1
 770.328125 291.162109375 l 2
 744.960210464 316.530023911 732.355182402 349.850513197 732.355182402 383.189524534 c 0
 732.355182402 390.079238199 732.893502667 396.969742882 733.96875 403.791015625 c 1
 621.337890625 291.162109375 l 1
 612.5 300 l 1
 612.5 287.5 l 1
 492.67578125 287.5 l 1
 255.17578125 50 l 1
 496.337890625 -191.162109375 l 1
 478.662109375 -208.837890625 l 1
 219.822265625 50 l 1
 457.32421875 287.5 l 1
 279.16796875 287.5 l 2
 213.541015625 287.5 156.209960938 323.064453125 125 375.830078125 c 1
 125 133.33203125 l 1
 100 133.33203125 l 1
 100 466.66796875 l 1
 125 466.66796875 l 1
 125 381.376953125 193.876953125 312.5 279.16796875 312.5 c 2
 433.375 312.5 l 1
 433.375 633.375 l 2
 433.375 698.981445312 468.927734375 756.295898438 521.673828125 787.5 c 1
 279.25 787.5 l 1
 279.25 812.5 l 1
EndSplineSet
EndChar

StartChar: U12246
Encoding: 296 74310 40
Width: 1221
VWidth: 100
Flags: W
HStem: 287.5 25<220.617 540.656 576.01 600 625 773.99> 787.5 25<445.832 688.33 719.097 779.168>
VStem: 100 25<133.332 375.83 406.597 466.668> 600 25<312.5 691.883>
LayerCount: 2
Fore
SplineSet
445.83203125 812.5 m 1
 779.16796875 812.5 l 1
 779.16796875 787.5 l 1
 693.876953125 787.5 625 718.623046875 625 633.33203125 c 2
 625 312.5 l 1
 773.990234375 312.5 l 1
 928.154296875 466.66796875 l 1
 761.490234375 633.33203125 l 1
 936.9921875 808.837890625 l 1
 954.669921875 791.162109375 l 1
 796.845703125 633.33203125 l 1
 954.669921875 475.505859375 l 1
 945.83203125 466.66796875 l 1
 954.669921875 457.830078125 l 1
 796.845703125 300 l 1
 954.669921875 142.169921875 l 1
 945.83203125 133.33203125 l 1
 954.669921875 124.494140625 l 1
 796.845703125 -33.33203125 l 1
 954.669921875 -191.16015625 l 1
 936.9921875 -208.837890625 l 1
 761.490234375 -33.33203125 l 1
 928.154296875 133.33203125 l 1
 773.990234375 287.5 l 1
 576.009765625 287.5 l 1
 338.5078125 50 l 1
 579.671875 -191.162109375 l 1
 561.994140625 -208.837890625 l 1
 303.154296875 50 l 1
 540.65625 287.5 l 1
 279.16796875 287.5 l 2
 213.541015625 287.5 156.209960938 323.064453125 125 375.830078125 c 1
 125 133.33203125 l 1
 100 133.33203125 l 1
 100 466.66796875 l 1
 125 466.66796875 l 1
 125 381.376953125 193.876953125 312.5 279.16796875 312.5 c 2
 600 312.5 l 1
 600 633.33203125 l 2
 600 698.958984375 635.564453125 756.290039062 688.330078125 787.5 c 1
 445.83203125 787.5 l 1
 445.83203125 812.5 l 1
1103.66210938 808.837890625 m 1
 1121.33984375 791.162109375 l 1
 963.509765625 633.33203125 l 1
 1121.33984375 475.5078125 l 1
 1112.5 466.66796875 l 1
 1121.33984375 457.830078125 l 1
 963.509765625 300 l 1
 1121.33984375 142.169921875 l 1
 1112.50195312 133.33203125 l 1
 1121.33984375 124.4921875 l 1
 963.509765625 -33.33203125 l 1
 1121.33984375 -191.16015625 l 1
 1103.66210938 -208.837890625 l 1
 928.154296875 -33.33203125 l 1
 1094.82226562 133.33203125 l 1
 928.154296875 300 l 1
 1094.82226562 466.666015625 l 1
 928.154296875 633.33203125 l 1
 1103.66210938 808.837890625 l 1
EndSplineSet
EndChar

StartChar: U12097
Encoding: 297 73879 41
Width: 1212
VWidth: 100
Flags: W
HStem: 287.5 25<220.617 445.832> 787.5 25<445.832 688.33 719.097 1021.66 1052.43 1112.5>
VStem: 100 25<133.332 375.83 406.597 466.668> 600 25<300 691.883> 933.332 25<300 691.883>
LayerCount: 2
Fore
SplineSet
445.83203125 812.5 m 1
 779.16796875 812.5 l 1
 1112.5 812.5 l 1
 1112.5 787.5 l 1
 1027.20898438 787.5 958.33203125 718.623046875 958.33203125 633.33203125 c 2
 958.33203125 300 l 1
 933.33203125 300 l 1
 933.33203125 633.33203125 l 2
 933.33203125 698.958984375 968.896484375 756.290039062 1021.66210938 787.5 c 1
 779.16796875 787.5 l 2
 693.876953125 787.5 625 718.623046875 625 633.33203125 c 2
 625 300 l 1
 600 300 l 1
 600 633.33203125 l 2
 600 698.958984375 635.564453125 756.290039062 688.330078125 787.5 c 1
 445.83203125 787.5 l 1
 445.83203125 812.5 l 1
100 466.66796875 m 1
 125 466.66796875 l 1
 125 381.376953125 193.876953125 312.5 279.16796875 312.5 c 2
 445.83203125 312.5 l 1
 445.83203125 287.5 l 1
 279.16796875 287.5 l 2
 213.541015625 287.5 156.209960938 323.064453125 125 375.830078125 c 1
 125 133.33203125 l 1
 100 133.33203125 l 1
 100 466.66796875 l 1
728.662109375 308.837890625 m 1
 746.337890625 291.162109375 l 1
 505.17578125 50 l 1
 746.337890625 -191.162109375 l 1
 728.662109375 -208.837890625 l 1
 469.822265625 50 l 1
 728.662109375 308.837890625 l 1
1061.99414062 308.837890625 m 1
 1079.671875 291.162109375 l 1
 838.5078125 50 l 1
 1079.671875 -191.162109375 l 1
 1061.99414062 -208.837890625 l 1
 803.154296875 50 l 1
 1061.99414062 308.837890625 l 1
EndSplineSet
EndChar

StartChar: U12239
Encoding: 298 74297 42
Width: 1712
VWidth: 100
Flags: W
HStem: 287.5 25<220.617 820.254 845.254 1057.39 1088.16 1117.86 1142.86 1148.23> 787.5 25<683.953 895.691 925.402 1193.3 1223.01 1521.66 1552.43 1612.5>
VStem: 100 25<133.332 375.83 406.597 466.668> 820.254 25<312.5 707.264> 969.059 25<-200 191.883> 1117.86 25<312.5 707.264> 1433.33 25<-200 691.883>
LayerCount: 2
Fore
SplineSet
683.953125 812.5 m 1
 981.55859375 812.5 l 1
 1279.16796875 812.5 l 1
 1612.5 812.5 l 1
 1612.5 787.5 l 1
 1527.20898438 787.5 1458.33203125 718.623046875 1458.33203125 633.33203125 c 2
 1458.33203125 -200 l 1
 1433.33203125 -200 l 1
 1433.33203125 633.33203125 l 2
 1433.33203125 698.958984375 1468.89746094 756.290039062 1521.66210938 787.5 c 1
 1279.16796875 787.5 l 2
 1203.73925781 787.5 1142.86328125 726.624023438 1142.86328125 651.1953125 c 2
 1142.86328125 312.5 l 1
 1148.2265625 312.5 l 1
 1148.2265625 287.5 l 1
 1062.93554688 287.5 994.05859375 218.623046875 994.05859375 133.33203125 c 2
 994.05859375 -200 l 1
 969.05859375 -200 l 1
 969.05859375 133.33203125 l 2
 969.05859375 198.958984375 1004.62304688 256.290039062 1057.38867188 287.5 c 1
 832.71484375 287.5 l 1
 279.16796875 287.5 l 2
 213.541015625 287.5 156.209960938 323.064453125 125 375.830078125 c 1
 125 133.33203125 l 1
 100 133.33203125 l 1
 100 466.66796875 l 1
 125 466.66796875 l 1
 125 381.376953125 193.876953125 312.5 279.16796875 312.5 c 2
 820.25390625 312.5 l 1
 820.25390625 651.1953125 l 2
 820.25390625 708.560546875 850.452148438 758.895507812 895.69140625 787.5 c 1
 683.953125 787.5 l 1
 683.953125 812.5 l 1
981.55859375 787.5 m 2
 906.134765625 787.5 845.25390625 726.623046875 845.25390625 651.1953125 c 2
 845.25390625 312.5 l 1
 1117.86328125 312.5 l 1
 1117.86328125 651.1953125 l 2
 1117.86328125 708.560546875 1148.05957031 758.895507812 1193.29882812 787.5 c 1
 981.55859375 787.5 l 2
EndSplineSet
EndChar

StartChar: U122e9
Encoding: 299 74473 43
Width: 1712
VWidth: 100
Flags: W
HStem: 287.5 25<220.617 766.668 791.668 1100 1125 1188.33 1219.1 1433.33 1458.33 1612.5> 787.5 25<612.5 854.996 885.762 1188.33 1219.1 1521.66 1552.43 1612.5>
VStem: 100 25<133.332 375.83 406.597 466.668> 766.668 25<312.5 691.883> 1100 25<-200 191.883 312.5 691.883> 1433.33 25<312.5 691.883>
LayerCount: 2
Fore
SplineSet
612.5 812.5 m 1
 945.83203125 812.5 l 1
 1279.16796875 812.5 l 1
 1612.5 812.5 l 1
 1612.5 787.5 l 1
 1527.20898438 787.5 1458.33203125 718.623046875 1458.33203125 633.33203125 c 2
 1458.33203125 312.5 l 1
 1612.5 312.5 l 1
 1612.5 287.5 l 1
 1279.16796875 287.5 l 2
 1193.87695312 287.5 1125 218.623046875 1125 133.33203125 c 2
 1125 -200 l 1
 1100 -200 l 1
 1100 133.33203125 l 2
 1100 198.958984375 1135.56445312 256.290039062 1188.33007812 287.5 c 1
 945.83203125 287.5 l 1
 279.16796875 287.5 l 2
 213.541015625 287.5 156.209960938 323.064453125 125 375.830078125 c 1
 125 133.33203125 l 1
 100 133.33203125 l 1
 100 466.66796875 l 1
 125 466.66796875 l 1
 125 381.376953125 193.876953125 312.5 279.16796875 312.5 c 2
 766.66796875 312.5 l 1
 766.66796875 633.33203125 l 2
 766.66796875 698.958984375 802.231445312 756.290039062 854.99609375 787.5 c 1
 612.5 787.5 l 1
 612.5 812.5 l 1
945.83203125 787.5 m 2
 860.541015625 787.5 791.66796875 718.623046875 791.66796875 633.33203125 c 2
 791.66796875 312.5 l 1
 945.83203125 312.5 l 1
 1100 312.5 l 1
 1100 633.33203125 l 2
 1100 698.958984375 1135.56445312 756.290039062 1188.33007812 787.5 c 1
 945.83203125 787.5 l 2
1279.16796875 787.5 m 2
 1193.87695312 787.5 1125 718.623046875 1125 633.33203125 c 2
 1125 312.5 l 1
 1279.16796875 312.5 l 1
 1433.33203125 312.5 l 1
 1433.33203125 633.33203125 l 2
 1433.33203125 698.958984375 1468.89746094 756.290039062 1521.66210938 787.5 c 1
 1279.16796875 787.5 l 2
EndSplineSet
EndChar

StartChar: U12292
Encoding: 300 74386 44
Width: 1712
VWidth: 100
Flags: W
HStem: -45.832 25<220.617 753.16 791.668 1100 1125 1433.33 1458.33 1612.5> 787.5 25<612.5 854.996 885.762 1188.33 1219.1 1521.66 1552.43 1612.5>
VStem: 100 25<-200 42.4961 73.2617 133.332> 363.057 24.7175<470.119 589.695> 766.668 25<2.30078 691.883> 1100 25<-20.832 691.883> 1433.33 25<-20.832 691.883>
LayerCount: 2
Fore
SplineSet
612.5 812.5 m 1
 945.83203125 812.5 l 1
 1279.16796875 812.5 l 1
 1612.5 812.5 l 1
 1612.5 787.5 l 1
 1527.20898438 787.5 1458.33203125 718.623046875 1458.33203125 633.33203125 c 2
 1458.33203125 -20.83203125 l 1
 1612.5 -20.83203125 l 1
 1612.5 -45.83203125 l 1
 279.16796875 -45.83203125 l 2
 213.541015625 -45.83203125 156.209960938 -10.2685546875 125 42.49609375 c 1
 125 -200 l 1
 100 -200 l 1
 100 133.33203125 l 1
 125 133.33203125 l 1
 125 48.041015625 193.876953125 -20.83203125 279.16796875 -20.83203125 c 2
 753.16015625 -20.83203125 l 1
 402.1171875 417.96875 l 2
 375.793920026 450.872520836 363.057359571 490.263482312 363.057359571 529.421883673 c 0
 363.057359571 551.252034594 367.015723594 573.009908733 374.78515625 593.53125 c 1
 185.42578125 442.04296875 l 1
 169.80859375 461.56640625 l 1
 430.09765625 669.798828125 l 1
 445.71484375 650.27734375 l 1
 407.600670138 619.783992909 387.774817962 575.036753766 387.774817962 529.853634724 c 0
 387.774817962 496.085072715 398.848819591 462.073044012 421.638671875 433.5859375 c 2
 766.66796875 2.30078125 l 1
 766.66796875 633.33203125 l 2
 766.66796875 698.958984375 802.231445312 756.290039062 854.99609375 787.5 c 1
 612.5 787.5 l 1
 612.5 812.5 l 1
945.83203125 787.5 m 2
 860.541015625 787.5 791.66796875 718.623046875 791.66796875 633.33203125 c 2
 791.66796875 -20.83203125 l 1
 1100 -20.83203125 l 1
 1100 633.33203125 l 2
 1100 698.958984375 1135.56445312 756.290039062 1188.33007812 787.5 c 1
 945.83203125 787.5 l 2
1279.16796875 787.5 m 2
 1193.87695312 787.5 1125 718.623046875 1125 633.33203125 c 2
 1125 -20.83203125 l 1
 1433.33203125 -20.83203125 l 1
 1433.33203125 633.33203125 l 2
 1433.33203125 698.958984375 1468.89746094 756.290039062 1521.66210938 787.5 c 1
 1279.16796875 787.5 l 2
EndSplineSet
EndChar

StartChar: U12141
Encoding: 301 74049 45
Width: 1712
VWidth: 100
Flags: W
HStem: -45.832 25<220.777 266.668 291.668 1100> 287.5 25<387.282 1100> 787.5 25<112.5 354.996 385.762 445.832 945.832 1188.33 1219.1 1521.66 1552.43 1612.5>
VStem: 100 25<-200 42.4961 72.716 133.332> 266.668 25<-200 -45.832 -20.2871 375.83 406.597 691.883> 1100 25<-200 -45.832 -20.832 287.5 312.5 691.883> 1433.33 25<-200 691.883>
LayerCount: 2
Fore
SplineSet
112.5 812.5 m 1
 445.83203125 812.5 l 1
 445.83203125 787.5 l 1
 360.541015625 787.5 291.66796875 718.623046875 291.66796875 633.33203125 c 2
 291.66796875 466.66796875 l 2
 291.66796875 381.376953125 360.541015625 312.5 445.83203125 312.5 c 2
 1100 312.5 l 1
 1100 633.33203125 l 2
 1100 698.958984375 1135.56445312 756.290039062 1188.33007812 787.5 c 1
 945.83203125 787.5 l 1
 945.83203125 812.5 l 1
 1279.16796875 812.5 l 1
 1612.5 812.5 l 1
 1612.5 787.5 l 1
 1527.20898438 787.5 1458.33203125 718.623046875 1458.33203125 633.33203125 c 2
 1458.33203125 -200 l 1
 1433.33203125 -200 l 1
 1433.33203125 633.33203125 l 2
 1433.33203125 698.958984375 1468.89746094 756.290039062 1521.66210938 787.5 c 1
 1279.16796875 787.5 l 2
 1193.87695312 787.5 1125 718.623046875 1125 633.33203125 c 2
 1125 -200 l 1
 1100 -200 l 1
 1100 -45.83203125 l 1
 291.66796875 -45.83203125 l 1
 291.66796875 -200 l 1
 266.66796875 -200 l 1
 266.66796875 -45.39453125 l 1
 206.306640625 -41.2021484375 154.2109375 -6.8896484375 125 42.49609375 c 1
 125 -200 l 1
 100 -200 l 1
 100 133.33203125 l 1
 125 133.33203125 l 1
 125 52.25390625 187.252929688 -13.9404296875 266.66796875 -20.287109375 c 1
 266.66796875 133.33203125 l 1
 266.66796875 466.66796875 l 1
 266.66796875 633.33203125 l 2
 266.66796875 698.958984375 302.231445312 756.290039062 354.99609375 787.5 c 1
 112.5 787.5 l 1
 112.5 812.5 l 1
291.66796875 375.830078125 m 1
 291.66796875 -20.83203125 l 1
 1100 -20.83203125 l 1
 1100 287.5 l 1
 445.83203125 287.5 l 2
 380.205078125 287.5 322.876953125 323.065429688 291.66796875 375.830078125 c 1
EndSplineSet
EndChar

StartChar: U121c7
Encoding: 302 74183 46
Width: 1712
VWidth: 100
Flags: W
HStem: -45.832 25<220.777 266.668 291.668 600 625 1410.2 1458.33 1612.5> 620.832 25<458.332 521.523 551.97 586.49 638.508 668.441 718.975 1433.33> 787.5 25<112.5 354.996 1279.17 1521.66 1552.43 1612.5>
VStem: 100 25<-200 42.4961 72.716 133.332> 266.668 25<-20.2871 691.883> 433.332 25<466.668 620.832 645.832 709.162 741.22 786.955> 600 25<-20.832 525.17> 667.909 24.6468<645.832 701.474> 1433.33 25<-7.32617 620.832 645.832 691.909>
LayerCount: 2
Fore
SplineSet
112.5 812.5 m 1
 445.83203125 812.5 l 1
 445.83203125 800 l 1
 458.33203125 800 l 1
 458.33203125 716.684570312 524.063476562 649.0703125 606.609375 645.98046875 c 1
 706.85546875 771.28515625 l 1
 706.857421875 771.28515625 l 1
 726.376953125 755.66796875 l 1
 726.37890625 755.66796875 l 1
 726.359375 755.642578125 l 2
 703.590842236 727.172229842 692.555517057 693.18684165 692.555517057 659.439932576 c 0
 692.555517057 654.894954916 692.755678599 650.354302851 693.154296875 645.83203125 c 1
 779.16796875 645.83203125 l 1
 1433.76953125 645.83203125 l 1
 1437.96289062 706.193359375 1472.27636719 758.2890625 1521.66210938 787.5 c 1
 1279.16796875 787.5 l 1
 1279.16796875 812.5 l 1
 1612.5 812.5 l 1
 1612.5 787.5 l 1
 1527.20898438 787.5 1458.33203125 718.623046875 1458.33203125 633.33203125 c 2
 1458.33203125 -20.83203125 l 1
 1612.5 -20.83203125 l 1
 1612.5 -45.83203125 l 1
 279.16796875 -45.83203125 l 2
 213.541015625 -45.83203125 156.209960938 -10.2685546875 125 42.49609375 c 1
 125 -200 l 1
 100 -200 l 1
 100 133.33203125 l 1
 125 133.33203125 l 1
 125 52.25390625 187.252929688 -13.9404296875 266.66796875 -20.287109375 c 1
 266.66796875 633.33203125 l 2
 266.66796875 698.958984375 302.231445312 756.290039062 354.99609375 787.5 c 1
 112.5 787.5 l 1
 112.5 812.5 l 1
433.33203125 786.955078125 m 1
 353.91796875 780.608398438 291.66796875 714.41015625 291.66796875 633.33203125 c 2
 291.66796875 -20.83203125 l 1
 600 -20.83203125 l 1
 600 466.66796875 l 2
 600 526.296875 629.416015625 579.004882812 674.36328125 611.564453125 c 0
 673.521484375 614.63671875 672.759765625 617.723632812 672.08203125 620.83203125 c 2
 618.5078125 620.83203125 l 1
 518.14453125 495.37890625 l 1
 498.62109375 510.99609375 l 1
 586.490234375 620.83203125 l 1
 458.33203125 620.83203125 l 1
 458.33203125 466.66796875 l 1
 433.33203125 466.66796875 l 1
 433.33203125 786.955078125 l 1
458.33203125 709.162109375 m 1
 458.33203125 645.83203125 l 1
 521.5234375 645.83203125 l 1
 495.530273438 661.287109375 473.739257812 683.114257812 458.33203125 709.162109375 c 1
669.630859375 684.734375 m 1
 638.5078125 645.83203125 l 1
 668.44140625 645.83203125 l 1
 668.089459996 650.527128956 667.908724957 655.236504983 667.908724957 659.949048202 c 0
 667.908724957 668.221096491 668.465600041 676.502903433 669.630859375 684.734375 c 1
779.16796875 620.83203125 m 2
 751.806640625 620.83203125 726.153320312 613.715820312 703.90234375 601.271484375 c 1
 713.502929688 577.654296875 729.087890625 556.071289062 750.453125 538.978515625 c 2
 1433.33203125 -7.326171875 l 1
 1433.33203125 620.83203125 l 1
 779.16796875 620.83203125 l 2
682.962890625 587.18359375 m 1
 647.624023438 558.9609375 625 515.5234375 625 466.66796875 c 2
 625 -20.83203125 l 1
 1410.19726562 -20.83203125 l 1
 734.8359375 519.45703125 l 2
 711.486328125 538.13671875 694.166015625 561.533203125 682.962890625 587.18359375 c 1
EndSplineSet
EndChar

StartChar: U12084
Encoding: 303 73860 47
Width: 2212
VWidth: 100
Flags: W
HStem: -45.832 25<220.617 779.168> 254.148 25<360.041 779.168> 520.781 25<359.114 779.168> 620.832 25<1779.17 1934.91 1958.88 2021.66 2052.43 2112.5> 787.5 25<112.5 354.996 386.43 445.832 779.168 1021.66 1052.43 1355 1385.76 1688.33 1719.1 2021.66 2051.88 2112.5>
VStem: 100 25<-200 42.4961 73.2617 133.332> 266.668 25<133.332 318.424 347.521 585.057> 933.332 25<300 691.883> 1266.67 25<300 691.883> 1600 25<300 691.883> 1933.33 25<-200 525.218 645.832 691.723>
LayerCount: 2
Fore
SplineSet
112.5 812.5 m 1
 445.83203125 812.5 l 1
 445.83203125 787.5 l 1
 366.516601562 787.5 301.434570312 727.92578125 292.69921875 650.98828125 c 1
 300.328125 591.532226562 350.905273438 545.78125 412.484375 545.78125 c 2
 779.16796875 545.78125 l 1
 779.16796875 520.78125 l 1
 412.484375 520.78125 l 2
 362.279296875 520.78125 317.909179688 546.307617188 291.66796875 585.056640625 c 1
 291.66796875 399.96484375 l 2
 291.66796875 333.091796875 345.610351562 279.1484375 412.484375 279.1484375 c 2
 779.16796875 279.1484375 l 1
 779.16796875 254.1484375 l 1
 412.484375 254.1484375 l 2
 362.279296875 254.1484375 317.909179688 279.674804688 291.66796875 318.423828125 c 1
 291.66796875 133.33203125 l 1
 266.66796875 133.33203125 l 1
 266.66796875 399.96484375 l 1
 266.66796875 666.59765625 l 1
 269.798828125 666.59765625 l 1
 279.532226562 718.034179688 311.374023438 761.698242188 354.99609375 787.5 c 1
 112.5 787.5 l 1
 112.5 812.5 l 1
779.16796875 812.5 m 1
 1112.5 812.5 l 1
 1445.83203125 812.5 l 1
 1779.16796875 812.5 l 1
 2112.5 812.5 l 1
 2112.5 787.5 l 1
 2031.421875 787.5 1965.22363281 725.247070312 1958.87695312 645.83203125 c 1
 2112.5 645.83203125 l 1
 2112.5 620.83203125 l 1
 2027.20898438 620.83203125 1958.33203125 551.958984375 1958.33203125 466.66796875 c 2
 1958.33203125 -200 l 1
 1933.33203125 -200 l 1
 1933.33203125 466.66796875 l 2
 1933.33203125 532.294921875 1968.89746094 589.623046875 2021.66210938 620.83203125 c 1
 1779.16796875 620.83203125 l 1
 1779.16796875 645.83203125 l 1
 1933.76953125 645.83203125 l 1
 1937.96289062 706.193359375 1972.27636719 758.2890625 2021.66210938 787.5 c 1
 1779.16796875 787.5 l 2
 1693.87695312 787.5 1625 718.623046875 1625 633.33203125 c 2
 1625 300 l 1
 1600 300 l 1
 1600 633.33203125 l 2
 1600 698.958984375 1635.56445312 756.290039062 1688.33007812 787.5 c 1
 1445.83203125 787.5 l 2
 1360.54101562 787.5 1291.66796875 718.623046875 1291.66796875 633.33203125 c 2
 1291.66796875 300 l 1
 1266.66796875 300 l 1
 1266.66796875 633.33203125 l 2
 1266.66796875 698.958984375 1302.23144531 756.290039062 1354.99609375 787.5 c 1
 1112.5 787.5 l 2
 1027.20898438 787.5 958.33203125 718.623046875 958.33203125 633.33203125 c 2
 958.33203125 300 l 1
 933.33203125 300 l 1
 933.33203125 633.33203125 l 2
 933.33203125 698.958984375 968.896484375 756.290039062 1021.66210938 787.5 c 1
 779.16796875 787.5 l 1
 779.16796875 812.5 l 1
1061.99414062 308.837890625 m 1
 1079.671875 291.162109375 l 1
 838.5078125 50 l 1
 1079.671875 -191.162109375 l 1
 1061.99414062 -208.837890625 l 1
 803.154296875 50 l 1
 1061.99414062 308.837890625 l 1
1395.328125 308.837890625 m 1
 1413.00585938 291.162109375 l 1
 1171.84570312 50 l 1
 1413.00585938 -191.162109375 l 1
 1395.328125 -208.837890625 l 1
 1136.49023438 50 l 1
 1395.328125 308.837890625 l 1
1728.66210938 308.837890625 m 1
 1746.33789062 291.162109375 l 1
 1505.17578125 50 l 1
 1746.33789062 -191.162109375 l 1
 1728.66210938 -208.837890625 l 1
 1469.82226562 50 l 1
 1728.66210938 308.837890625 l 1
100 133.33203125 m 1
 125 133.33203125 l 1
 125 48.041015625 193.876953125 -20.83203125 279.16796875 -20.83203125 c 2
 779.16796875 -20.83203125 l 1
 779.16796875 -45.83203125 l 1
 279.16796875 -45.83203125 l 2
 213.541015625 -45.83203125 156.209960938 -10.2685546875 125 42.49609375 c 1
 125 -200 l 1
 100 -200 l 1
 100 133.33203125 l 1
EndSplineSet
EndChar

StartChar: U121a5
Encoding: 304 74149 48
Width: 1722
VWidth: 100
Flags: W
HStem: -45.832 25<220.777 266.668 291.668 933.332 958.332 1586.49> 162.512 25<337.638 933.332> 370.832 25<337.637 933.332> 579.152 25<337.519 933.332> 787.5 25<112.5 354.996 387.724 445.832 779.168 1021.66 1052.43 1112.5>
VStem: 100 25<-200 42.4961 72.716 133.332> 266.668 25<-20.2871 207.281 233.482 415.602 441.803 623.922> 933.332 25<-20.832 162.512 187.512 370.832 395.832 579.152 604.152 691.883> 1196.39 24.7195<470.12 589.695>
LayerCount: 2
Fore
SplineSet
112.5 812.5 m 1
 445.83203125 812.5 l 1
 445.83203125 787.5 l 1
 372.684570312 787.5 311.655273438 736.823242188 295.748046875 668.595703125 c 1
 307.291992188 631.193359375 342.041992188 604.15234375 383.328125 604.15234375 c 2
 933.33203125 604.15234375 l 1
 933.33203125 633.33203125 l 2
 933.33203125 698.958984375 968.896484375 756.290039062 1021.66210938 787.5 c 1
 779.16796875 787.5 l 1
 779.16796875 812.5 l 1
 1112.5 812.5 l 1
 1112.5 787.5 l 1
 1027.20898438 787.5 958.33203125 718.623046875 958.33203125 633.33203125 c 2
 958.33203125 -20.83203125 l 1
 1586.4921875 -20.83203125 l 1
 1235.44921875 417.96875 l 2
 1209.12718795 450.873953374 1196.39011379 490.265859813 1196.39011379 529.42500054 c 0
 1196.39011379 551.254070605 1200.34809602 573.010809887 1208.1171875 593.53125 c 1
 1018.7578125 442.04296875 l 1
 1003.140625 461.56640625 l 1
 1263.43359375 669.798828125 l 1
 1279.05078125 650.27734375 l 1
 1240.93476618 619.784308145 1221.1095729 575.037998777 1221.1095729 529.855446406 c 0
 1221.1095729 496.086491722 1232.18374181 462.073855747 1254.97265625 433.5859375 c 2
 1622.25976562 -25.5234375 l 1
 1612.5 -33.33203125 l 1
 1612.5 -45.83203125 l 1
 279.16796875 -45.83203125 l 2
 213.541015625 -45.83203125 156.209960938 -10.2685546875 125 42.49609375 c 1
 125 -200 l 1
 100 -200 l 1
 100 133.33203125 l 1
 125 133.33203125 l 1
 125 52.25390625 187.252929688 -13.9404296875 266.66796875 -20.287109375 c 1
 266.66796875 70.8515625 l 1
 266.66796875 279.171875 l 1
 266.66796875 487.4921875 l 1
 266.66796875 695.8125 l 1
 277.966796875 695.8125 l 1
 292.44140625 734.4296875 319.90625 766.745117188 354.99609375 787.5 c 1
 112.5 787.5 l 1
 112.5 812.5 l 1
291.66796875 623.921875 m 1
 291.66796875 487.4921875 l 2
 291.66796875 436.723632812 332.556640625 395.83203125 383.328125 395.83203125 c 2
 933.33203125 395.83203125 l 1
 933.33203125 579.15234375 l 1
 383.328125 579.15234375 l 2
 346.161132812 579.15234375 313.052734375 596.725585938 291.66796875 623.921875 c 1
291.66796875 415.6015625 m 1
 291.66796875 279.171875 l 2
 291.66796875 228.403320312 332.557617188 187.51171875 383.328125 187.51171875 c 2
 933.33203125 187.51171875 l 1
 933.33203125 370.83203125 l 1
 383.328125 370.83203125 l 2
 346.161132812 370.83203125 313.052734375 388.405273438 291.66796875 415.6015625 c 1
291.66796875 207.28125 m 1
 291.66796875 -20.83203125 l 1
 933.33203125 -20.83203125 l 1
 933.33203125 162.51171875 l 1
 383.328125 162.51171875 l 2
 346.161132812 162.51171875 313.052734375 180.084960938 291.66796875 207.28125 c 1
EndSplineSet
EndChar

StartChar: U1245a
Encoding: 305 74842 49
Width: 1212
VWidth: 100
Flags: W
HStem: -45.832 25<220.617 350 375 850 875 1112.5> 787.5 25<195.832 438.33 469.097 529.168 695.832 938.33 969.097 1029.17>
VStem: 100 25<-200 42.4961 73.2617 133.332> 350 25<-20.832 691.883> 850 25<-20.832 691.883>
LayerCount: 2
Fore
SplineSet
195.83203125 812.5 m 1
 529.16796875 812.5 l 1
 529.16796875 787.5 l 1
 443.876953125 787.5 375 718.623046875 375 633.33203125 c 2
 375 -20.83203125 l 1
 850 -20.83203125 l 1
 850 633.33203125 l 2
 850 698.958984375 885.564453125 756.290039062 938.330078125 787.5 c 1
 695.83203125 787.5 l 1
 695.83203125 812.5 l 1
 1029.16796875 812.5 l 1
 1029.16796875 787.5 l 1
 943.876953125 787.5 875 718.623046875 875 633.33203125 c 2
 875 -20.83203125 l 1
 1112.5 -20.83203125 l 1
 1112.5 -45.83203125 l 1
 279.16796875 -45.83203125 l 2
 213.541015625 -45.83203125 156.209960938 -10.2685546875 125 42.49609375 c 1
 125 -200 l 1
 100 -200 l 1
 100 133.33203125 l 1
 125 133.33203125 l 1
 125 48.041015625 193.876953125 -20.83203125 279.16796875 -20.83203125 c 2
 350 -20.83203125 l 1
 350 633.33203125 l 2
 350 698.958984375 385.564453125 756.290039062 438.330078125 787.5 c 1
 195.83203125 787.5 l 1
 195.83203125 812.5 l 1
EndSplineSet
EndChar

StartChar: U1218f
Encoding: 306 74127 50
Width: 1712
VWidth: 100
Flags: W
HStem: -45.832 25<220.617 1612.5> 454.168 25<720.617 1273.99> 787.5 25<112.5 354.996 385.762 688.33 719.097 779.168 1279.17 1521.66 1552.43 1612.5>
VStem: 100 25<-200 42.4961 73.2617 133.332> 266.668 25<133.332 691.883> 600 25<133.332 542.496 573.262 691.883> 1433.33 25<133.332 320.832 330.18 603.156 612.504 691.883>
LayerCount: 2
Fore
SplineSet
112.5 812.5 m 1
 445.83203125 812.5 l 1
 779.16796875 812.5 l 1
 779.16796875 787.5 l 1
 693.876953125 787.5 625 718.623046875 625 633.33203125 c 0
 625 548.041015625 693.876953125 479.16796875 779.16796875 479.16796875 c 2
 1273.99023438 479.16796875 l 1
 1420.328125 625.505859375 l 1
 1433.33203125 612.50390625 l 1
 1433.33203125 633.33203125 l 2
 1433.33203125 698.958984375 1468.89746094 756.290039062 1521.66210938 787.5 c 1
 1279.16796875 787.5 l 1
 1279.16796875 812.5 l 1
 1612.5 812.5 l 1
 1612.5 787.5 l 1
 1527.20898438 787.5 1458.33203125 718.623046875 1458.33203125 633.33203125 c 2
 1458.33203125 133.33203125 l 1
 1433.33203125 133.33203125 l 1
 1433.33203125 320.83203125 l 1
 1420.328125 307.828125 l 1
 1273.99023438 454.16796875 l 1
 779.16796875 454.16796875 l 2
 713.541015625 454.16796875 656.209960938 489.731445312 625 542.49609375 c 1
 625 133.33203125 l 1
 600 133.33203125 l 1
 600 300 l 1
 600 633.33203125 l 2
 600 698.958984375 635.564453125 756.290039062 688.330078125 787.5 c 1
 445.83203125 787.5 l 2
 360.541015625 787.5 291.66796875 718.623046875 291.66796875 633.33203125 c 2
 291.66796875 133.33203125 l 1
 266.66796875 133.33203125 l 1
 266.66796875 633.33203125 l 2
 266.66796875 698.958984375 302.231445312 756.290039062 354.99609375 787.5 c 1
 112.5 787.5 l 1
 112.5 812.5 l 1
1433.33203125 603.15625 m 1
 1296.84570312 466.66796875 l 1
 1433.33203125 330.1796875 l 1
 1433.33203125 603.15625 l 1
100 133.33203125 m 1
 125 133.33203125 l 1
 125 48.041015625 193.876953125 -20.83203125 279.16796875 -20.83203125 c 2
 1612.5 -20.83203125 l 1
 1612.5 -45.83203125 l 1
 279.16796875 -45.83203125 l 2
 213.541015625 -45.83203125 156.209960938 -10.2685546875 125 42.49609375 c 1
 125 -200 l 1
 100 -200 l 1
 100 133.33203125 l 1
EndSplineSet
EndChar

StartChar: U12138
Encoding: 307 74040 51
Width: 1712
VWidth: 100
Flags: W
HStem: -45.832 25<220.617 1612.5> 454.168 25<720.617 1273.99> 787.5 25<112.5 354.996 385.762 688.33 719.097 779.168 1279.17 1521.66 1552.43 1612.5>
VStem: 100 25<-200 42.4961 73.2617 133.332> 266.668 25<133.332 691.883> 600 25<133.332 542.496 573.262 691.883> 1433.33 25<133.332 320.832 330.18 603.156 612.504 691.883>
LayerCount: 2
Fore
SplineSet
112.5 812.5 m 1
 445.83203125 812.5 l 1
 779.16796875 812.5 l 1
 779.16796875 787.5 l 1
 693.876953125 787.5 625 718.623046875 625 633.33203125 c 0
 625 548.041015625 693.876953125 479.16796875 779.16796875 479.16796875 c 2
 1273.99023438 479.16796875 l 1
 1420.328125 625.505859375 l 1
 1433.33203125 612.50390625 l 1
 1433.33203125 633.33203125 l 2
 1433.33203125 698.958984375 1468.89746094 756.290039062 1521.66210938 787.5 c 1
 1279.16796875 787.5 l 1
 1279.16796875 812.5 l 1
 1612.5 812.5 l 1
 1612.5 787.5 l 1
 1527.20898438 787.5 1458.33203125 718.623046875 1458.33203125 633.33203125 c 2
 1458.33203125 133.33203125 l 1
 1433.33203125 133.33203125 l 1
 1433.33203125 320.83203125 l 1
 1420.328125 307.828125 l 1
 1273.99023438 454.16796875 l 1
 779.16796875 454.16796875 l 2
 713.541015625 454.16796875 656.209960938 489.731445312 625 542.49609375 c 1
 625 133.33203125 l 1
 600 133.33203125 l 1
 600 300 l 1
 600 633.33203125 l 2
 600 698.958984375 635.564453125 756.290039062 688.330078125 787.5 c 1
 445.83203125 787.5 l 2
 360.541015625 787.5 291.66796875 718.623046875 291.66796875 633.33203125 c 2
 291.66796875 133.33203125 l 1
 266.66796875 133.33203125 l 1
 266.66796875 633.33203125 l 2
 266.66796875 698.958984375 302.231445312 756.290039062 354.99609375 787.5 c 1
 112.5 787.5 l 1
 112.5 812.5 l 1
1433.33203125 603.15625 m 1
 1296.84570312 466.66796875 l 1
 1433.33203125 330.1796875 l 1
 1433.33203125 603.15625 l 1
100 133.33203125 m 1
 125 133.33203125 l 1
 125 48.041015625 193.876953125 -20.83203125 279.16796875 -20.83203125 c 2
 1612.5 -20.83203125 l 1
 1612.5 -45.83203125 l 1
 279.16796875 -45.83203125 l 2
 213.541015625 -45.83203125 156.209960938 -10.2685546875 125 42.49609375 c 1
 125 -200 l 1
 100 -200 l 1
 100 133.33203125 l 1
EndSplineSet
EndChar

StartChar: U1213d
Encoding: 308 74045 52
Width: 2212
VWidth: 100
Flags: W
HStem: -45.832 25<220.617 1779.17> 454.168 25<720.617 1612.5> 620.832 25<1779.17 1934.91 1958.88 2021.66 2052.43 2112.5> 787.5 25<112.5 354.996 385.762 688.33 719.097 779.168 1784.34 2021.66 2051.88 2112.5>
VStem: 100 25<-200 42.4961 73.2617 133.332> 266.668 25<133.332 691.883> 600 25<133.332 542.496 573.262 691.883> 1933.33 25<-200 525.218 645.832 691.723>
LayerCount: 2
Fore
SplineSet
112.5 812.5 m 1
 445.83203125 812.5 l 1
 779.16796875 812.5 l 1
 779.16796875 787.5 l 1
 693.876953125 787.5 625 718.623046875 625 633.33203125 c 0
 625 548.041015625 693.876953125 479.16796875 779.16796875 479.16796875 c 2
 1612.5 479.16796875 l 1
 1612.5 454.16796875 l 1
 779.16796875 454.16796875 l 2
 713.541015625 454.16796875 656.209960938 489.731445312 625 542.49609375 c 1
 625 133.33203125 l 1
 600 133.33203125 l 1
 600 300 l 1
 600 633.33203125 l 2
 600 698.958984375 635.564453125 756.290039062 688.330078125 787.5 c 1
 445.83203125 787.5 l 2
 360.541015625 787.5 291.66796875 718.623046875 291.66796875 633.33203125 c 2
 291.66796875 133.33203125 l 1
 266.66796875 133.33203125 l 1
 266.66796875 633.33203125 l 2
 266.66796875 698.958984375 302.231445312 756.290039062 354.99609375 787.5 c 1
 112.5 787.5 l 1
 112.5 812.5 l 1
1779.16796875 812.5 m 1
 2112.5 812.5 l 1
 2112.5 787.5 l 1
 2031.421875 787.5 1965.22363281 725.247070312 1958.87695312 645.83203125 c 1
 2112.5 645.83203125 l 1
 2112.5 620.83203125 l 1
 2027.20898438 620.83203125 1958.33203125 551.958984375 1958.33203125 466.66796875 c 2
 1958.33203125 -200 l 1
 1933.33203125 -200 l 1
 1933.33203125 466.66796875 l 2
 1933.33203125 532.294921875 1968.89746094 589.623046875 2021.66210938 620.83203125 c 1
 1779.16796875 620.83203125 l 1
 1779.16796875 645.83203125 l 1
 1933.76953125 645.83203125 l 1
 1937.96289062 706.193359375 1972.27636719 758.2890625 2021.66210938 787.5 c 1
 1784.34375 787.5 l 1
 1630.17773438 633.333984375 l 1
 1788.00585938 475.5078125 l 1
 1779.16796875 466.66796875 l 1
 1788.0078125 457.830078125 l 1
 1630.17773438 300 l 1
 1788.00585938 142.169921875 l 1
 1770.33007812 124.4921875 l 1
 1594.82226562 300 l 1
 1761.49023438 466.666015625 l 1
 1594.82226562 633.33203125 l 1
 1770.33007812 808.837890625 l 1
 1779.16796875 800 l 1
 1779.16796875 812.5 l 1
100 133.33203125 m 1
 125 133.33203125 l 1
 125 48.041015625 193.876953125 -20.83203125 279.16796875 -20.83203125 c 2
 1779.16796875 -20.83203125 l 1
 1779.16796875 -45.83203125 l 1
 279.16796875 -45.83203125 l 2
 213.541015625 -45.83203125 156.209960938 -10.2685546875 125 42.49609375 c 1
 125 -200 l 1
 100 -200 l 1
 100 133.33203125 l 1
EndSplineSet
EndChar

StartChar: U12328
Encoding: 309 74536 53
Width: 1712
VWidth: 100
Flags: W
HStem: -45.832 25<220.777 266.668 291.668 600 625 1433.33> 287.5 25<720.617 1433.33> 787.5 25<112.5 354.996 385.762 688.33 719.097 779.168 1279.17 1521.66 1552.43 1612.5>
VStem: 100 25<-200 42.4961 72.716 133.332> 266.668 25<-200 -45.832 -20.2871 691.883> 600 25<-200 -45.832 -20.832 375.83 406.597 691.883> 1433.33 25<-200 -45.832 -20.832 287.5 312.5 691.883>
LayerCount: 2
Fore
SplineSet
112.5 812.5 m 1
 445.83203125 812.5 l 1
 779.16796875 812.5 l 1
 779.16796875 787.5 l 1
 693.876953125 787.5 625 718.623046875 625 633.33203125 c 2
 625 466.66796875 l 2
 625 381.376953125 693.876953125 312.5 779.16796875 312.5 c 2
 1433.33203125 312.5 l 1
 1433.33203125 633.33203125 l 2
 1433.33203125 698.958984375 1468.89746094 756.290039062 1521.66210938 787.5 c 1
 1279.16796875 787.5 l 1
 1279.16796875 812.5 l 1
 1612.5 812.5 l 1
 1612.5 787.5 l 1
 1527.20898438 787.5 1458.33203125 718.623046875 1458.33203125 633.33203125 c 2
 1458.33203125 -200 l 1
 1433.33203125 -200 l 1
 1433.33203125 -45.83203125 l 1
 625 -45.83203125 l 1
 625 -200 l 1
 600 -200 l 1
 600 -45.83203125 l 1
 291.66796875 -45.83203125 l 1
 291.66796875 -200 l 1
 266.66796875 -200 l 1
 266.66796875 -45.39453125 l 1
 206.306640625 -41.2021484375 154.2109375 -6.8896484375 125 42.49609375 c 1
 125 -200 l 1
 100 -200 l 1
 100 133.33203125 l 1
 125 133.33203125 l 1
 125 52.25390625 187.252929688 -13.9404296875 266.66796875 -20.287109375 c 1
 266.66796875 633.33203125 l 2
 266.66796875 698.958984375 302.231445312 756.290039062 354.99609375 787.5 c 1
 112.5 787.5 l 1
 112.5 812.5 l 1
445.83203125 787.5 m 2
 360.541015625 787.5 291.66796875 718.623046875 291.66796875 633.33203125 c 2
 291.66796875 -20.83203125 l 1
 600 -20.83203125 l 1
 600 133.33203125 l 1
 600 466.66796875 l 1
 600 633.33203125 l 2
 600 698.958984375 635.564453125 756.290039062 688.330078125 787.5 c 1
 445.83203125 787.5 l 2
625 375.830078125 m 1
 625 -20.83203125 l 1
 1433.33203125 -20.83203125 l 1
 1433.33203125 287.5 l 1
 779.16796875 287.5 l 2
 713.541015625 287.5 656.209960938 323.064453125 625 375.830078125 c 1
EndSplineSet
EndChar

StartChar: U12107
Encoding: 310 73991 54
Width: 2212
VWidth: 100
Flags: W
HStem: -45.832 25<220.617 1112.5> 287.5 25<720.617 1600> 620.832 25<719.506 1440.65> 787.5 25<112.5 354.996 385.762 600 625.545 688.33 719.141 779.168 1445.83 1582.32 1617.68 1688.33 1719.1 2021.66 2052.43 2112.5>
VStem: 100 25<-200 42.4961 73.2617 133.332> 266.668 25<133.332 691.883> 600 25<133.332 375.83 406.597 691.198 742.057 787.5> 1600 25<-200 287.5 312.5 461.49 496.848 691.883> 1933.33 25<-200 691.883>
LayerCount: 2
Fore
SplineSet
112.5 812.5 m 1
 445.83203125 812.5 l 1
 779.16796875 812.5 l 1
 779.16796875 787.5 l 1
 724.61328125 787.5 676.810546875 759.294921875 649.416015625 716.666015625 c 1
 676.810546875 674.037109375 724.61328125 645.83203125 779.16796875 645.83203125 c 2
 1440.65429688 645.83203125 l 1
 1582.32421875 787.5 l 1
 1445.83203125 787.5 l 1
 1445.83203125 812.5 l 1
 1779.16796875 812.5 l 1
 2112.5 812.5 l 1
 2112.5 787.5 l 1
 2027.20898438 787.5 1958.33203125 718.623046875 1958.33203125 633.33203125 c 2
 1958.33203125 -200 l 1
 1933.33203125 -200 l 1
 1933.33203125 633.33203125 l 2
 1933.33203125 698.958984375 1968.89746094 756.290039062 2021.66210938 787.5 c 1
 1779.16796875 787.5 l 2
 1693.87695312 787.5 1625 718.623046875 1625 633.33203125 c 2
 1625 -200 l 1
 1600 -200 l 1
 1600 287.5 l 1
 779.16796875 287.5 l 2
 713.541015625 287.5 656.209960938 323.064453125 625 375.830078125 c 1
 625 133.33203125 l 1
 600 133.33203125 l 1
 600 466.66796875 l 1
 600 787.5 l 1
 445.83203125 787.5 l 2
 360.541015625 787.5 291.66796875 718.623046875 291.66796875 633.33203125 c 2
 291.66796875 133.33203125 l 1
 266.66796875 133.33203125 l 1
 266.66796875 633.33203125 l 2
 266.66796875 698.958984375 302.231445312 756.290039062 354.99609375 787.5 c 1
 112.5 787.5 l 1
 112.5 812.5 l 1
625.544921875 787.5 m 1
 626.840820312 771.282226562 630.615234375 755.782226562 636.5234375 741.380859375 c 1
 650.622070312 759.884765625 668.213867188 775.6015625 688.330078125 787.5 c 1
 625.544921875 787.5 l 1
1617.67773438 787.5 m 1
 1463.50976562 633.33203125 l 1
 1600 496.84765625 l 1
 1600 633.33203125 l 2
 1600 698.958984375 1635.56445312 756.290039062 1688.33007812 787.5 c 1
 1617.67773438 787.5 l 1
636.560546875 692.046875 m 1
 629.124023438 673.955078125 625 654.138671875 625 633.33203125 c 2
 625 466.66796875 l 2
 625 381.376953125 693.876953125 312.5 779.16796875 312.5 c 2
 1600 312.5 l 1
 1600 461.490234375 l 1
 1440.65429688 620.83203125 l 1
 779.16796875 620.83203125 l 2
 720.93359375 620.83203125 669.276367188 648.87109375 636.560546875 692.046875 c 1
100 133.33203125 m 1
 125 133.33203125 l 1
 125 48.041015625 193.876953125 -20.83203125 279.16796875 -20.83203125 c 2
 1112.5 -20.83203125 l 1
 1112.5 -45.83203125 l 1
 279.16796875 -45.83203125 l 2
 213.541015625 -45.83203125 156.209960938 -10.2685546875 125 42.49609375 c 1
 125 -200 l 1
 100 -200 l 1
 100 133.33203125 l 1
EndSplineSet
EndChar

StartChar: U12307
Encoding: 311 74503 55
Width: 1721
VWidth: 100
Flags: W
HStem: -45.832 25<220.777 266.668 291.668 600 625 1577.97> 787.5 25<112.5 354.996 385.762 688.33 719.097 779.168>
VStem: 100 25<-200 42.4961 72.716 133.332> 266.668 25<-20.2871 691.883> 600 25<-20.832 691.883> 961.214 24.6677<518.444 621.171>
LayerCount: 2
Fore
SplineSet
112.5 812.5 m 1
 445.83203125 812.5 l 1
 779.16796875 812.5 l 1
 779.16796875 787.5 l 1
 693.876953125 787.5 625 718.623046875 625 633.33203125 c 2
 625 -20.83203125 l 1
 1577.97460938 -20.83203125 l 1
 1025.42773438 439.625 l 2
 983.003773227 474.978437919 961.213959286 525.917264414 961.213959286 577.236838943 c 0
 961.213959286 586.903515687 961.987070227 596.583701517 963.541015625 606.17578125 c 1
 808.298828125 419.884765625 l 1
 789.091796875 435.888671875 l 1
 1002.48632812 691.962890625 l 1
 1021.69335938 675.958984375 l 1
 997.627080219 647.077899835 985.881636256 612.081645364 985.881636256 577.296346929 c 0
 985.881636256 533.160777113 1004.7900652 489.364815338 1041.43164062 458.830078125 c 2
 1620.50195312 -23.728515625 l 1
 1612.5 -33.33203125 l 1
 1612.5 -45.83203125 l 1
 279.16796875 -45.83203125 l 2
 213.541015625 -45.83203125 156.209960938 -10.2685546875 125 42.49609375 c 1
 125 -200 l 1
 100 -200 l 1
 100 133.33203125 l 1
 125 133.33203125 l 1
 125 52.25390625 187.252929688 -13.9404296875 266.66796875 -20.287109375 c 1
 266.66796875 633.33203125 l 2
 266.66796875 698.958984375 302.231445312 756.290039062 354.99609375 787.5 c 1
 112.5 787.5 l 1
 112.5 812.5 l 1
445.83203125 787.5 m 2
 360.541015625 787.5 291.66796875 718.623046875 291.66796875 633.33203125 c 2
 291.66796875 -20.83203125 l 1
 600 -20.83203125 l 1
 600 633.33203125 l 2
 600 698.958984375 635.564453125 756.290039062 688.330078125 787.5 c 1
 445.83203125 787.5 l 2
EndSplineSet
EndChar

StartChar: U120e2
Encoding: 312 73954 56
Width: 1712
VWidth: 100
Flags: W
HStem: -4.16797 25<220.777 266.668 291.668 600 625 1433.33> 204.168 25<112.5 354.996 385.762 688.33 719.097 779.168> 350 25<614.582 766.668 791.668 973.609> 475 25<614.582 792.102 813.503 821.516 845.002 973.609> 537.5 25<612.5 854.996 886.326 945.832> 620.832 25<220.617 1433.33> 787.5 25<1279.17 1521.66 1552.43 1612.5>
VStem: 100 25<-158.332 84.1621 114.383 175 466.668 709.162 739.929 800> 266.668 25<-200 -4.16797 21.377 108.551> 572.223 25<300 369.314 392.218 494.314 517.218 550> 600 25<-200 -4.16797 20.832 108.551> 766.668 25<300 350 375 443.05> 1433.33 25<-200 -4.16797 20.832 620.832 645.832 691.909>
LayerCount: 2
Fore
SplineSet
1279.16796875 812.5 m 1
 1612.5 812.5 l 1
 1612.5 787.5 l 1
 1527.20898438 787.5 1458.33203125 718.623046875 1458.33203125 633.33203125 c 2
 1458.33203125 -200 l 1
 1433.33203125 -200 l 1
 1433.33203125 -4.16796875 l 1
 625 -4.16796875 l 1
 625 -200 l 1
 600 -200 l 1
 600 -4.16796875 l 1
 291.66796875 -4.16796875 l 1
 291.66796875 -200 l 1
 266.66796875 -200 l 1
 266.66796875 -3.73046875 l 1
 206.306640625 0.462890625 154.2109375 34.7763671875 125 84.162109375 c 1
 125 -158.33203125 l 1
 100 -158.33203125 l 1
 100 175 l 1
 125 175 l 1
 125 93.921875 187.252929688 27.7236328125 266.66796875 21.376953125 c 1
 266.66796875 50 l 2
 266.66796875 115.626953125 302.231445312 172.958007812 354.99609375 204.16796875 c 1
 112.5 204.16796875 l 1
 112.5 229.16796875 l 1
 445.83203125 229.16796875 l 1
 779.16796875 229.16796875 l 1
 779.16796875 204.16796875 l 1
 693.876953125 204.16796875 625 135.291015625 625 50 c 2
 625 20.83203125 l 1
 1433.33203125 20.83203125 l 1
 1433.33203125 620.83203125 l 1
 279.16796875 620.83203125 l 2
 213.541015625 620.83203125 156.209960938 656.396484375 125 709.162109375 c 1
 125 466.66796875 l 1
 100 466.66796875 l 1
 100 800 l 1
 125 800 l 1
 125 714.708984375 193.876953125 645.83203125 279.16796875 645.83203125 c 2
 1433.76953125 645.83203125 l 1
 1437.96289062 706.193359375 1472.27636719 758.2890625 1521.66210938 787.5 c 1
 1279.16796875 787.5 l 1
 1279.16796875 812.5 l 1
612.5 562.5 m 1
 945.83203125 562.5 l 1
 945.83203125 537.5 l 1
 907.227539062 537.5 872.015625 523.356445312 845.001953125 500 c 1
 973.609375 500 l 1
 973.609375 475 l 1
 821.798828125 475 l 1
 802.864257812 449.39453125 791.66796875 417.701171875 791.66796875 383.33203125 c 2
 791.66796875 375 l 1
 973.609375 375 l 1
 973.609375 350 l 1
 791.66796875 350 l 1
 791.66796875 300 l 1
 766.66796875 300 l 1
 766.66796875 350 l 1
 647.22265625 350 l 2
 628.026367188 350 610.51953125 357.357421875 597.22265625 369.314453125 c 1
 597.22265625 300 l 1
 572.22265625 300 l 1
 572.22265625 425 l 1
 572.22265625 550 l 1
 597.22265625 550 l 1
 597.22265625 522.235351562 619.458007812 500 647.22265625 500 c 2
 810.1953125 500 l 1
 822.96875 514.784179688 838.083984375 527.49609375 854.99609375 537.5 c 1
 612.5 537.5 l 1
 612.5 562.5 l 1
597.22265625 494.314453125 m 1
 597.22265625 425 l 2
 597.22265625 397.235351562 619.458007812 375 647.22265625 375 c 2
 766.66796875 375 l 1
 766.66796875 383.33203125 l 2
 766.66796875 416.854492188 775.990234375 448.182617188 792.1015625 475 c 1
 647.22265625 475 l 2
 628.026367188 475 610.51953125 482.357421875 597.22265625 494.314453125 c 1
445.83203125 204.16796875 m 2
 360.541015625 204.16796875 291.66796875 135.291992188 291.66796875 50 c 2
 291.66796875 20.83203125 l 1
 600 20.83203125 l 1
 600 50 l 2
 600 115.626953125 635.564453125 172.958007812 688.330078125 204.16796875 c 1
 445.83203125 204.16796875 l 2
EndSplineSet
EndChar

StartChar: U121c5
Encoding: 313 74181 57
Width: 1212
VWidth: 100
Flags: W
HStem: -45.832 25<220.617 933.332> 287.5 25<362.5 516.668 541.668 604.996 635.762 695.832> 520.832 25<212.5 351.258 377.225 562.371 588.338 773.479 799.447 845.832> 620.832 25<220.617 933.332> 787.5 25<779.168 1021.66 1052.43 1112.5>
VStem: 100 25<-200 42.4961 73.2617 133.332 466.668 709.162 739.929 800> 305.555 25<300 474.162> 516.668 25<66.668 191.883 312.5 474.162> 727.777 25<300 474.162> 933.332 25<-200 -45.832 -20.832 620.832 645.832 691.909>
LayerCount: 2
Fore
SplineSet
779.16796875 812.5 m 1
 1112.5 812.5 l 1
 1112.5 787.5 l 1
 1027.20898438 787.5 958.33203125 718.623046875 958.33203125 633.33203125 c 2
 958.33203125 -200 l 1
 933.33203125 -200 l 1
 933.33203125 -45.83203125 l 1
 279.16796875 -45.83203125 l 2
 213.541015625 -45.83203125 156.209960938 -10.2685546875 125 42.49609375 c 1
 125 -200 l 1
 100 -200 l 1
 100 133.33203125 l 1
 125 133.33203125 l 1
 125 48.041015625 193.876953125 -20.83203125 279.16796875 -20.83203125 c 2
 933.33203125 -20.83203125 l 1
 933.33203125 620.83203125 l 1
 279.16796875 620.83203125 l 2
 213.541015625 620.83203125 156.209960938 656.396484375 125 709.162109375 c 1
 125 466.66796875 l 1
 100 466.66796875 l 1
 100 800 l 1
 125 800 l 1
 125 714.708984375 193.876953125 645.83203125 279.16796875 645.83203125 c 2
 933.76953125 645.83203125 l 1
 937.962890625 706.193359375 972.276367188 758.2890625 1021.66210938 787.5 c 1
 779.16796875 787.5 l 1
 779.16796875 812.5 l 1
212.5 545.83203125 m 1
 423.609375 545.83203125 l 1
 634.72265625 545.83203125 l 1
 845.83203125 545.83203125 l 1
 845.83203125 520.83203125 l 1
 794.290039062 520.83203125 752.77734375 479.318359375 752.77734375 427.77734375 c 2
 752.77734375 300 l 1
 727.77734375 300 l 1
 727.77734375 427.77734375 l 2
 727.77734375 465.567382812 745.733398438 499.203125 773.478515625 520.83203125 c 1
 634.72265625 520.83203125 l 2
 583.180664062 520.83203125 541.66796875 479.318359375 541.66796875 427.77734375 c 2
 541.66796875 312.5 l 1
 695.83203125 312.5 l 1
 695.83203125 287.5 l 1
 610.541015625 287.5 541.66796875 218.623046875 541.66796875 133.33203125 c 2
 541.66796875 66.66796875 l 1
 516.66796875 66.66796875 l 1
 516.66796875 133.33203125 l 2
 516.66796875 198.958984375 552.231445312 256.290039062 604.99609375 287.5 c 1
 362.5 287.5 l 1
 362.5 312.5 l 1
 516.66796875 312.5 l 1
 516.66796875 427.77734375 l 2
 516.66796875 465.567382812 534.625976562 499.203125 562.37109375 520.83203125 c 1
 423.609375 520.83203125 l 2
 372.069335938 520.83203125 330.5546875 479.318359375 330.5546875 427.77734375 c 2
 330.5546875 300 l 1
 305.5546875 300 l 1
 305.5546875 427.77734375 l 2
 305.5546875 465.567382812 323.512695312 499.203125 351.2578125 520.83203125 c 1
 212.5 520.83203125 l 1
 212.5 545.83203125 l 1
EndSplineSet
EndChar

StartChar: U120b7
Encoding: 314 73911 58
Width: 1712
VWidth: 100
Flags: W
HStem: 204.168 25<296.994 600.672 630.326 1433.33> 343.055 25<130.326 354.994 386.137 688.33 719.473 779.168> 620.832 25<665.059 1433.33> 787.5 25<1279.17 1521.66 1552.43 1612.5>
VStem: 100 25<50 292.496 368.29 383.332> 266.668 25<-200 204.168 229.365 247.155> 544.445 25<466.668 709.162 739.929 800> 600 25<-200 204.168 229.168 247.155> 1433.33 25<-200 204.168 229.168 620.832 645.832 691.909>
LayerCount: 2
Fore
SplineSet
1279.16796875 812.5 m 1
 1612.5 812.5 l 1
 1612.5 787.5 l 1
 1527.20898438 787.5 1458.33203125 718.623046875 1458.33203125 633.33203125 c 2
 1458.33203125 -200 l 1
 1433.33203125 -200 l 1
 1433.33203125 204.16796875 l 1
 625.755859375 204.16796875 l 1
 625.263671875 199.142578125 625 194.047851562 625 188.890625 c 2
 625 -200 l 1
 600 -200 l 1
 600 188.890625 l 2
 600 194.0390625 600.243164062 199.129882812 600.671875 204.16796875 c 1
 292.423828125 204.16796875 l 1
 291.931640625 199.142578125 291.66796875 194.047851562 291.66796875 188.890625 c 2
 291.66796875 -200 l 1
 266.66796875 -200 l 1
 266.66796875 188.890625 l 2
 266.66796875 194.171875 266.921875 199.393554688 267.373046875 204.55859375 c 1
 206.712890625 208.532226562 154.325195312 242.918945312 125 292.49609375 c 1
 125 50 l 1
 100 50 l 1
 100 383.33203125 l 1
 125 383.33203125 l 1
 125 378.174804688 125.263671875 373.080078125 125.755859375 368.0546875 c 1
 445.83203125 368.0546875 l 1
 779.16796875 368.0546875 l 1
 779.16796875 343.0546875 l 1
 707.822265625 343.0546875 647.993164062 294.849609375 630.326171875 229.16796875 c 1
 1433.33203125 229.16796875 l 1
 1433.33203125 620.83203125 l 1
 723.609375 620.83203125 l 2
 657.982421875 620.83203125 600.654296875 656.397460938 569.4453125 709.162109375 c 1
 569.4453125 466.66796875 l 1
 544.4453125 466.66796875 l 1
 544.4453125 800 l 1
 569.4453125 800 l 1
 569.4453125 714.708984375 638.318359375 645.83203125 723.609375 645.83203125 c 2
 1433.76953125 645.83203125 l 1
 1437.96289062 706.193359375 1472.27636719 758.2890625 1521.66210938 787.5 c 1
 1279.16796875 787.5 l 1
 1279.16796875 812.5 l 1
130.326171875 343.0546875 m 1
 147.340820312 279.798828125 203.45703125 232.75390625 271.310546875 229.365234375 c 1
 282.547851562 277.662109375 313.42578125 318.466796875 354.994140625 343.0546875 c 1
 130.326171875 343.0546875 l 1
445.83203125 343.0546875 m 2
 374.486328125 343.0546875 314.661132812 294.849609375 296.994140625 229.16796875 c 1
 604.599609375 229.16796875 l 1
 615.799804688 277.55078125 646.704101562 318.43359375 688.330078125 343.0546875 c 1
 445.83203125 343.0546875 l 2
EndSplineSet
EndChar

StartChar: U120bc
Encoding: 315 73916 59
Width: 1712
VWidth: 100
Flags: W
HStem: -4.16797 25<220.777 266.668 291.668 600 625 1433.33> 204.168 25<112.5 354.996 385.762 688.33 719.097 779.168> 412.5 25<603.106 641.668 727.887 1185.73> 537.5 25<1029.17 1271.66 1302.43 1362.5> 620.832 25<665.059 1433.33> 787.5 25<1279.17 1521.66 1552.43 1612.5>
VStem: 100 25<-158.332 84.1621 114.383 175> 266.668 25<-200 -4.16797 21.377 108.551> 516.668 25<300 471.211 525.497 550> 544.445 25<466.668 471.152 525.121 709.162 739.929 800> 600 25<-200 -4.16797 20.832 108.551> 641.668 25<300 414.57 438.203 471.211 498.719 550> 1183.33 25<300 412.055> 1433.33 25<-200 -4.16797 20.832 620.832 645.832 691.909>
LayerCount: 2
Fore
SplineSet
1279.16796875 812.5 m 1
 1612.5 812.5 l 1
 1612.5 787.5 l 1
 1527.20898438 787.5 1458.33203125 718.623046875 1458.33203125 633.33203125 c 2
 1458.33203125 -200 l 1
 1433.33203125 -200 l 1
 1433.33203125 -4.16796875 l 1
 625 -4.16796875 l 1
 625 -200 l 1
 600 -200 l 1
 600 -4.16796875 l 1
 291.66796875 -4.16796875 l 1
 291.66796875 -200 l 1
 266.66796875 -200 l 1
 266.66796875 -3.73046875 l 1
 206.306640625 0.462890625 154.2109375 34.7763671875 125 84.162109375 c 1
 125 -158.33203125 l 1
 100 -158.33203125 l 1
 100 175 l 1
 125 175 l 1
 125 93.921875 187.252929688 27.7236328125 266.66796875 21.376953125 c 1
 266.66796875 50 l 2
 266.66796875 115.626953125 302.231445312 172.958007812 354.99609375 204.16796875 c 1
 112.5 204.16796875 l 1
 112.5 229.16796875 l 1
 445.83203125 229.16796875 l 1
 779.16796875 229.16796875 l 1
 779.16796875 204.16796875 l 1
 693.876953125 204.16796875 625 135.291015625 625 50 c 2
 625 20.83203125 l 1
 1433.33203125 20.83203125 l 1
 1433.33203125 620.83203125 l 1
 723.609375 620.83203125 l 2
 657.982421875 620.83203125 600.654296875 656.397460938 569.4453125 709.162109375 c 1
 569.4453125 475.912109375 l 1
 587.470703125 455.302734375 612.903320312 441.36328125 641.66796875 438.203125 c 1
 641.66796875 550 l 1
 666.66796875 550 l 1
 666.66796875 487.720703125 716.888671875 437.5 779.16796875 437.5 c 2
 1191.74609375 437.5 l 1
 1205.2421875 479.788085938 1234.08203125 515.271484375 1271.66210938 537.5 c 1
 1029.16796875 537.5 l 1
 1029.16796875 562.5 l 1
 1362.5 562.5 l 1
 1362.5 537.5 l 1
 1277.20898438 537.5 1208.33203125 468.623046875 1208.33203125 383.33203125 c 2
 1208.33203125 300 l 1
 1183.33203125 300 l 1
 1183.33203125 383.33203125 l 2
 1183.33203125 393.266601562 1184.16015625 403.0078125 1185.7265625 412.5 c 1
 779.16796875 412.5 l 2
 732.682617188 412.5 691.5703125 435.772460938 666.66796875 471.2109375 c 1
 666.66796875 300 l 1
 641.66796875 300 l 1
 641.66796875 413.130859375 l 1
 602.35546875 416.708984375 567.82421875 436.93359375 545.0625 466.66796875 c 1
 544.4453125 466.66796875 l 1
 544.4453125 467.4921875 l 2
 543.513671875 468.727539062 542.55859375 469.943359375 541.66796875 471.2109375 c 1
 541.66796875 300 l 1
 516.66796875 300 l 1
 516.66796875 550 l 1
 541.66796875 550 l 1
 541.66796875 541.442382812 542.647460938 533.125 544.4453125 525.12109375 c 1
 544.4453125 800 l 1
 569.4453125 800 l 1
 569.4453125 714.708984375 638.318359375 645.83203125 723.609375 645.83203125 c 2
 1433.76953125 645.83203125 l 1
 1437.96289062 706.193359375 1472.27636719 758.2890625 1521.66210938 787.5 c 1
 1279.16796875 787.5 l 1
 1279.16796875 812.5 l 1
445.83203125 204.16796875 m 2
 360.541015625 204.16796875 291.66796875 135.291992188 291.66796875 50 c 2
 291.66796875 20.83203125 l 1
 600 20.83203125 l 1
 600 50 l 2
 600 115.626953125 635.564453125 172.958007812 688.330078125 204.16796875 c 1
 445.83203125 204.16796875 l 2
EndSplineSet
EndChar

StartChar: U120e1
Encoding: 316 73953 60
Width: 1712
VWidth: 100
Flags: W
HStem: -4.16797 25<220.777 266.668 291.668 600 625 1433.33> 204.168 25<112.5 354.996 385.762 688.33 719.097 779.168> 290.742 9.25781<1220.37 1221.01> 295.371 4.62891<442.602 442.748 701.859 702.006 961.113 961.26> 337.492 25<218.282 449.023> 412.5 25<468.854 504.41 533.885 704.787 728.111 763.67 793.143 964.041 987.365 1022.93 1052.4 1223.31 1246.04 1282.18 1322.17 1362.5> 437.48 25<218.282 325.473> 537.5 25<325.473 504.41 533.366 763.67 792.625 1022.93 1051.88 1282.18 1309.88 1362.5> 620.832 25<220.617 1433.33> 787.5 25<1279.17 1521.66 1552.43 1612.5>
VStem: 100 25<-158.332 84.1621 114.383 175 466.668 709.162 739.929 800> 183.332 25<300 350.166 372.181 450.154 472.169 499.973> 266.668 25<-200 -4.16797 21.377 108.551> 442.602 25<295.371 335.704> 600 25<-200 -4.16797 20.832 108.551> 701.859 25<295.371 346.217 437.5 472.462> 961.113 25<295.371 346.216 437.5 472.462> 1220.37 25<290.742 300 432.871 471.636> 1433.33 25<-200 -4.16797 20.832 620.832 645.832 691.909>
LayerCount: 2
Fore
SplineSet
1279.16796875 812.5 m 1xc9ffe0
 1612.5 812.5 l 1
 1612.5 787.5 l 1
 1527.20898438 787.5 1458.33203125 718.623046875 1458.33203125 633.33203125 c 2
 1458.33203125 -200 l 1
 1433.33203125 -200 l 1
 1433.33203125 -4.16796875 l 1
 625 -4.16796875 l 1
 625 -200 l 1
 600 -200 l 1
 600 -4.16796875 l 1
 291.66796875 -4.16796875 l 1
 291.66796875 -200 l 1
 266.66796875 -200 l 1
 266.66796875 -3.73046875 l 1
 206.306640625 0.462890625 154.2109375 34.7763671875 125 84.162109375 c 1
 125 -158.33203125 l 1
 100 -158.33203125 l 1
 100 175 l 1
 125 175 l 1
 125 93.921875 187.252929688 27.7236328125 266.66796875 21.376953125 c 1
 266.66796875 50 l 2
 266.66796875 115.626953125 302.231445312 172.958007812 354.99609375 204.16796875 c 1
 112.5 204.16796875 l 1
 112.5 229.16796875 l 1
 445.83203125 229.16796875 l 1
 779.16796875 229.16796875 l 1
 779.16796875 204.16796875 l 1
 693.876953125 204.16796875 625 135.291015625 625 50 c 2
 625 20.83203125 l 1
 1433.33203125 20.83203125 l 1
 1433.33203125 620.83203125 l 1
 279.16796875 620.83203125 l 2
 213.541015625 620.83203125 156.209960938 656.396484375 125 709.162109375 c 1
 125 466.66796875 l 1
 100 466.66796875 l 1
 100 800 l 1
 125 800 l 1
 125 714.708984375 193.876953125 645.83203125 279.16796875 645.83203125 c 2
 1433.76953125 645.83203125 l 1
 1437.96289062 706.193359375 1472.27636719 758.2890625 1521.66210938 787.5 c 1
 1279.16796875 787.5 l 1
 1279.16796875 812.5 l 1xc9ffe0
325.47265625 562.5 m 1
 584.73046875 562.5 l 1
 843.98828125 562.5 l 1
 1103.2421875 562.5 l 1
 1362.5 562.5 l 1
 1362.5 537.5 l 1
 1301.890625 537.5 1252.25 491.797851562 1246.03710938 432.87109375 c 1
 1362.5 432.87109375 l 1
 1362.5 407.87109375 l 1
 1297.66601562 407.87109375 1245.37109375 355.580078125 1245.37109375 290.7421875 c 1
 1220.37109375 290.7421875 l 1
 1220.37109375 300 l 1
 1220.67773438 300 l 1xebffe0
 1223.57421875 344.725585938 1247.29101562 383.86328125 1282.18359375 407.87109375 c 1
 1103.2421875 407.87109375 l 1
 1103.2421875 412.5 l 1
 1038.40820312 412.5 986.11328125 360.208984375 986.11328125 295.37109375 c 1
 961.11328125 295.37109375 l 1
 961.11328125 300 l 1
 961.259765625 300 l 1
 962.768554688 346.641601562 986.838867188 387.670898438 1022.92578125 412.5 c 1
 843.98828125 412.5 l 2
 779.150390625 412.5 726.859375 360.209960938 726.859375 295.37109375 c 1
 701.859375 295.37109375 l 1
 701.859375 300 l 1
 702.005859375 300 l 1
 703.514648438 346.641601562 727.583007812 387.670898438 763.669921875 412.5 c 1
 584.73046875 412.5 l 2xddffe0
 519.891601562 412.5 467.6015625 360.209960938 467.6015625 295.37109375 c 1
 442.6015625 295.37109375 l 1
 442.6015625 300 l 1
 442.748046875 300 l 1
 443.168945312 313.010742188 445.3125 325.586914062 449.0234375 337.4921875 c 1
 245.828125 337.4921875 l 2
 231.771484375 337.4921875 218.803710938 342.252929688 208.33203125 350.166015625 c 1
 208.33203125 300 l 1
 183.33203125 300 l 1
 183.33203125 399.98828125 l 1
 183.33203125 499.97265625 l 1
 208.33203125 499.97265625 l 1
 208.33203125 479.119140625 224.969726562 462.48046875 245.828125 462.48046875 c 2
 449.021484375 462.48046875 l 1xdbffe0
 458.612304688 493.258789062 478.38671875 519.594726562 504.41015625 537.5 c 1
 325.47265625 537.5 l 1
 325.47265625 562.5 l 1
584.73046875 537.5 m 2
 525.713867188 537.5 477.109375 494.173828125 468.853515625 437.5 c 1
 584.73046875 437.5 l 1
 702.912109375 437.5 l 1xcdffe0
 707.922851562 478.926757812 730.840820312 514.912109375 763.669921875 537.5 c 1
 584.73046875 537.5 l 2
843.98828125 537.5 m 2
 784.97265625 537.5 736.3671875 494.173828125 728.111328125 437.5 c 1
 843.98828125 437.5 l 1
 962.166015625 437.5 l 1
 967.177734375 478.926757812 990.096679688 514.912109375 1022.92578125 537.5 c 1
 843.98828125 537.5 l 2
1103.2421875 537.5 m 2
 1044.22949219 537.5 995.62109375 494.173828125 987.365234375 437.5 c 1
 1103.2421875 437.5 l 1
 1103.2421875 432.87109375 l 1
 1220.984375 432.87109375 l 1
 1224.79492188 476.236328125 1248.140625 514.077148438 1282.18359375 537.5 c 1
 1103.2421875 537.5 l 2
208.33203125 450.154296875 m 1
 208.33203125 399.98828125 l 2
 208.33203125 379.129882812 224.969726562 362.4921875 245.828125 362.4921875 c 2
 455.08984375 362.4921875 l 1
 455.08984375 353.466796875 l 1
 465.859375 377.359375 483.018554688 397.78125 504.41015625 412.5 c 1
 325.47265625 412.5 l 1xcdffe0
 325.47265625 437.48046875 l 1
 245.828125 437.48046875 l 2xcbffe0
 231.771484375 437.48046875 218.803710938 442.241210938 208.33203125 450.154296875 c 1
445.83203125 204.16796875 m 2
 360.541015625 204.16796875 291.66796875 135.291992188 291.66796875 50 c 2
 291.66796875 20.83203125 l 1
 600 20.83203125 l 1
 600 50 l 2
 600 115.626953125 635.564453125 172.958007812 688.330078125 204.16796875 c 1
 445.83203125 204.16796875 l 2
EndSplineSet
EndChar

StartChar: U120e5
Encoding: 317 73957 61
Width: 1212
VWidth: 100
Flags: W
HStem: -45.8125 25<220.576 266.645 292.188 599.938 625.48 933.332> 120.875 25<125.543 354.959 385.172 688.252 718.464 779.082> 620.875 25<220.592 933.332> 787.5 25<779.168 1021.66 1052.43 1112.5>
VStem: 100 25<-199.98 42.5156 466.75 709.174 739.946 800> 266.645 25<-200 -45.8125 -20.3027 25.0843> 599.938 25<-200 -45.8125 -20.8125 25.0843> 933.332 25<-200 -45.8125 -20.8125 620.875 645.875 691.937>
LayerCount: 2
Fore
SplineSet
779.16796875 812.5 m 1
 1112.5 812.5 l 1
 1112.5 787.5 l 1
 1027.20898438 787.5 958.33203125 718.623046875 958.33203125 633.33203125 c 2
 958.33203125 -200 l 1
 933.33203125 -200 l 1
 933.33203125 -45.8125 l 1
 624.9375 -45.8125 l 1
 624.9375 -200 l 1
 599.9375 -200 l 1
 599.9375 -45.8125 l 1
 291.64453125 -45.8125 l 1
 291.64453125 -200 l 1
 266.64453125 -200 l 1
 266.64453125 -45.373046875 l 1
 206.293945312 -41.1728515625 154.208007812 -6.8642578125 125 42.515625 c 1
 125 -199.98046875 l 1
 100 -199.98046875 l 1
 100 133.35546875 l 1
 112.5 133.35546875 l 1
 112.5 145.875 l 1
 445.7890625 145.875 l 1
 779.08203125 145.875 l 1
 779.08203125 120.875 l 1
 698 120.875 631.806640625 58.611328125 625.48046875 -20.8125 c 1
 933.33203125 -20.8125 l 1
 933.33203125 620.875 l 1
 279.125 620.875 l 2
 213.518554688 620.875 156.204101562 656.427734375 125 709.173828125 c 1
 125 466.75 l 1
 100 466.75 l 1
 100 800 l 1
 125 800 l 1
 125 714.732421875 193.857421875 645.875 279.125 645.875 c 2
 933.7734375 645.875 l 1
 937.979492188 706.217773438 972.288085938 758.295898438 1021.66210938 787.5 c 1
 779.16796875 787.5 l 1
 779.16796875 812.5 l 1
761.994140625 542.212890625 m 1
 779.669921875 524.537109375 l 1
 713.5078125 458.375 l 1
 779.669921875 392.212890625 l 1
 770.83203125 383.375 l 1
 779.669921875 374.537109375 l 1
 713.5078125 308.375 l 1
 779.669921875 242.212890625 l 1
 761.994140625 224.537109375 l 1
 678.154296875 308.375 l 1
 753.15625 383.375 l 1
 678.154296875 458.375 l 1
 761.994140625 542.212890625 l 1
836.994140625 542.212890625 m 1
 854.669921875 524.537109375 l 1
 788.5078125 458.375 l 1
 854.669921875 392.212890625 l 1
 845.83203125 383.375 l 1
 854.669921875 374.537109375 l 1
 788.5078125 308.375 l 1
 854.669921875 242.212890625 l 1
 836.994140625 224.537109375 l 1
 753.154296875 308.375 l 1
 828.15625 383.375 l 1
 753.154296875 458.375 l 1
 836.994140625 542.212890625 l 1
125.54296875 120.875 m 1
 131.563476562 45.423828125 191.61328125 -14.490234375 267.12109375 -20.302734375 c 1
 271.458984375 39.849609375 305.709960938 91.7431640625 354.958984375 120.875 c 1
 125.54296875 120.875 l 1
445.7890625 120.875 m 2
 364.708007812 120.875 298.513671875 58.611328125 292.1875 -20.8125 c 1
 600.37109375 -20.8125 l 1
 604.55078125 39.5576171875 638.86328125 91.66015625 688.251953125 120.875 c 1
 445.7890625 120.875 l 2
EndSplineSet
EndChar

StartChar: U120cc
Encoding: 318 73932 62
Width: 1712
VWidth: 100
Flags: W
HStem: -4.16797 25<220.777 266.668 291.668 600 625 1433.33> 204.168 25<112.5 354.996 385.762 688.33 719.097 779.168> 258.332 41.668<1031.83 1042.7> 412.5 25<877.668 1031.83 1056.83 1120.16 1150.93 1211> 537.5 25<726.168 865.762 891.646 1077.87 1103.76 1289.98 1315.87 1362.5> 620.832 25<220.617 1433.33> 787.5 25<1279.17 1521.66 1552.43 1612.5>
VStem: 100 25<-158.332 84.1621 114.383 175 466.668 709.162 739.929 800> 266.668 25<-200 -4.16797 21.377 108.551> 600 25<-200 -4.16797 20.832 108.551> 819.723 25<425 490.578> 1031.83 25<258.332 300 437.5 490.578> 1243.95 25<425 490.578> 1433.33 25<-200 -4.16797 20.832 620.832 645.832 691.909>
LayerCount: 2
Fore
SplineSet
1279.16796875 812.5 m 1
 1612.5 812.5 l 1
 1612.5 787.5 l 1
 1527.20898438 787.5 1458.33203125 718.623046875 1458.33203125 633.33203125 c 2
 1458.33203125 -200 l 1
 1433.33203125 -200 l 1
 1433.33203125 -4.16796875 l 1
 625 -4.16796875 l 1
 625 -200 l 1
 600 -200 l 1
 600 -4.16796875 l 1
 291.66796875 -4.16796875 l 1
 291.66796875 -200 l 1
 266.66796875 -200 l 1
 266.66796875 -3.73046875 l 1
 206.306640625 0.462890625 154.2109375 34.7763671875 125 84.162109375 c 1
 125 -158.33203125 l 1
 100 -158.33203125 l 1
 100 175 l 1
 125 175 l 1
 125 93.921875 187.252929688 27.7236328125 266.66796875 21.376953125 c 1
 266.66796875 50 l 2
 266.66796875 115.626953125 302.231445312 172.958007812 354.99609375 204.16796875 c 1
 112.5 204.16796875 l 1
 112.5 229.16796875 l 1
 445.83203125 229.16796875 l 1
 779.16796875 229.16796875 l 1
 779.16796875 204.16796875 l 1
 693.876953125 204.16796875 625 135.291015625 625 50 c 2
 625 20.83203125 l 1
 1433.33203125 20.83203125 l 1
 1433.33203125 620.83203125 l 1
 279.16796875 620.83203125 l 2
 213.541015625 620.83203125 156.209960938 656.396484375 125 709.162109375 c 1
 125 466.66796875 l 1
 100 466.66796875 l 1
 100 800 l 1
 125 800 l 1
 125 714.708984375 193.876953125 645.83203125 279.16796875 645.83203125 c 2
 1433.76953125 645.83203125 l 1
 1437.96289062 706.193359375 1472.27636719 758.2890625 1521.66210938 787.5 c 1
 1279.16796875 787.5 l 1
 1279.16796875 812.5 l 1
726.16796875 562.5 m 1
 938.27734375 562.5 l 1
 1150.390625 562.5 l 1
 1362.5 562.5 l 1
 1362.5 537.5 l 1
 1310.68164062 537.5 1268.9453125 495.760742188 1268.9453125 443.9453125 c 2
 1268.9453125 425 l 1
 1243.9453125 425 l 1
 1243.9453125 443.9453125 l 2
 1243.9453125 481.958007812 1262.04003906 515.783203125 1289.98242188 537.5 c 1
 1150.390625 537.5 l 2
 1098.57128906 537.5 1056.83203125 495.759765625 1056.83203125 443.9453125 c 2
 1056.83203125 437.5 l 1
 1211 437.5 l 1
 1211 412.5 l 1
 1125.70898438 412.5 1056.83203125 343.623046875 1056.83203125 258.33203125 c 1
 1031.83203125 258.33203125 l 1
 1031.83203125 300 l 1
 1036.7421875 300 l 1
 1048.20800781 347.778320312 1078.93359375 388.11328125 1120.16210938 412.5 c 1
 877.66796875 412.5 l 1
 877.66796875 437.5 l 1
 1031.83203125 437.5 l 1
 1031.83203125 443.9453125 l 2
 1031.83203125 481.958984375 1049.92773438 515.783203125 1077.87109375 537.5 c 1
 938.27734375 537.5 l 2
 886.463867188 537.5 844.72265625 495.759765625 844.72265625 443.9453125 c 2
 844.72265625 425 l 1
 819.72265625 425 l 1
 819.72265625 443.9453125 l 2
 819.72265625 481.958984375 837.819335938 515.783203125 865.76171875 537.5 c 1
 726.16796875 537.5 l 1
 726.16796875 562.5 l 1
445.83203125 204.16796875 m 2
 360.541015625 204.16796875 291.66796875 135.291992188 291.66796875 50 c 2
 291.66796875 20.83203125 l 1
 600 20.83203125 l 1
 600 50 l 2
 600 115.626953125 635.564453125 172.958007812 688.330078125 204.16796875 c 1
 445.83203125 204.16796875 l 2
EndSplineSet
EndChar

StartChar: U120f7
Encoding: 319 73975 63
Width: 1712
VWidth: 100
Flags: W
HStem: -4.16797 25<220.777 266.668 291.668 600 625 933.332 958.332 1433.33> 204.168 25<112.5 354.996 385.762 688.33 719.097 1021.66 1052.43 1112.5> 620.832 25<665.059 1433.33> 787.5 25<1279.17 1521.66 1552.43 1612.5>
VStem: 100 25<-158.332 84.1621 114.383 175> 266.668 25<-200 -4.16797 21.377 108.551> 544.445 25<466.668 709.162 739.929 800> 600 25<-200 -4.16797 20.832 108.551> 933.332 25<-200 -4.16797 20.832 108.551> 1433.33 25<-200 -4.16797 20.832 620.832 645.832 691.909>
LayerCount: 2
Fore
SplineSet
1279.16796875 812.5 m 1
 1612.5 812.5 l 1
 1612.5 787.5 l 1
 1527.20898438 787.5 1458.33203125 718.623046875 1458.33203125 633.33203125 c 2
 1458.33203125 -200 l 1
 1433.33203125 -200 l 1
 1433.33203125 -4.16796875 l 1
 958.33203125 -4.16796875 l 1
 958.33203125 -200 l 1
 933.33203125 -200 l 1
 933.33203125 -4.16796875 l 1
 625 -4.16796875 l 1
 625 -200 l 1
 600 -200 l 1
 600 -4.16796875 l 1
 291.66796875 -4.16796875 l 1
 291.66796875 -200 l 1
 266.66796875 -200 l 1
 266.66796875 -3.73046875 l 1
 206.306640625 0.462890625 154.2109375 34.7763671875 125 84.162109375 c 1
 125 -158.33203125 l 1
 100 -158.33203125 l 1
 100 175 l 1
 125 175 l 1
 125 93.921875 187.252929688 27.7236328125 266.66796875 21.376953125 c 1
 266.66796875 50 l 2
 266.66796875 115.626953125 302.231445312 172.958007812 354.99609375 204.16796875 c 1
 112.5 204.16796875 l 1
 112.5 229.16796875 l 1
 445.83203125 229.16796875 l 1
 779.16796875 229.16796875 l 1
 1112.5 229.16796875 l 1
 1112.5 204.16796875 l 1
 1027.20898438 204.16796875 958.33203125 135.291015625 958.33203125 50 c 2
 958.33203125 20.83203125 l 1
 1433.33203125 20.83203125 l 1
 1433.33203125 620.83203125 l 1
 723.609375 620.83203125 l 2
 657.982421875 620.83203125 600.654296875 656.397460938 569.4453125 709.162109375 c 1
 569.4453125 466.66796875 l 1
 544.4453125 466.66796875 l 1
 544.4453125 800 l 1
 569.4453125 800 l 1
 569.4453125 714.708984375 638.318359375 645.83203125 723.609375 645.83203125 c 2
 1433.76953125 645.83203125 l 1
 1437.96289062 706.193359375 1472.27636719 758.2890625 1521.66210938 787.5 c 1
 1279.16796875 787.5 l 1
 1279.16796875 812.5 l 1
445.83203125 204.16796875 m 2
 360.541015625 204.16796875 291.66796875 135.291992188 291.66796875 50 c 2
 291.66796875 20.83203125 l 1
 600 20.83203125 l 1
 600 50 l 2
 600 115.626953125 635.564453125 172.958007812 688.330078125 204.16796875 c 1
 445.83203125 204.16796875 l 2
779.16796875 204.16796875 m 2
 693.876953125 204.16796875 625 135.291015625 625 50 c 2
 625 20.83203125 l 1
 933.33203125 20.83203125 l 1
 933.33203125 50 l 2
 933.33203125 115.626953125 968.896484375 172.958007812 1021.66210938 204.16796875 c 1
 779.16796875 204.16796875 l 2
EndSplineSet
EndChar

StartChar: U1209e
Encoding: 320 73886 64
Width: 2212
VWidth: 100
Flags: W
HStem: -45.832 25<220.617 1016.67 1137.28 1933.33> 287.5 25<526.172 723.609> 370.832 25<1237.28 1321.45> 620.832 25<526.172 723.609> 687.5 25<1231.57 1365.02 1391.52 1569.78 1596.27 1774.53 1801.03 1845.83> 787.5 25<862.5 1105 1135.76 1195.83 1779.17 2021.66 2052.43 2112.5>
VStem: 100 25<-200 42.4961 73.2617 133.332> 405.555 25<133.332 375.83 406.597 709.162 739.929 800> 1016.67 25<-200 -45.832 -20.832 42.4941 73.2617 155.932 191.287 691.883> 1116.67 25<216.668 459.162 489.929 550> 1321.45 25<66.668 370.832 395.832 642.425> 1526.2 25<66.668 642.425> 1730.96 25<66.668 642.425> 1933.33 25<-200 -45.832 -20.832 691.883>
LayerCount: 2
Fore
SplineSet
862.5 812.5 m 1
 1195.83203125 812.5 l 1
 1195.83203125 787.5 l 1
 1110.54101562 787.5 1041.66796875 718.623046875 1041.66796875 633.33203125 c 2
 1041.66796875 133.33203125 l 2
 1041.66796875 48.041015625 1110.54101562 -20.83203125 1195.83203125 -20.83203125 c 2
 1933.33203125 -20.83203125 l 1
 1933.33203125 633.33203125 l 2
 1933.33203125 698.958984375 1968.89746094 756.290039062 2021.66210938 787.5 c 1
 1779.16796875 787.5 l 1
 1779.16796875 812.5 l 1
 2112.5 812.5 l 1
 2112.5 787.5 l 1
 2027.20898438 787.5 1958.33203125 718.623046875 1958.33203125 633.33203125 c 2
 1958.33203125 -200 l 1
 1933.33203125 -200 l 1
 1933.33203125 -45.83203125 l 1
 1195.83203125 -45.83203125 l 2
 1130.20605469 -45.83203125 1072.87695312 -10.26953125 1041.66796875 42.494140625 c 1
 1041.66796875 -200 l 1
 1016.66796875 -200 l 1
 1016.66796875 -45.83203125 l 1
 279.16796875 -45.83203125 l 2
 213.541015625 -45.83203125 156.209960938 -10.2685546875 125 42.49609375 c 1
 125 -200 l 1
 100 -200 l 1
 100 133.33203125 l 1
 125 133.33203125 l 1
 125 48.041015625 193.876953125 -20.83203125 279.16796875 -20.83203125 c 2
 1016.66796875 -20.83203125 l 1
 1016.66796875 155.931640625 l 1
 705.931640625 466.66796875 l 1
 1020.33007812 781.0625 l 1
 1038.0078125 763.3828125 l 1
 741.287109375 466.66796875 l 1
 1016.66796875 191.287109375 l 1
 1016.66796875 633.33203125 l 2
 1016.66796875 698.958984375 1052.23144531 756.290039062 1104.99609375 787.5 c 1
 862.5 787.5 l 1
 862.5 812.5 l 1
405.5546875 800 m 1
 430.5546875 800 l 1
 430.5546875 714.708984375 499.431640625 645.83203125 584.72265625 645.83203125 c 2
 723.609375 645.83203125 l 1
 723.609375 620.83203125 l 1
 584.72265625 620.83203125 l 2
 519.095703125 620.83203125 461.764648438 656.396484375 430.5546875 709.162109375 c 1
 430.5546875 466.66796875 l 2
 430.5546875 381.376953125 499.431640625 312.5 584.72265625 312.5 c 2
 723.609375 312.5 l 1
 723.609375 287.5 l 1
 584.72265625 287.5 l 2
 519.095703125 287.5 461.764648438 323.064453125 430.5546875 375.830078125 c 1
 430.5546875 133.33203125 l 1
 405.5546875 133.33203125 l 1
 405.5546875 466.66796875 l 1
 405.5546875 800 l 1
1231.56640625 712.5 m 1
 1436.3203125 712.5 l 1
 1641.078125 712.5 l 1
 1845.83203125 712.5 l 1
 1845.83203125 687.5 l 1
 1796.04882812 687.5 1755.95703125 647.409179688 1755.95703125 597.62109375 c 2
 1755.95703125 66.66796875 l 1
 1730.95703125 66.66796875 l 1
 1730.95703125 597.62109375 l 2
 1730.95703125 633.991210938 1748.03710938 666.428710938 1774.53320312 687.5 c 1
 1641.078125 687.5 l 2
 1591.29101562 687.5 1551.19921875 647.409179688 1551.19921875 597.62109375 c 2
 1551.19921875 66.66796875 l 1
 1526.19921875 66.66796875 l 1
 1526.19921875 597.62109375 l 2
 1526.19921875 633.991210938 1543.28027344 666.428710938 1569.77734375 687.5 c 1
 1436.3203125 687.5 l 2
 1386.53710938 687.5 1346.4453125 647.409179688 1346.4453125 597.62109375 c 2
 1346.4453125 66.66796875 l 1
 1321.4453125 66.66796875 l 1
 1321.4453125 370.83203125 l 1
 1295.83203125 370.83203125 l 2
 1230.20507812 370.83203125 1172.87695312 406.397460938 1141.66796875 459.162109375 c 1
 1141.66796875 216.66796875 l 1
 1116.66796875 216.66796875 l 1
 1116.66796875 550 l 1
 1141.66796875 550 l 1
 1141.66796875 464.708984375 1210.54101562 395.83203125 1295.83203125 395.83203125 c 2
 1321.4453125 395.83203125 l 1
 1321.4453125 597.62109375 l 2
 1321.4453125 633.991210938 1338.52539062 666.428710938 1365.02148438 687.5 c 1
 1231.56640625 687.5 l 1
 1231.56640625 712.5 l 1
EndSplineSet
EndChar

StartChar: U122c1
Encoding: 321 74433 65
Width: 2212
VWidth: 100
Flags: W
HStem: -45.832 25<220.617 1016.67 1137.28 1933.33> 212.5 25<1389 1666.67> 287.5 25<526.172 723.609> 529.168 25<1389 1666.67> 620.832 25<526.172 723.609> 687.5 25<1512.5 1755 1785.76 1845.83> 787.5 25<862.5 1105 1135.76 1195.83 1779.17 2021.66 2052.43 2112.5>
VStem: 100 25<-200 42.4961 73.2617 133.332> 405.555 25<133.332 375.83 406.597 709.162 739.929 800> 1016.67 25<-200 -45.832 -20.832 42.4941 73.2617 155.932 191.287 691.883> 1275 25<96.8457 294.812 326.505 353.156 413.508 611.48 643.172 669.824> 1666.67 25<66.668 212.5 237.5 529.168 554.168 592.604> 1933.33 25<-200 -45.832 -20.832 691.883>
LayerCount: 2
Fore
SplineSet
862.5 812.5 m 1
 1195.83203125 812.5 l 1
 1195.83203125 787.5 l 1
 1110.54101562 787.5 1041.66796875 718.623046875 1041.66796875 633.33203125 c 2
 1041.66796875 133.33203125 l 2
 1041.66796875 48.041015625 1110.54101562 -20.83203125 1195.83203125 -20.83203125 c 2
 1933.33203125 -20.83203125 l 1
 1933.33203125 633.33203125 l 2
 1933.33203125 698.958984375 1968.89746094 756.290039062 2021.66210938 787.5 c 1
 1779.16796875 787.5 l 1
 1779.16796875 812.5 l 1
 2112.5 812.5 l 1
 2112.5 787.5 l 1
 2027.20898438 787.5 1958.33203125 718.623046875 1958.33203125 633.33203125 c 2
 1958.33203125 -200 l 1
 1933.33203125 -200 l 1
 1933.33203125 -45.83203125 l 1
 1195.83203125 -45.83203125 l 2
 1130.20605469 -45.83203125 1072.87695312 -10.26953125 1041.66796875 42.494140625 c 1
 1041.66796875 -200 l 1
 1016.66796875 -200 l 1
 1016.66796875 -45.83203125 l 1
 279.16796875 -45.83203125 l 2
 213.541015625 -45.83203125 156.209960938 -10.2685546875 125 42.49609375 c 1
 125 -200 l 1
 100 -200 l 1
 100 133.33203125 l 1
 125 133.33203125 l 1
 125 48.041015625 193.876953125 -20.83203125 279.16796875 -20.83203125 c 2
 1016.66796875 -20.83203125 l 1
 1016.66796875 155.931640625 l 1
 705.931640625 466.66796875 l 1
 1020.33007812 781.0625 l 1
 1038.0078125 763.3828125 l 1
 741.287109375 466.66796875 l 1
 1016.66796875 191.287109375 l 1
 1016.66796875 633.33203125 l 2
 1016.66796875 698.958984375 1052.23144531 756.290039062 1104.99609375 787.5 c 1
 862.5 787.5 l 1
 862.5 812.5 l 1
405.5546875 800 m 1
 430.5546875 800 l 1
 430.5546875 714.708984375 499.431640625 645.83203125 584.72265625 645.83203125 c 2
 723.609375 645.83203125 l 1
 723.609375 620.83203125 l 1
 584.72265625 620.83203125 l 2
 519.095703125 620.83203125 461.764648438 656.396484375 430.5546875 709.162109375 c 1
 430.5546875 466.66796875 l 2
 430.5546875 381.376953125 499.431640625 312.5 584.72265625 312.5 c 2
 723.609375 312.5 l 1
 723.609375 287.5 l 1
 584.72265625 287.5 l 2
 519.095703125 287.5 461.764648438 323.064453125 430.5546875 375.830078125 c 1
 430.5546875 133.33203125 l 1
 405.5546875 133.33203125 l 1
 405.5546875 466.66796875 l 1
 405.5546875 800 l 1
1512.5 712.5 m 1
 1845.83203125 712.5 l 1
 1845.83203125 687.5 l 1
 1760.54101562 687.5 1691.66796875 618.623046875 1691.66796875 533.33203125 c 2
 1691.66796875 66.66796875 l 1
 1666.66796875 66.66796875 l 1
 1666.66796875 212.5 l 1
 1445.83203125 212.5 l 2
 1384.06054688 212.5 1330.0078125 245.5625 1300 294.8125 c 1
 1300 66.66796875 l 1
 1287.49804688 66.66796875 l 1
 1278.66015625 57.830078125 l 1
 1111.49023438 225 l 1
 1269.82226562 383.33203125 l 1
 1111.49023438 541.66796875 l 1
 1278.66015625 708.837890625 l 1
 1287.5 700 l 1
 1300 700 l 1
 1300 619.309570312 1365.14257812 554.16796875 1445.83203125 554.16796875 c 2
 1667.90039062 554.16796875 l 1
 1674.53222656 610.969726562 1707.90039062 659.643554688 1754.99609375 687.5 c 1
 1512.5 687.5 l 1
 1512.5 712.5 l 1
1275 669.82421875 m 1
 1146.84570312 541.66796875 l 1
 1275 413.5078125 l 1
 1275 669.82421875 l 1
1300 611.48046875 m 1
 1300 383.33203125 l 2
 1300 302.642578125 1365.14257812 237.5 1445.83203125 237.5 c 2
 1666.66796875 237.5 l 1
 1666.66796875 529.16796875 l 1
 1445.83203125 529.16796875 l 2
 1384.06054688 529.16796875 1330.0078125 562.23046875 1300 611.48046875 c 1
1275 353.15625 m 1
 1146.84570312 225 l 1
 1275 96.845703125 l 1
 1275 353.15625 l 1
EndSplineSet
EndChar

StartChar: U122e0
Encoding: 322 74464 66
Width: 1212
VWidth: 100
Flags: W
HStem: -45.832 25<220.617 600 720.617 1112.5> 231.945 25<476.503 712.422> 454.168 25<476.503 707.244> 676.391 25<476.503 712.422> 787.5 25<812.539 1026.31 1055.86 1112.5>
VStem: 100 25<-200 42.4961 73.2617 133.332> 399.961 25<133.332 281.365 308.486 503.59 530.709 725.812 752.932 800> 600 25<-200 -45.832 -20.832 42.4961 73.2617 133.332> 950.02 25<133.332 211.391 246.746 690.957>
LayerCount: 2
Fore
SplineSet
812.5390625 812.5 m 1
 1112.5 812.5 l 1
 1112.5 787.5 l 1
 1036.42382812 787.5 975.01953125 726.095703125 975.01953125 650.01953125 c 2
 975.01953125 133.33203125 l 1
 950.01953125 133.33203125 l 1
 950.01953125 211.390625 l 1
 707.244140625 454.16796875 l 1
 523.57421875 454.16796875 l 2
 483.297851562 454.16796875 447.548828125 473.653320312 424.9609375 503.58984375 c 1
 424.9609375 355.5546875 l 2
 424.9609375 300.947265625 468.961914062 256.9453125 523.57421875 256.9453125 c 2
 712.421875 256.9453125 l 1
 712.421875 231.9453125 l 1
 523.57421875 231.9453125 l 2
 483.297851562 231.9453125 447.548828125 251.4296875 424.9609375 281.365234375 c 1
 424.9609375 133.33203125 l 1
 399.9609375 133.33203125 l 1
 399.9609375 355.5546875 l 1
 399.9609375 577.77734375 l 1
 399.9609375 800 l 1
 424.9609375 800 l 1
 424.9609375 745.392578125 468.961914062 701.390625 523.57421875 701.390625 c 2
 712.421875 701.390625 l 1
 712.421875 676.390625 l 1
 523.57421875 676.390625 l 2
 483.297851562 676.390625 447.548828125 695.876953125 424.9609375 725.8125 c 1
 424.9609375 577.77734375 l 2
 424.9609375 523.169921875 468.961914062 479.16796875 523.57421875 479.16796875 c 2
 707.244140625 479.16796875 l 1
 953.58203125 725.505859375 l 1
 963.8359375 715.25390625 l 1
 977.033203125 745.086914062 998.912109375 770.260742188 1026.30664062 787.5 c 1
 812.5390625 787.5 l 1
 812.5390625 812.5 l 1
955.591796875 692.162109375 m 1
 730.099609375 466.66796875 l 1
 950.01953125 246.74609375 l 1
 950.01953125 650.01953125 l 2
 950.01953125 664.598632812 951.963867188 678.723632812 955.591796875 692.162109375 c 1
100 133.33203125 m 1
 125 133.33203125 l 1
 125 48.041015625 193.876953125 -20.83203125 279.16796875 -20.83203125 c 2
 600 -20.83203125 l 1
 600 133.33203125 l 1
 625 133.33203125 l 1
 625 48.041015625 693.876953125 -20.83203125 779.16796875 -20.83203125 c 2
 1112.5 -20.83203125 l 1
 1112.5 -45.83203125 l 1
 779.16796875 -45.83203125 l 2
 713.541015625 -45.83203125 656.209960938 -10.2685546875 625 42.49609375 c 1
 625 -200 l 1
 600 -200 l 1
 600 -45.83203125 l 1
 279.16796875 -45.83203125 l 2
 213.541015625 -45.83203125 156.209960938 -10.2685546875 125 42.49609375 c 1
 125 -200 l 1
 100 -200 l 1
 100 133.33203125 l 1
EndSplineSet
EndChar

StartChar: U12145
Encoding: 323 74053 67
Width: 1221
VWidth: 100
Flags: W
HStem: -45.832 25<220.777 266.668 291.668 683.332 708.332 862.5> 787.5 25<112.5 354.996 385.762 445.832 529.168 771.662 802.429 862.5>
VStem: 100 25<-200 42.4961 72.716 133.332> 266.668 25<-20.2871 691.883> 683.332 25<-20.832 691.883>
LayerCount: 2
Fore
SplineSet
112.5 812.5 m 1
 445.83203125 812.5 l 1
 445.83203125 787.5 l 1
 360.541015625 787.5 291.66796875 718.623046875 291.66796875 633.33203125 c 2
 291.66796875 -20.83203125 l 1
 683.33203125 -20.83203125 l 1
 683.33203125 633.33203125 l 2
 683.33203125 698.958984375 718.896484375 756.290039062 771.662109375 787.5 c 1
 529.16796875 787.5 l 1
 529.16796875 812.5 l 1
 862.5 812.5 l 1
 862.5 787.5 l 1
 777.208984375 787.5 708.33203125 718.623046875 708.33203125 633.33203125 c 2
 708.33203125 -20.83203125 l 1
 862.5 -20.83203125 l 1
 862.5 -45.83203125 l 1
 279.16796875 -45.83203125 l 2
 213.541015625 -45.83203125 156.209960938 -10.2685546875 125 42.49609375 c 1
 125 -200 l 1
 100 -200 l 1
 100 133.33203125 l 1
 125 133.33203125 l 1
 125 52.25390625 187.252929688 -13.9404296875 266.66796875 -20.287109375 c 1
 266.66796875 633.33203125 l 2
 266.66796875 698.958984375 302.231445312 756.290039062 354.99609375 787.5 c 1
 112.5 787.5 l 1
 112.5 812.5 l 1
1103.66210938 808.837890625 m 1
 1121.33789062 791.162109375 l 1
 880.17578125 550 l 1
 1121.33789062 308.837890625 l 1
 1112.5 300 l 1
 1121.33789062 291.162109375 l 1
 880.17578125 50 l 1
 1121.33789062 -191.162109375 l 1
 1103.66210938 -208.837890625 l 1
 844.822265625 50 l 1
 1094.82421875 300 l 1
 844.822265625 550 l 1
 1103.66210938 808.837890625 l 1
603.662109375 642.169921875 m 1
 621.337890625 624.494140625 l 1
 380.17578125 383.33203125 l 1
 621.337890625 142.171875 l 1
 603.662109375 124.494140625 l 1
 344.822265625 383.33203125 l 1
 603.662109375 642.169921875 l 1
EndSplineSet
EndChar

StartChar: U122d7
Encoding: 324 74455 68
Width: 1212
VWidth: 100
Flags: W
HStem: -101.398 25<176.536 933.332> 120.801 25<454.314 933.332> 343 25<454.314 933.332> 565.199 25<454.314 933.332> 787.5 25<779.168 1021.66 1052.43 1112.5>
VStem: 100 25<-200 -51.9863 -24.8645 22.1992> 377.777 25<22.1992 170.215 197.337 392.414 419.536 614.613 641.736 688.801> 933.332 25<-200 -101.398 -76.3984 120.801 145.801 343 368 565.199 590.199 691.883>
LayerCount: 2
Fore
SplineSet
779.16796875 812.5 m 1
 1112.5 812.5 l 1
 1112.5 787.5 l 1
 1027.20898438 787.5 958.33203125 718.623046875 958.33203125 633.33203125 c 2
 958.33203125 -200 l 1
 933.33203125 -200 l 1
 933.33203125 -101.3984375 l 1
 223.6015625 -101.3984375 l 2
 183.331054688 -101.3984375 147.5859375 -81.9169921875 125 -51.986328125 c 1
 125 -200 l 1
 100 -200 l 1
 100 22.19921875 l 1
 125 22.19921875 l 1
 125 -32.404296875 168.997070312 -76.3984375 223.6015625 -76.3984375 c 2
 933.33203125 -76.3984375 l 1
 933.33203125 120.80078125 l 1
 501.37890625 120.80078125 l 2
 461.108398438 120.80078125 425.36328125 140.283203125 402.77734375 170.21484375 c 1
 402.77734375 22.19921875 l 1
 377.77734375 22.19921875 l 1
 377.77734375 244.3984375 l 1
 377.77734375 466.6015625 l 1
 377.77734375 688.80078125 l 1
 402.77734375 688.80078125 l 1
 402.77734375 634.196289062 446.775390625 590.19921875 501.37890625 590.19921875 c 2
 933.33203125 590.19921875 l 1
 933.33203125 633.33203125 l 2
 933.33203125 698.958984375 968.896484375 756.290039062 1021.66210938 787.5 c 1
 779.16796875 787.5 l 1
 779.16796875 812.5 l 1
402.77734375 614.61328125 m 1
 402.77734375 466.6015625 l 2
 402.77734375 411.997070312 446.775390625 368 501.37890625 368 c 2
 933.33203125 368 l 1
 933.33203125 565.19921875 l 1
 501.37890625 565.19921875 l 2
 461.108398438 565.19921875 425.36328125 584.680664062 402.77734375 614.61328125 c 1
402.77734375 392.4140625 m 1
 402.77734375 244.3984375 l 2
 402.77734375 189.799804688 446.775390625 145.80078125 501.37890625 145.80078125 c 2
 933.33203125 145.80078125 l 1
 933.33203125 343 l 1
 501.37890625 343 l 2
 461.108398438 343 425.36328125 362.481445312 402.77734375 392.4140625 c 1
EndSplineSet
EndChar

StartChar: U12192
Encoding: 325 74130 69
Width: 1212
VWidth: 100
Flags: W
HStem: -101.398 25<176.536 933.332> 120.801 25<454.314 933.332> 343 25<454.314 933.332> 565.199 25<454.314 933.332> 787.5 25<779.168 1021.66 1052.43 1112.5>
VStem: 100 25<-200 -51.9863 -24.8645 22.1992> 377.777 25<22.1992 170.215 197.337 392.414 419.536 614.613 641.736 688.801> 933.332 25<-200 -101.398 -76.3984 120.801 145.801 343 368 565.199 590.199 691.883>
LayerCount: 2
Fore
SplineSet
779.16796875 812.5 m 1
 1112.5 812.5 l 1
 1112.5 787.5 l 1
 1027.20898438 787.5 958.33203125 718.623046875 958.33203125 633.33203125 c 2
 958.33203125 -200 l 1
 933.33203125 -200 l 1
 933.33203125 -101.3984375 l 1
 223.6015625 -101.3984375 l 2
 183.331054688 -101.3984375 147.5859375 -81.9169921875 125 -51.986328125 c 1
 125 -200 l 1
 100 -200 l 1
 100 22.19921875 l 1
 125 22.19921875 l 1
 125 -32.404296875 168.997070312 -76.3984375 223.6015625 -76.3984375 c 2
 933.33203125 -76.3984375 l 1
 933.33203125 120.80078125 l 1
 501.37890625 120.80078125 l 2
 461.108398438 120.80078125 425.36328125 140.283203125 402.77734375 170.21484375 c 1
 402.77734375 22.19921875 l 1
 377.77734375 22.19921875 l 1
 377.77734375 244.3984375 l 1
 377.77734375 466.6015625 l 1
 377.77734375 688.80078125 l 1
 402.77734375 688.80078125 l 1
 402.77734375 634.196289062 446.775390625 590.19921875 501.37890625 590.19921875 c 2
 933.33203125 590.19921875 l 1
 933.33203125 633.33203125 l 2
 933.33203125 698.958984375 968.896484375 756.290039062 1021.66210938 787.5 c 1
 779.16796875 787.5 l 1
 779.16796875 812.5 l 1
402.77734375 614.61328125 m 1
 402.77734375 466.6015625 l 2
 402.77734375 411.997070312 446.775390625 368 501.37890625 368 c 2
 933.33203125 368 l 1
 933.33203125 565.19921875 l 1
 501.37890625 565.19921875 l 2
 461.108398438 565.19921875 425.36328125 584.680664062 402.77734375 614.61328125 c 1
402.77734375 392.4140625 m 1
 402.77734375 244.3984375 l 2
 402.77734375 189.799804688 446.775390625 145.80078125 501.37890625 145.80078125 c 2
 933.33203125 145.80078125 l 1
 933.33203125 343 l 1
 501.37890625 343 l 2
 461.108398438 343 425.36328125 362.481445312 402.77734375 392.4140625 c 1
EndSplineSet
EndChar

StartChar: U121ac
Encoding: 326 74156 70
Width: 879
VWidth: 100
Flags: W
HStem: -45.832 25<220.777 266.668 291.668 600 625 779.168> 370.832 25<112.5 266.668 291.668 354.994 385.762 600 625 688.33 719.097 779.168> 787.5 25<112.5 354.996 385.762 688.33 719.097 779.168>
VStem: 100 25<-200 42.4961 72.716 133.332> 266.668 25<-20.2871 275.218 395.832 691.883> 600 25<-20.832 275.218 395.832 691.883>
LayerCount: 2
Fore
SplineSet
112.5 812.5 m 1
 445.83203125 812.5 l 1
 779.16796875 812.5 l 1
 779.16796875 787.5 l 1
 693.876953125 787.5 625 718.623046875 625 633.33203125 c 2
 625 395.83203125 l 1
 779.16796875 395.83203125 l 1
 779.16796875 370.83203125 l 1
 693.876953125 370.83203125 625 301.958984375 625 216.66796875 c 2
 625 -20.83203125 l 1
 779.16796875 -20.83203125 l 1
 779.16796875 -45.83203125 l 1
 279.16796875 -45.83203125 l 2
 213.541015625 -45.83203125 156.209960938 -10.2685546875 125 42.49609375 c 1
 125 -200 l 1
 100 -200 l 1
 100 133.33203125 l 1
 125 133.33203125 l 1
 125 52.25390625 187.252929688 -13.9404296875 266.66796875 -20.287109375 c 1
 266.66796875 216.66796875 l 2
 266.66796875 282.293945312 302.23046875 339.623046875 354.994140625 370.83203125 c 1
 112.5 370.83203125 l 1
 112.5 395.83203125 l 1
 266.66796875 395.83203125 l 1
 266.66796875 633.33203125 l 2
 266.66796875 698.958984375 302.231445312 756.290039062 354.99609375 787.5 c 1
 112.5 787.5 l 1
 112.5 812.5 l 1
445.83203125 787.5 m 2
 360.541015625 787.5 291.66796875 718.623046875 291.66796875 633.33203125 c 2
 291.66796875 395.83203125 l 1
 445.83203125 395.83203125 l 1
 600 395.83203125 l 1
 600 633.33203125 l 2
 600 698.958984375 635.564453125 756.290039062 688.330078125 787.5 c 1
 445.83203125 787.5 l 2
445.83203125 370.83203125 m 2
 360.541015625 370.83203125 291.66796875 301.958984375 291.66796875 216.66796875 c 2
 291.66796875 -20.83203125 l 1
 600 -20.83203125 l 1
 600 216.66796875 l 2
 600 282.294921875 635.565429688 339.623046875 688.330078125 370.83203125 c 1
 445.83203125 370.83203125 l 2
EndSplineSet
EndChar

StartChar: U122b7
Encoding: 327 74423 71
Width: 3212
VWidth: 100
Flags: W
HStem: -45.75 25<163.49 374.072 409.426 874.072 909.426 1100 1720.62 1933.45> 139.418 25<496.825 1100> 287.5 25<1720.62 1933.45 1958.45 2021.77 2052.54 2266.75 2291.75 2355.07 2385.84 2600.05 2625.05 2688.37 2719.13 2779.2> 324.582 25<496.825 1100> 509.75 25<496.825 1100> 620.832 25<1279.17 1434.91 1458.88 1521.66 1552.43 1612.5 2779.2 2934.92 2958.9 3021.67 3052.44 3112.5> 694.918 25<163.49 1110.97> 787.5 25<945.832 1188.33 1219.1 1521.66 1551.88 1612.5 1779.3 2021.77 2052.54 2355.07 2385.84 2688.37 2719.13 3021.67 3051.89 3112.5>
VStem: 100 25<-125.832 -8.50195 17.7405 59.332 614.832 732.166 758.408 800> 433.332 25<59.332 176.668 202.908 361.834 388.075 547 573.241 614.832> 1100 25<-200 -45.75 -20.75 139.418 164.418 324.582 349.582 509.75 534.75 693.403> 1433.33 25<-200 525.218 645.832 691.723> 1600 25<-200 42.4961 73.2617 375.83 406.597 466.668> 1933.45 25<-200 -45.832 -20.832 191.894 312.5 691.894> 2266.75 25<-200 191.894 312.5 691.894> 2600.05 25<-200 191.894 312.5 691.894> 2933.35 25<-200 525.243 645.852 691.736>
LayerCount: 2
Fore
SplineSet
945.83203125 812.5 m 1
 1279.16796875 812.5 l 1
 1612.5 812.5 l 1
 1612.5 787.5 l 1
 1531.421875 787.5 1465.22363281 725.247070312 1458.87695312 645.83203125 c 1
 1612.5 645.83203125 l 1
 1612.5 620.83203125 l 1
 1527.20898438 620.83203125 1458.33203125 551.958984375 1458.33203125 466.66796875 c 2
 1458.33203125 -200 l 1
 1433.33203125 -200 l 1
 1433.33203125 466.66796875 l 2
 1433.33203125 532.294921875 1468.89746094 589.623046875 1521.66210938 620.83203125 c 1
 1279.16796875 620.83203125 l 1
 1279.16796875 645.83203125 l 1
 1433.76953125 645.83203125 l 1
 1437.96289062 706.193359375 1472.27636719 758.2890625 1521.66210938 787.5 c 1
 1279.16796875 787.5 l 2
 1193.87695312 787.5 1125 718.623046875 1125 633.33203125 c 2
 1125 -200 l 1
 1100 -200 l 1
 1100 -45.75 l 1
 909.42578125 -45.75 l 1
 838.509765625 -116.666015625 l 1
 913.005859375 -191.162109375 l 1
 895.330078125 -208.83984375 l 1
 803.154296875 -116.66796875 l 1
 874.072265625 -45.75 l 1
 409.42578125 -45.75 l 1
 338.509765625 -116.666015625 l 1
 413.005859375 -191.162109375 l 1
 395.330078125 -208.83984375 l 1
 303.154296875 -116.66796875 l 1
 374.072265625 -45.75 l 1
 205.08203125 -45.75 l 2
 173.030273438 -45.75 144.298828125 -31.2431640625 125 -8.501953125 c 1
 125 -125.83203125 l 1
 100 -125.83203125 l 1
 100 59.33203125 l 1
 125 59.33203125 l 1
 125 14.955078125 160.704101562 -20.75 205.08203125 -20.75 c 2
 1100 -20.75 l 1
 1100 139.41796875 l 1
 538.41796875 139.41796875 l 2
 506.365234375 139.41796875 477.6328125 153.92578125 458.33203125 176.66796875 c 1
 458.33203125 59.33203125 l 1
 433.33203125 59.33203125 l 1
 433.33203125 244.5 l 1
 433.33203125 429.66796875 l 1
 433.33203125 614.83203125 l 1
 458.33203125 614.83203125 l 1
 458.33203125 570.456054688 494.040039062 534.75 538.41796875 534.75 c 2
 1100 534.75 l 1
 1100 633.33203125 l 2
 1100 654.979492188 1103.890625 675.715820312 1110.97070312 694.91796875 c 1
 205.08203125 694.91796875 l 2
 173.030273438 694.91796875 144.298828125 709.424804688 125 732.166015625 c 1
 125 614.83203125 l 1
 100 614.83203125 l 1
 100 800 l 1
 125 800 l 1
 125 755.622070312 160.704101562 719.91796875 205.08203125 719.91796875 c 2
 1112.5 719.91796875 l 1
 1112.5 698.92578125 l 1
 1127.26367188 736.165039062 1154.1875 767.3046875 1188.33007812 787.5 c 1
 945.83203125 787.5 l 1
 945.83203125 812.5 l 1
1779.30078125 812.5 m 1
 2112.6015625 812.5 l 1
 2445.8984375 812.5 l 1
 2779.19921875 812.5 l 1
 3112.5 812.5 l 1
 3112.5 787.5 l 1
 3031.43066406 787.5 2965.24316406 725.25390625 2958.89648438 645.8515625 c 1
 3112.5 645.8515625 l 1
 3112.5 620.8515625 l 1
 3027.21679688 620.8515625 2958.3515625 551.982421875 2958.3515625 466.69921875 c 2
 2958.3515625 -200 l 1
 2933.3515625 -200 l 1
 2933.3515625 466.69921875 l 2
 2933.3515625 532.318359375 2968.90917969 589.643554688 3021.66601562 620.8515625 c 1
 2779.19921875 620.8515625 l 1
 2779.19921875 645.8515625 l 1
 2933.7890625 645.8515625 l 1
 2937.98144531 706.203125 2972.28808594 758.291015625 3021.66601562 787.5 c 1
 2779.19921875 787.5 l 2
 2693.91601562 787.5 2625.05078125 718.630859375 2625.05078125 633.3515625 c 2
 2625.05078125 312.5 l 1
 2779.19921875 312.5 l 1
 2779.19921875 287.5 l 1
 2693.91601562 287.5 2625.05078125 218.630859375 2625.05078125 133.3515625 c 2
 2625.05078125 -200 l 1
 2600.05078125 -200 l 1
 2600.05078125 133.3515625 l 2
 2600.05078125 198.96875 2635.60839844 256.291992188 2688.36523438 287.5 c 1
 2445.8984375 287.5 l 2
 2360.61914062 287.5 2291.75 218.629882812 2291.75 133.3515625 c 2
 2291.75 -200 l 1
 2266.75 -200 l 1
 2266.75 133.3515625 l 2
 2266.75 198.96875 2302.30957031 256.29296875 2355.06640625 287.5 c 1
 2112.6015625 287.5 l 2
 2027.31738281 287.5 1958.44921875 218.629882812 1958.44921875 133.3515625 c 2
 1958.44921875 -200 l 1
 1933.44921875 -200 l 1
 1933.44921875 -45.83203125 l 1
 1779.16796875 -45.83203125 l 2
 1713.54101562 -45.83203125 1656.20996094 -10.2685546875 1625 42.49609375 c 1
 1625 -200 l 1
 1600 -200 l 1
 1600 133.33203125 l 1
 1600 466.66796875 l 1
 1625 466.66796875 l 1
 1625 381.376953125 1693.87695312 312.5 1779.16796875 312.5 c 2
 1933.44921875 312.5 l 1
 1933.44921875 633.3515625 l 2
 1933.44921875 698.96875 1969.00878906 756.29296875 2021.76757812 787.5 c 1
 1779.30078125 787.5 l 1
 1779.30078125 812.5 l 1
2112.6015625 787.5 m 2
 2027.31738281 787.5 1958.44921875 718.629882812 1958.44921875 633.3515625 c 2
 1958.44921875 312.5 l 1
 2112.6015625 312.5 l 1
 2266.75 312.5 l 1
 2266.75 633.3515625 l 2
 2266.75 698.96875 2302.30957031 756.29296875 2355.06640625 787.5 c 1
 2112.6015625 787.5 l 2
2445.8984375 787.5 m 2
 2360.61914062 787.5 2291.75 718.629882812 2291.75 633.3515625 c 2
 2291.75 312.5 l 1
 2445.8984375 312.5 l 1
 2600.05078125 312.5 l 1
 2600.05078125 633.3515625 l 2
 2600.05078125 698.96875 2635.60839844 756.291992188 2688.36523438 787.5 c 1
 2445.8984375 787.5 l 2
458.33203125 547 m 1
 458.33203125 429.66796875 l 2
 458.33203125 385.291015625 494.041015625 349.58203125 538.41796875 349.58203125 c 2
 1100 349.58203125 l 1
 1100 509.75 l 1
 538.41796875 509.75 l 2
 506.365234375 509.75 477.6328125 524.2578125 458.33203125 547 c 1
1625 375.830078125 m 1
 1625 133.33203125 l 2
 1625 48.041015625 1693.87695312 -20.83203125 1779.16796875 -20.83203125 c 2
 1933.44921875 -20.83203125 l 1
 1933.44921875 133.3515625 l 2
 1933.44921875 198.96875 1969.00878906 256.29296875 2021.76757812 287.5 c 1
 1945.94921875 287.5 l 1
 1779.16796875 287.5 l 2
 1713.54101562 287.5 1656.20996094 323.064453125 1625 375.830078125 c 1
458.33203125 361.833984375 m 1
 458.33203125 244.5 l 2
 458.33203125 200.123046875 494.040039062 164.41796875 538.41796875 164.41796875 c 2
 1100 164.41796875 l 1
 1100 324.58203125 l 1
 538.41796875 324.58203125 l 2
 506.364257812 324.58203125 477.631835938 339.090820312 458.33203125 361.833984375 c 1
EndSplineSet
EndChar

StartChar: U12070
Encoding: 328 73840 72
Width: 3220
VWidth: 100
Flags: W
HStem: -98.2188 25<178.921 766.668> -45.832 25<918.688 1141.67 1166.67 1391.67 1416.67 1641.67 1666.67 1766.67> -12.5 25<1903.42 2100 2125 2132.32 2167.68 2322.22 2347.22 2445.83> 130.348 25<401.143 766.668> 287.5 25<2554.11 2600 2732.47 3112.5> 358.91 25<401.143 766.668> 509.723 25<1029.17 1200.38 1227.89 1450.38 1477.89 1529.17> 587.477 25<401.143 632.348 667.699 766.668 1791.67 1854.86 1885.76 1927.2 1954.32 2132.32 2176.54 2371.64 2398.76 2445.83> 787.5 25<612.5 632.324 667.676 854.996 885.762 950.379 977.887 1029.17 1529.17 1700.38 1727.89 1779.17>
VStem: 100 25<-200 -46.6777 -20.0173 28.5625> 322.223 25<28.5625 181.887 208.548 410.451 437.112 485.691 485.695 591.162 624.621 639.016 665.677 714.258> 766.668 25<-200 -98.2188 -73.2188 42.4941 74.9078 130.348 155.348 358.91 383.91 587.477 612.477 691.883> 891.668 25<-11.0625 726.281> 1141.67 25<-20.832 448.504> 1391.67 25<-20.832 448.504> 1641.67 25<-20.832 726.281> 1766.67 25<-166.668 -45.832 -20.832 75.8301 107.666 166.668 433.332 587.5 612.5 675.83 706.597 766.668> 1877.78 25<28.2676 535.959> 2100 25<12.5 535.959> 2322.22 25<12.5 535.959> 2433.33 25<133.332 375.83 406.051 466.668> 2600 25<152.928 289.073 313.045 375.83 406.597 466.668> 2695.51 24.6674<127.011 226.407>
LayerCount: 2
Fore
SplineSet
612.5 812.5 m 1
 945.83203125 812.5 l 1
 1029.16796875 812.5 l 1
 1029.16796875 787.5 l 1
 966.888671875 787.5 916.66796875 737.279296875 916.66796875 675 c 2
 916.66796875 -18.052734375 l 1
 926.11328125 -19.8544921875 935.853515625 -20.83203125 945.83203125 -20.83203125 c 2
 1141.66796875 -20.83203125 l 1
 1141.66796875 397.22265625 l 2
 1141.66796875 443.708984375 1164.94140625 484.821289062 1200.38085938 509.72265625 c 1
 1029.16796875 509.72265625 l 1
 1029.16796875 534.72265625 l 1
 1279.16796875 534.72265625 l 1
 1529.16796875 534.72265625 l 1
 1529.16796875 509.72265625 l 1
 1466.88867188 509.72265625 1416.66796875 459.502929688 1416.66796875 397.22265625 c 2
 1416.66796875 -20.83203125 l 1
 1641.66796875 -20.83203125 l 1
 1641.66796875 675 l 2
 1641.66796875 721.485351562 1664.94042969 762.598632812 1700.37890625 787.5 c 1
 1529.16796875 787.5 l 1
 1529.16796875 812.5 l 1
 1779.16796875 812.5 l 1
 1779.16796875 787.5 l 1
 1716.88867188 787.5 1666.66796875 737.279296875 1666.66796875 675 c 2
 1666.66796875 -20.83203125 l 1
 1766.66796875 -20.83203125 l 1
 1766.66796875 166.66796875 l 1
 1791.66796875 166.66796875 l 1
 1791.66796875 105.827148438 1826.7265625 53.361328125 1877.77734375 28.267578125 c 1
 1877.77734375 488.890625 l 2
 1877.77734375 529.1640625 1897.26171875 564.913085938 1927.19726562 587.5 c 1
 1791.66796875 587.5 l 1
 1791.66796875 433.33203125 l 1
 1766.66796875 433.33203125 l 1
 1766.66796875 766.66796875 l 1
 1791.66796875 766.66796875 l 1
 1791.66796875 681.376953125 1860.54101562 612.5 1945.83203125 612.5 c 2
 2001.390625 612.5 l 1
 2132.32421875 612.5 l 1
 2044.82226562 700 l 1
 2153.66210938 808.837890625 l 1
 2171.33789062 791.162109375 l 1
 2080.17578125 700 l 1
 2167.67578125 612.5 l 1
 2223.609375 612.5 l 1
 2445.83203125 612.5 l 1
 2445.83203125 587.5 l 1
 2391.22460938 587.5 2347.22265625 543.498046875 2347.22265625 488.890625 c 2
 2347.22265625 12.5 l 1
 2445.83203125 12.5 l 1
 2445.83203125 -12.5 l 1
 2167.67578125 -12.5 l 1
 2080.17578125 -100 l 1
 2171.33789062 -191.162109375 l 1
 2153.66210938 -208.837890625 l 1
 2044.82226562 -100 l 1
 2132.32421875 -12.5 l 1
 1945.83203125 -12.5 l 2
 1922.66992188 -12.5 1900.55175781 -8.052734375 1880.24023438 0 c 1
 1877.77734375 0 l 1
 1877.77734375 0.99609375 l 1
 1841.62988281 15.9580078125 1811.41503906 42.443359375 1791.66796875 75.830078125 c 1
 1791.66796875 -166.66796875 l 1
 1766.66796875 -166.66796875 l 1
 1766.66796875 -45.83203125 l 1
 945.83203125 -45.83203125 l 2
 880.206054688 -45.83203125 822.876953125 -10.26953125 791.66796875 42.494140625 c 1
 791.66796875 -200 l 1
 766.66796875 -200 l 1
 766.66796875 -98.21875 l 1
 226.78125 -98.21875 l 2
 185.088867188 -98.21875 148.125 -77.8662109375 125 -46.677734375 c 1
 125 -200 l 1
 100 -200 l 1
 100 28.5625 l 1
 125 28.5625 l 1
 125 -27.7958984375 170.419921875 -73.21875 226.78125 -73.21875 c 2
 766.66796875 -73.21875 l 1
 766.66796875 130.34765625 l 1
 449.00390625 130.34765625 l 2
 407.311523438 130.34765625 370.34765625 150.698242188 347.22265625 181.88671875 c 1
 347.22265625 28.5625 l 1
 322.22265625 28.5625 l 1
 322.22265625 257.12890625 l 1
 322.22265625 485.69140625 l 1
 347.22265625 485.69140625 l 1
 347.22265625 429.333007812 392.642578125 383.91015625 449.00390625 383.91015625 c 2
 766.66796875 383.91015625 l 1
 766.66796875 587.4765625 l 1
 449.00390625 587.4765625 l 2
 407.311523438 587.4765625 370.34765625 607.828125 347.22265625 639.015625 c 1
 347.22265625 485.6953125 l 1
 322.22265625 485.6953125 l 1
 322.22265625 593.056640625 l 1
 320.328125 591.162109375 l 1
 211.490234375 700 l 1
 320.328125 808.837890625 l 1
 338.005859375 791.162109375 l 1
 246.845703125 700 l 1
 322.22265625 624.62109375 l 1
 322.22265625 714.2578125 l 1
 347.22265625 714.2578125 l 1
 347.22265625 657.896484375 392.641601562 612.4765625 449.00390625 612.4765625 c 2
 632.34765625 612.4765625 l 1
 544.822265625 700 l 1
 632.32421875 787.5 l 1
 612.5 787.5 l 1
 612.5 812.5 l 1
667.67578125 787.5 m 1
 580.17578125 700 l 1
 667.69921875 612.4765625 l 1
 766.66796875 612.4765625 l 1
 766.66796875 633.33203125 l 2
 766.66796875 698.958984375 802.231445312 756.290039062 854.99609375 787.5 c 1
 667.67578125 787.5 l 1
945.83203125 787.5 m 2
 860.541015625 787.5 791.66796875 718.623046875 791.66796875 633.33203125 c 2
 791.66796875 133.33203125 l 2
 791.66796875 67.1162109375 833.190429688 10.8173828125 891.66796875 -11.0625 c 1
 891.66796875 675 l 2
 891.66796875 721.485351562 914.940429688 762.598632812 950.37890625 787.5 c 1
 945.83203125 787.5 l 2
1791.66796875 675.830078125 m 1
 1791.66796875 612.5 l 1
 1854.85742188 612.5 l 1
 1828.86523438 627.955078125 1807.07421875 649.782226562 1791.66796875 675.830078125 c 1
2001.390625 587.5 m 2
 1946.77929688 587.5 1902.77734375 543.498046875 1902.77734375 488.890625 c 2
 1902.77734375 18.611328125 l 1
 1916.44140625 14.658203125 1930.87597656 12.5 1945.83203125 12.5 c 2
 2100 12.5 l 1
 2100 488.890625 l 2
 2100 529.1640625 2119.48339844 564.913085938 2149.41796875 587.5 c 1
 2001.390625 587.5 l 2
2223.609375 587.5 m 2
 2169.00195312 587.5 2125 543.498046875 2125 488.890625 c 2
 2125 12.5 l 1
 2322.22265625 12.5 l 1
 2322.22265625 488.890625 l 2
 2322.22265625 529.1640625 2341.70800781 564.913085938 2371.64257812 587.5 c 1
 2223.609375 587.5 l 2
1279.16796875 509.72265625 m 2
 1216.88867188 509.72265625 1166.66796875 459.502929688 1166.66796875 397.22265625 c 2
 1166.66796875 -20.83203125 l 1
 1391.66796875 -20.83203125 l 1
 1391.66796875 397.22265625 l 2
 1391.66796875 443.708984375 1414.94140625 484.821289062 1450.38085938 509.72265625 c 1
 1279.16796875 509.72265625 l 2
2433.33203125 466.66796875 m 1
 2458.33203125 466.66796875 l 1
 2458.33203125 385.58984375 2520.58496094 319.391601562 2600 313.044921875 c 1
 2600 466.66796875 l 1
 2625 466.66796875 l 1
 2625 381.376953125 2693.87695312 312.5 2779.16796875 312.5 c 2
 3112.5 312.5 l 1
 3112.5 287.5 l 1
 2779.16796875 287.5 l 2
 2762.75292969 287.5 2746.85742188 289.724609375 2731.75976562 293.88671875 c 1
 2751.09375 279.38671875 l 1
 2730.24814128 251.592175981 2720.179691 219.118915544 2720.179691 186.931789317 c 0
 2720.179691 140.104334834 2741.49046994 93.882509096 2781.9296875 63.5546875 c 2
 3120 -190 l 1
 3105 -210 l 1
 2766.9296875 43.5546875 l 2
 2720.08409222 78.68627 2695.51228693 132.505415364 2695.51228693 186.980368078 c 0
 2695.51228693 193.560201698 2695.87077373 200.149603125 2696.59179688 206.716796875 c 1
 2551.09375 12.71875 l 1
 2531.09375 27.71875 l 1
 2610.30273438 133.33203125 l 1
 2600 133.33203125 l 1
 2600 287.9375 l 1
 2539.63867188 292.130859375 2487.54394531 326.444335938 2458.33203125 375.830078125 c 1
 2458.33203125 133.33203125 l 1
 2433.33203125 133.33203125 l 1
 2433.33203125 466.66796875 l 1
347.22265625 410.451171875 m 1
 347.22265625 257.12890625 l 2
 347.22265625 200.767578125 392.641601562 155.34765625 449.00390625 155.34765625 c 2
 766.66796875 155.34765625 l 1
 766.66796875 358.91015625 l 1
 449.00390625 358.91015625 l 2
 407.310546875 358.91015625 370.34765625 379.262695312 347.22265625 410.451171875 c 1
2625 375.830078125 m 1
 2625 152.927734375 l 1
 2730.90625 294.13671875 l 1
 2686.01855469 306.755859375 2648.25585938 336.512695312 2625 375.830078125 c 1
EndSplineSet
EndChar

StartChar: U1224c
Encoding: 329 74316 73
Width: 1769
VWidth: 100
Flags: W
HStem: -168.333 24.9103<211.309 329.183> 287.5 25<581.23 823.725 854.492 1157.06 1187.82 1247.89>
VStem: 735.395 25<-200 -22.9004 11.7852 191.883> 1068.73 25<-200 88.2129 122.898 191.883>
LayerCount: 2
Fore
SplineSet
205.40625 962.06640625 m 1
 229.125 954.16015625 l 1
 223.713054548 937.92314411 221.141102135 921.436269522 221.141102135 905.235716321 c 0
 221.141102135 840.702918844 261.950879328 780.713250513 326.62890625 759.15625 c 2
 1668.515625 311.859375 l 1
 1664.5625 300 l 1
 1668.515625 288.142578125 l 1
 1093.73046875 96.546875 l 1
 1093.73046875 -200 l 1
 1068.73046875 -200 l 1
 1068.73046875 88.212890625 l 1
 760.39453125 -14.56640625 l 1
 760.39453125 -200 l 1
 735.39453125 -200 l 1
 735.39453125 -22.900390625 l 1
 326.62890625 -159.15625 l 2
 307.955961602 -165.379783817 288.979410023 -168.332603031 270.312119041 -168.332603031 c 0
 226.740447515 -168.332603031 184.85366166 -152.245319888 152.4453125 -124.11328125 c 1
 229.125 -354.16015625 l 1
 205.40625 -362.06640625 l 1
 100 -45.83984375 l 1
 123.71875 -37.93359375 l 1
 145.27607181 -102.611804058 205.266583112 -143.422301093 269.800726204 -143.422301093 c 0
 286.000413914 -143.422301093 302.486412152 -140.850685363 318.72265625 -135.439453125 c 2
 735.39453125 3.451171875 l 1
 735.39453125 133.33203125 l 2
 735.39453125 198.958984375 770.958984375 256.290039062 823.724609375 287.5 c 1
 581.23046875 287.5 l 1
 581.23046875 312.5 l 1
 914.5625 312.5 l 1
 1247.89453125 312.5 l 1
 1247.89453125 287.5 l 1
 1162.60351562 287.5 1093.73046875 218.623046875 1093.73046875 133.33203125 c 2
 1093.73046875 122.8984375 l 1
 1625.03515625 300 l 1
 318.724609375 735.4375 l 2
 256.465820312 756.188476562 213.323242188 808.057617188 200.400390625 867.982421875 c 1
 123.71875 637.93359375 l 1
 100 645.83984375 l 1
 205.40625 962.06640625 l 1
914.5625 287.5 m 2
 829.271484375 287.5 760.39453125 218.623046875 760.39453125 133.33203125 c 2
 760.39453125 11.78515625 l 1
 1068.73046875 114.564453125 l 1
 1068.73046875 133.33203125 l 2
 1068.73046875 198.958984375 1104.29394531 256.290039062 1157.05859375 287.5 c 1
 914.5625 287.5 l 2
EndSplineSet
EndChar

StartChar: LIG_NA4_NI_UD
Encoding: 330 -1 74
Width: 1712
VWidth: 100
Flags: W
HStem: 287.5 25<220.617 1059.55> 787.5 25<1284.34 1521.66 1552.43 1612.5>
VStem: 100 25<133.332 375.83 406.597 466.668> 1433.33 25<-200 691.883>
LayerCount: 2
Fore
SplineSet
1279.16796875 812.5 m 1
 1612.5 812.5 l 1
 1612.5 787.5 l 1
 1527.20898438 787.5 1458.33203125 718.623046875 1458.33203125 633.33203125 c 2
 1458.33203125 -200 l 1
 1433.33203125 -200 l 1
 1433.33203125 633.33203125 l 2
 1433.33203125 698.958984375 1468.89746094 756.290039062 1521.66210938 787.5 c 1
 1284.34375 787.5 l 1
 1130.17773438 633.333984375 l 1
 1288.00585938 475.5078125 l 1
 1279.16796875 466.66796875 l 1
 1288.0078125 457.830078125 l 1
 1130.17773438 300 l 1
 1288.00585938 142.169921875 l 1
 1270.33007812 124.4921875 l 1
 1107.32226562 287.5 l 1
 279.16796875 287.5 l 2
 213.541015625 287.5 156.209960938 323.064453125 125 375.830078125 c 1
 125 133.33203125 l 1
 100 133.33203125 l 1
 100 466.66796875 l 1
 125 466.66796875 l 1
 125 381.376953125 193.876953125 312.5 279.16796875 312.5 c 2
 1059.55078125 312.5 l 1
 548.875 567.83984375 l 2
 490.173828125 597.189453125 454.802734375 654.63671875 450.486328125 715.7890625 c 1
 342.0390625 498.890625 l 1
 319.6796875 510.0703125 l 1
 468.75 808.21484375 l 1
 491.109375 797.03515625 l 1
 480.008177119 774.83190784 474.746669363 751.263903384 474.746669363 728.065906649 c 0
 474.746669363 671.555923524 505.968589194 617.241575557 560.0546875 590.19921875 c 2
 1110.03320312 315.2109375 l 1
 1261.49023438 466.666015625 l 1
 1094.82226562 633.33203125 l 1
 1270.33007812 808.837890625 l 1
 1279.16796875 800 l 1
 1279.16796875 812.5 l 1
EndSplineSet
Ligature2: "ligsubtable" U1224c U12313
EndChar

StartChar: U1224f
Encoding: 331 74319 75
Width: 1718
VWidth: 100
Flags: W
HStem: -150.375 24.787<365.203 485.077> 787.5 25<1284.35 1526.84 1557.61 1617.68>
VStem: 417.41 24.6797<797.731 858.59> 1438.51 25<-200 44.8242 80.1777 519.822 555.176 691.883>
LayerCount: 2
Fore
SplineSet
442.708984375 949.345703125 m 1
 464.146484375 936.482421875 l 1
 449.205337238 911.581285809 442.089840584 884.204279939 442.089840584 857.191903949 c 0
 442.089840584 804.867732359 468.788187314 753.911703491 517.0234375 724.96875 c 2
 1199.07226562 315.740234375 l 1
 1438.50976562 555.17578125 l 1
 1438.50976562 633.33203125 l 2
 1438.50976562 698.958984375 1474.07519531 756.290039062 1526.83984375 787.5 c 1
 1284.34570312 787.5 l 1
 1284.34570312 812.5 l 1
 1617.67773438 812.5 l 1
 1617.67773438 787.5 l 1
 1532.38671875 787.5 1463.50976562 718.623046875 1463.50976562 633.33203125 c 2
 1463.50976562 -200 l 1
 1438.50976562 -200 l 1
 1438.50976562 44.82421875 l 1
 1199.07226562 284.259765625 l 1
 517.0234375 -124.96875 l 2
 488.309459978 -142.197634803 456.684040028 -150.375139776 425.432511218 -150.375139776 c 0
 395.436465706 -150.375139776 365.78487373 -142.84147504 339.3828125 -128.546875 c 1
 464.146484375 -336.482421875 l 1
 442.708984375 -349.345703125 l 1
 271.208984375 -63.517578125 l 1
 292.646484375 -50.654296875 l 1
 321.588270981 -98.8891050624 372.544591734 -125.588103681 424.869414063 -125.588103681 c 0
 451.881793636 -125.588103681 479.258889754 -118.47260839 504.16015625 -103.53125 c 2
 1176.71289062 300 l 1
 504.16015625 703.53125 l 2
 447.885742188 737.296875 417.024414062 797.288085938 417.41015625 858.58984375 c 1
 292.646484375 650.654296875 l 1
 271.208984375 663.517578125 l 1
 442.708984375 949.345703125 l 1
358.83984375 558.837890625 m 1
 376.515625 541.162109375 l 1
 135.353515625 300 l 1
 376.515625 58.837890625 l 1
 358.83984375 41.162109375 l 1
 100 300 l 1
 358.83984375 558.837890625 l 1
1438.50976562 519.822265625 m 1
 1218.68554688 300 l 1
 1438.50976562 80.177734375 l 1
 1438.50976562 519.822265625 l 1
EndSplineSet
EndChar

StartChar: U12195
Encoding: 332 74133 76
Width: 1769
VWidth: 100
Flags: W
HStem: -168.333 24.9103<211.309 327.23> 287.5 25<747.895 990.393 1021.16 1081.23>
VStem: 902.062 25<-200 32.6562 67.3418 191.883>
LayerCount: 2
Fore
SplineSet
205.40625 962.06640625 m 1
 229.125 954.16015625 l 1
 223.713054548 937.92314411 221.141102135 921.436269522 221.141102135 905.235716321 c 0
 221.141102135 840.702918844 261.950879328 780.713250513 326.62890625 759.15625 c 2
 1668.515625 311.859375 l 1
 1664.5625 300 l 1
 1668.515625 288.142578125 l 1
 927.0625 40.990234375 l 1
 927.0625 -200 l 1
 902.0625 -200 l 1
 902.0625 32.65625 l 1
 326.62890625 -159.15625 l 2
 307.955961602 -165.379783817 288.979410023 -168.332603031 270.312119041 -168.332603031 c 0
 226.740447515 -168.332603031 184.85366166 -152.245319888 152.4453125 -124.11328125 c 1
 229.125 -354.16015625 l 1
 205.40625 -362.06640625 l 1
 100 -45.83984375 l 1
 123.71875 -37.93359375 l 1
 145.27607181 -102.611804058 205.266583112 -143.422301093 269.800726204 -143.422301093 c 0
 286.000413914 -143.422301093 302.486412152 -140.850685363 318.72265625 -135.439453125 c 2
 902.0625 59.0078125 l 1
 902.0625 133.33203125 l 2
 902.0625 198.958984375 937.626953125 256.290039062 990.392578125 287.5 c 1
 747.89453125 287.5 l 1
 747.89453125 312.5 l 1
 1081.23046875 312.5 l 1
 1081.23046875 287.5 l 1
 995.939453125 287.5 927.0625 218.623046875 927.0625 133.33203125 c 2
 927.0625 67.341796875 l 1
 1625.03515625 300 l 1
 318.724609375 735.4375 l 2
 256.465820312 756.188476562 213.323242188 808.057617188 200.400390625 867.982421875 c 1
 123.71875 637.93359375 l 1
 100 645.83984375 l 1
 205.40625 962.06640625 l 1
EndSplineSet
EndChar

StartChar: U1224d
Encoding: 333 74317 77
Width: 2212
VWidth: 100
Flags: W
HStem: -112.512 25<1168.87 1600> 87.4609 25<1168.87 1600> 120.832 25<1779.17 1934.91 1958.88 2021.66 2052.43 2112.5> 287.5 25<220.617 688.33 719.097 1021.66 1052.43 1059.55 1445.83 1688.33 1719.1 2021.66 2051.88 2112.5>
VStem: 100 25<133.332 375.83 406.597 466.668> 600 25<-200 191.883> 933.332 25<-200 191.883> 1100 25<-200 -70.5352 -43.6384 129.438 156.335 199.949> 1600 25<-200 -112.512 -87.5117 87.4609 112.461 191.883> 1933.33 25<-200 25.2181 145.832 191.723>
LayerCount: 2
Fore
SplineSet
468.75 808.21484375 m 1
 491.109375 797.03515625 l 1
 480.008177119 774.83190784 474.746669363 751.263903384 474.746669363 728.065906649 c 0
 474.746669363 671.555923524 505.968589194 617.241575557 560.0546875 590.19921875 c 2
 1118.08984375 311.181640625 l 1
 1112.5 300 l 1
 1112.5 287.5 l 1
 1027.20898438 287.5 958.33203125 218.623046875 958.33203125 133.33203125 c 2
 958.33203125 -200 l 1
 933.33203125 -200 l 1
 933.33203125 133.33203125 l 2
 933.33203125 198.958984375 968.896484375 256.290039062 1021.66210938 287.5 c 1
 779.16796875 287.5 l 2
 693.876953125 287.5 625 218.623046875 625 133.33203125 c 2
 625 -200 l 1
 600 -200 l 1
 600 133.33203125 l 2
 600 198.958984375 635.564453125 256.290039062 688.330078125 287.5 c 1
 279.16796875 287.5 l 2
 213.541015625 287.5 156.209960938 323.064453125 125 375.830078125 c 1
 125 133.33203125 l 1
 100 133.33203125 l 1
 100 466.66796875 l 1
 125 466.66796875 l 1
 125 381.376953125 193.876953125 312.5 279.16796875 312.5 c 2
 1059.55078125 312.5 l 1
 548.875 567.83984375 l 2
 490.173828125 597.189453125 454.802734375 654.63671875 450.486328125 715.7890625 c 1
 342.0390625 498.890625 l 1
 319.6796875 510.0703125 l 1
 468.75 808.21484375 l 1
1445.83203125 312.5 m 1
 1779.16796875 312.5 l 1
 2112.5 312.5 l 1
 2112.5 287.5 l 1
 2031.421875 287.5 1965.22363281 225.247070312 1958.87695312 145.83203125 c 1
 2112.5 145.83203125 l 1
 2112.5 120.83203125 l 1
 2027.20898438 120.83203125 1958.33203125 51.958984375 1958.33203125 -33.33203125 c 2
 1958.33203125 -200 l 1
 1933.33203125 -200 l 1
 1933.33203125 -33.33203125 l 2
 1933.33203125 32.294921875 1968.89746094 89.623046875 2021.66210938 120.83203125 c 1
 1779.16796875 120.83203125 l 1
 1779.16796875 145.83203125 l 1
 1933.76953125 145.83203125 l 1
 1937.96289062 206.193359375 1972.27636719 258.2890625 2021.66210938 287.5 c 1
 1779.16796875 287.5 l 2
 1693.87695312 287.5 1625 218.623046875 1625 133.33203125 c 2
 1625 -200 l 1
 1600 -200 l 1
 1600 -112.51171875 l 1
 1212.48828125 -112.51171875 l 2
 1177.1875 -112.51171875 1145.64648438 -96.0927734375 1125 -70.53515625 c 1
 1125 -200 l 1
 1100 -200 l 1
 1100 -0.02734375 l 1
 1100 199.94921875 l 1
 1125 199.94921875 l 1
 1125 151.481445312 1164.02050781 112.4609375 1212.48828125 112.4609375 c 2
 1600 112.4609375 l 1
 1600 133.33203125 l 2
 1600 198.958984375 1635.56445312 256.290039062 1688.33007812 287.5 c 1
 1445.83203125 287.5 l 1
 1445.83203125 312.5 l 1
1125 129.4375 m 1
 1125 -0.02734375 l 2
 1125 -48.490234375 1164.02148438 -87.51171875 1212.48828125 -87.51171875 c 2
 1600 -87.51171875 l 1
 1600 87.4609375 l 1
 1212.48828125 87.4609375 l 2
 1177.1875 87.4609375 1145.64648438 103.87890625 1125 129.4375 c 1
EndSplineSet
EndChar

